<svg xmlns="http://www.w3.org/2000/svg" width="32" height="32" fill="none"><path fill="url(#a)" d="M19.3 5q0-1-1.2-1.2l-.3-.3C17.6 3 17.2 2 16.1 2s-1.5.9-1.7 1.5q0 .3-.3.3-1.2.3-1.3 1.2.2 1.3 1.4 1.7l.3.2q.4 1.1 1.6 1.2t1.6-1.2l.3-.2q1.2-.4 1.3-1.7"/><g filter="url(#b)"><circle cx="14.3" cy="5.4" r="1.6" fill="url(#c)"/><circle cx="14.3" cy="5.4" r="1.6" fill="url(#d)"/></g><path fill="url(#e)" d="M15.4 8q0-1.2-1.3-1.5l-.3-.2c-.3-.7-.6-1.5-1.7-1.5-1 0-1.5.8-1.7 1.5l-.3.2Q8.8 7 8.7 8q.1 1.5 1.4 1.7l.3.3a1.8 1.8 0 0 0 3.3 0l.3-.3q1.3-.2 1.4-1.7"/><g filter="url(#f)" transform="rotate(4 12.2 10.5)"><circle cx="12.2" cy="10.5" r="1.5" fill="#DBB080"/><circle cx="12.2" cy="10.5" r="1.5" fill="url(#g)"/><circle cx="12.2" cy="10.5" r="1.5" fill="url(#h)"/></g><g filter="url(#i)"><path fill="url(#j)" d="M17.7 3.7q-.1 1.6-1.6 1.7-1.5-.1-1.6-1.7c0-.6.6-1.6 1.6-1.6q1.5.1 1.6 1.6"/></g><g filter="url(#k)"><ellipse cx="14.2" cy="8.3" fill="url(#l)" rx="1.6" ry="1.7"/></g><g filter="url(#m)"><path fill="url(#n)" d="M13.7 6.6q-.1 1.6-1.6 1.7-1.5-.1-1.7-1.7c0-.7.7-1.7 1.7-1.7q1.5.2 1.6 1.7"/></g><g filter="url(#o)"><circle cx="10.4" cy="8.2" r="1.6" fill="url(#p)"/><circle cx="10.4" cy="8.2" r="1.6" fill="url(#q)"/></g><g filter="url(#r)"><circle cx="12" cy="8.2" r="1.7" fill="url(#s)"/></g><g filter="url(#t)"><circle cx="18" cy="5.3" r="1.4" fill="url(#u)"/></g><g filter="url(#v)"><circle cx="16.1" cy="5.4" r="1.7" fill="url(#w)"/><circle cx="16.1" cy="5.4" r="1.7" fill="url(#x)"/><circle cx="16.1" cy="5.4" r="1.7" fill="url(#y)"/></g><path fill="url(#z)" d="M23 8q0-1.2-1.3-1.6l-.3-.3q-.2-1.2-1.7-1.4-1 .1-1.4 1.3 0 .3-.3.3-1.4.4-1.6 1.7.1 1.4 1.4 1.7l.3.3a1.8 1.8 0 0 0 3.3 0l.3-.3Q23 9.5 23 8"/><path fill="#E1C398" d="M13.3 11.7q-.1-1.2-1.4-1.6l-.3-.3q-.2-1.2-1.7-1.4-1.4.2-1.6 1.4l-.3.3q-1.3.3-1.4 1.6.1 1.4 1.4 1.8l.3.2a1.8 1.8 0 0 0 3.3 0l.3-.2q1.3-.4 1.4-1.8"/><path fill="url(#A)" d="M13.3 11.7q-.1-1.2-1.4-1.6l-.3-.3q-.2-1.2-1.7-1.4-1.4.2-1.6 1.4l-.3.3q-1.3.3-1.4 1.6.1 1.4 1.4 1.8l.3.2a1.8 1.8 0 0 0 3.3 0l.3-.2q1.3-.4 1.4-1.8"/><g filter="url(#B)"><circle cx="21.3" cy="8" r="1.6" fill="url(#C)"/><circle cx="21.3" cy="8" r="1.6" fill="url(#D)"/><circle cx="21.3" cy="8" r="1.6" fill="url(#E)"/></g><g filter="url(#F)"><circle cx="8.3" cy="11.7" r="1.6" fill="url(#G)"/><circle cx="8.3" cy="11.7" r="1.6" fill="url(#H)"/></g><g filter="url(#I)"><path fill="url(#J)" d="M11.6 10.2q-.1 1.6-1.6 1.7-1.6-.1-1.7-1.7c0-.7.7-1.7 1.7-1.7q1.5.2 1.6 1.7"/></g><g filter="url(#K)"><path fill="url(#L)" d="M21.3 6.4Q21.2 8 19.8 8q-1.4-.1-1.6-1.6c0-.6.7-1.6 1.6-1.6q1.3.1 1.5 1.6"/></g><path fill="url(#M)" d="M25.3 11.7q0-1.2-1.3-1.6l-.3-.3q-.3-1.2-1.8-1.4-1.2.1-1.6 1.3 0 .3-.3.3-1.3.4-1.4 1.7.1 1.4 1.4 1.8.2 0 .3.2a1.8 1.8 0 0 0 3.3 0l.3-.2q1.3-.4 1.4-1.8"/><g filter="url(#N)"><circle cx="19.8" cy="7.9" r="1.6" fill="url(#O)"/></g><g filter="url(#P)"><path fill="url(#Q)" d="M23.6 10.2q-.2 1.7-1.7 1.8-1.5-.2-1.7-1.8c0-.7.7-1.7 1.7-1.7q1.6.2 1.7 1.7"/></g><path fill="url(#R)" d="M20.3 7.6q-.1-1.2-1.4-1.5l-.2-.2q-.3-1.2-1.7-1.4-1.5.2-1.6 1.4l-.3.2c-.7.2-1.5.7-1.5 1.5 0 1.2.8 1.5 1.5 1.7l.3.2q.4 1.1 1.6 1.2t1.6-1.2l.3-.2q1.2-.4 1.4-1.7"/><g filter="url(#S)"><circle cx="17" cy="10.2" r="1.5" fill="#F4CCA9"/><circle cx="17" cy="10.2" r="1.5" fill="url(#T)"/><circle cx="17" cy="10.2" r="1.5" fill="url(#U)"/></g><g filter="url(#V)"><ellipse cx="23.6" cy="11.7" fill="url(#W)" rx="1.7" ry="1.5"/><ellipse cx="23.6" cy="11.7" fill="url(#X)" rx="1.7" ry="1.5"/><ellipse cx="23.6" cy="11.7" fill="url(#Y)" rx="1.7" ry="1.5"/></g><g filter="url(#Z)"><ellipse cx="18.6" cy="7.8" fill="url(#aa)" rx="1.7" ry="1.6"/><ellipse cx="18.6" cy="7.8" fill="url(#ab)" rx="1.7" ry="1.6"/><ellipse cx="18.6" cy="7.8" fill="url(#ac)" rx="1.7" ry="1.6"/></g><g filter="url(#ad)"><circle cx="22" cy="11.7" r="1.7" fill="url(#ae)"/></g><path fill="url(#af)" d="M23.2 11.6q-.1-1.3-1.4-1.5l-.3-.2c-.2-.7-.7-1.5-1.7-1.5s-1.4.8-1.7 1.5l-.3.2q-1.2.2-1.3 1.5.1 1.3 1.4 1.7l.3.3a1.8 1.8 0 0 0 3.3 0q0-.2.3-.3 1.3-.4 1.4-1.7"/><g filter="url(#ag)"><path fill="url(#ah)" d="M21.4 10.2q-.1 1.7-1.6 1.8-1.6-.2-1.7-1.8c0-.7.7-1.7 1.7-1.7q1.5.2 1.6 1.7"/></g><g filter="url(#ai)"><path fill="#FCE1BB" d="M19.2 12q-.2 1.7-1.7 1.8-1.5-.2-1.7-1.8c0-.7.7-1.7 1.7-1.7q1.6.2 1.7 1.7"/></g><g filter="url(#aj)"><ellipse cx="21.4" cy="11.7" fill="url(#ak)" rx="1.7" ry="1.6"/><ellipse cx="21.4" cy="11.7" fill="url(#al)" rx="1.7" ry="1.6"/><ellipse cx="21.4" cy="11.7" fill="url(#am)" rx="1.7" ry="1.6"/></g><g filter="url(#an)"><path fill="url(#ao)" d="M18.6 6.1q-.1 1.6-1.5 1.7-1.5-.1-1.6-1.7c0-.6.6-1.6 1.6-1.6q1.4.1 1.5 1.6"/></g><g filter="url(#ap)"><circle cx="15.3" cy="7.8" r="1.6" fill="url(#aq)"/></g><g filter="url(#ar)" transform="rotate(4 18.3 14)"><circle cx="18.3" cy="14.1" r="1.5" fill="#DBB080"/><circle cx="18.3" cy="14.1" r="1.5" fill="url(#as)"/><circle cx="18.3" cy="14.1" r="1.5" fill="url(#at)"/></g><g filter="url(#au)"><circle cx="17" cy="7.7" r="1.7" fill="url(#av)"/></g><g filter="url(#aw)"><circle cx="19.8" cy="11.9" r="1.7" fill="url(#ax)"/></g><path fill="url(#ay)" d="m17.2 10.4-.4-.4q-.3-1.2-1.7-1.4-1.5.2-1.7 1.4 0 .3-.4.4-1.3.5-1.3 1.9.2 1.3 1.7 1.6 1.1 0 1.7-1 .5 1 1.8 1 1.3-.2 1.6-1.7 0-1.4-1.3-1.8"/><g filter="url(#az)"><circle cx="16.6" cy="12.1" r="1.7" fill="url(#aA)"/><circle cx="16.6" cy="12.1" r="1.7" fill="url(#aB)"/><circle cx="16.6" cy="12.1" r="1.7" fill="url(#aC)"/><circle cx="16.6" cy="12.1" r="1.7" fill="url(#aD)"/></g><g filter="url(#aE)"><path fill="url(#aF)" d="M16.7 10.4q-.1 1.7-1.6 1.8-1.6-.2-1.7-1.8c0-.7.7-1.8 1.7-1.8q1.5.2 1.6 1.8"/></g><g filter="url(#aG)"><circle cx="13.4" cy="12" r="1.6" fill="url(#aH)"/></g><g filter="url(#aI)"><circle cx="9.9" cy="11.6" r="1.7" fill="url(#aJ)"/></g><path fill="url(#aK)" d="M10 13.9 11.3 30h3l-.6-16.4q-.2-1.6-1.9-1.7c-1 0-1.9.9-1.8 2"/><path fill="url(#aL)" d="M10 13.9 11.3 30h3l-.6-16.4q-.2-1.6-1.9-1.7c-1 0-1.9.9-1.8 2"/><g filter="url(#aM)"><path fill="#E7C8FF" d="m10 14.2 1.3 15.5h3L13.8 14q-.2-1.6-1.9-1.7c-1 0-1.9.8-1.8 1.9"/></g><path fill="url(#aN)" d="M8 11.9a2 2 0 0 0-2 2.3l2.3 14.6Q8.7 30 9.8 30h1.5L10 13.7c0-1-1-1.8-2-1.8"/><path fill="url(#aO)" d="M8 11.9a2 2 0 0 0-2 2.3l2.3 14.6Q8.7 30 9.8 30h1.5L10 13.7c0-1-1-1.8-2-1.8"/><g filter="url(#aP)"><path fill="url(#aQ)" d="M8 12.2q-2 .2-1.8 2.3l2.4 14.4q.1.8 1.1.7h1.4L9.8 14q0-1.7-1.8-1.8"/><path fill="url(#aR)" d="M8 12.2q-2 .2-1.8 2.3l2.4 14.4q.1.8 1.1.7h1.4L9.8 14q0-1.7-1.8-1.8"/></g><g filter="url(#aS)"><circle cx="15" cy="11.9" r="1.7" fill="url(#aT)"/></g><path fill="url(#aU)" d="M18.7 13.6 18 30h3.1l1.3-16q-.1-1.8-1.9-2-1.7.2-1.8 1.7"/><path fill="url(#aV)" d="M18.7 13.6 18 30h3.1l1.3-16q-.1-1.8-1.9-2-1.7.2-1.8 1.7"/><g filter="url(#aW)"><path fill="#E7C8FF" d="M18.7 14 18 29.8h3.1l1.3-15.6c0-1-.8-2-1.9-2q-1.7.2-1.8 1.8"/></g><path fill="url(#aX)" d="M24.4 11.9c-1 0-2 .8-2 1.8L21 30h1.6q1.1 0 1.4-1.2l2.3-14.6a2 2 0 0 0-2-2.3"/><path fill="url(#aY)" d="M24.4 11.9c-1 0-2 .8-2 1.8L21 30h1.6q1.1 0 1.4-1.2l2.3-14.6a2 2 0 0 0-2-2.3"/><g filter="url(#aZ)"><path fill="url(#ba)" d="M24.4 12.3a2 2 0 0 0-2 1.7l-1.2 15.7h1.5q1 0 1-1.2l2.3-14c.2-1.2-.4-2.2-1.6-2.2"/></g><path fill="url(#bb)" d="M16.2 11.9a2.4 2.4 0 0 0-2.4 2.5l.6 15.6H18l.6-15.6q-.2-2.3-2.4-2.5"/><g filter="url(#bc)"><path fill="url(#bd)" d="M16.2 12.3a2.3 2.3 0 0 0-2.3 2.4l.5 15.1H18l.6-15c0-1.4-1-2.6-2.3-2.6"/></g><g filter="url(#be)"><path fill="#FF5A6D" d="M18 13.7c.6-.2-.4-1.5-1.8-1.5 1.9.8 1.2 1.6 1.8 1.5"/></g><g filter="url(#bf)"><path fill="#FF5A6D" d="M26 13.5c.5 0-.3-1.2-1.5-1.2 1.6.7 1 1.4 1.5 1.2"/></g><g filter="url(#bg)"><path fill="#FF5A6D" d="M9.6 13.6c.5-.2-.8-1.5-2.1-1.3 2.2.7 1.6 1.5 2 1.3"/></g><defs><radialGradient id="c" cx="0" cy="0" r="1" gradientTransform="matrix(-1.7977 2.377 -2.36178 -1.7862 15.3 5)" gradientUnits="userSpaceOnUse"><stop stop-color="#FFFAD9"/><stop offset=".6" stop-color="#D5B693"/><stop offset="1" stop-color="#BA8F62"/></radialGradient><radialGradient id="d" cx="0" cy="0" r="1" gradientTransform="rotate(83.7 3.5 11.2)scale(1.52488 3.38128)" gradientUnits="userSpaceOnUse"><stop stop-color="#99744A"/><stop offset=".8" stop-color="#B38D63" stop-opacity="0"/></radialGradient><radialGradient id="g" cx="0" cy="0" r="1" gradientTransform="matrix(-1.10376 2.18375 -1.71116 -.8649 11.9 8.4)" gradientUnits="userSpaceOnUse"><stop offset=".7" stop-color="#A5784D"/><stop offset=".9" stop-color="#C09064"/><stop offset="1" stop-color="#C3976B" stop-opacity="0"/></radialGradient><radialGradient id="h" cx="0" cy="0" r="1" gradientTransform="rotate(138.9 5.6 8)scale(2.33484 2.43931)" gradientUnits="userSpaceOnUse"><stop offset=".5" stop-color="#B7834C"/><stop offset=".9" stop-color="#B27F4C" stop-opacity="0"/></radialGradient><radialGradient id="j" cx="0" cy="0" r="1" gradientTransform="matrix(-1.77579 2.50803 -1.99087 -1.40961 17 3.2)" gradientUnits="userSpaceOnUse"><stop stop-color="#FFFAD9"/><stop offset=".6" stop-color="#E6CAAE"/><stop offset="1" stop-color="#C6AC92"/></radialGradient><radialGradient id="l" cx="0" cy="0" r="1" gradientTransform="matrix(-.04688 -4.17807 3.98137 -.04467 13.8 10)" gradientUnits="userSpaceOnUse"><stop stop-color="#A47250"/><stop offset=".6" stop-color="#B19168"/><stop offset="1" stop-color="#A87658" stop-opacity="0"/></radialGradient><radialGradient id="n" cx="0" cy="0" r="1" gradientTransform="matrix(-1.81443 2.52811 -2.01668 -1.44737 13 6.1)" gradientUnits="userSpaceOnUse"><stop stop-color="#FFFAD9"/><stop offset=".6" stop-color="#E0C4A0"/><stop offset="1" stop-color="#C6AC92"/></radialGradient><radialGradient id="p" cx="0" cy="0" r="1" gradientTransform="matrix(-1.80877 2.34027 -2.34074 -1.80913 11.3 7.6)" gradientUnits="userSpaceOnUse"><stop stop-color="#FFFAD9"/><stop offset=".6" stop-color="#D5B693"/><stop offset="1" stop-color="#BA8F62"/></radialGradient><radialGradient id="q" cx="0" cy="0" r="1" gradientTransform="rotate(83.5 0 10.4)scale(1.49984 3.40862)" gradientUnits="userSpaceOnUse"><stop stop-color="#99744A"/><stop offset=".8" stop-color="#B38D63" stop-opacity="0"/></radialGradient><radialGradient id="s" cx="0" cy="0" r="1" gradientTransform="rotate(130.8 4.7 7)scale(2.48496)" gradientUnits="userSpaceOnUse"><stop stop-color="#FFF7D4"/><stop offset=".6" stop-color="#EAC294"/><stop offset="1" stop-color="#AB9674"/></radialGradient><radialGradient id="u" cx="0" cy="0" r="1" gradientTransform="matrix(-1.3143 2.19602 -2.19685 -1.31479 18.8 4.6)" gradientUnits="userSpaceOnUse"><stop stop-color="#FFF7D4"/><stop offset=".6" stop-color="#F4CBA8"/><stop offset="1" stop-color="#C1A382"/></radialGradient><radialGradient id="w" cx="0" cy="0" r="1" gradientTransform="rotate(124 7.2 7)scale(2.68237)" gradientUnits="userSpaceOnUse"><stop stop-color="#FFF7D4"/><stop offset=".6" stop-color="#F4CBA8"/><stop offset="1" stop-color="#C1A382"/></radialGradient><radialGradient id="x" cx="0" cy="0" r="1" gradientTransform="matrix(.01488 .94691 -2.35265 .03696 15.5 6.2)" gradientUnits="userSpaceOnUse"><stop stop-color="#B38E5E"/><stop offset="1" stop-color="#B59062" stop-opacity="0"/></radialGradient><radialGradient id="y" cx="0" cy="0" r="1" gradientTransform="rotate(141.9 7.4 5.6)scale(3.27637 2.53574)" gradientUnits="userSpaceOnUse"><stop offset=".6" stop-color="#A79376" stop-opacity="0"/><stop offset="1" stop-color="#AB9777"/></radialGradient><radialGradient id="C" cx="0" cy="0" r="1" gradientTransform="matrix(2.2692 -.36347 .35884 2.24033 21.1 7.9)" gradientUnits="userSpaceOnUse"><stop offset=".2" stop-color="#FFFAE5"/><stop offset=".4" stop-color="#FFE6C2"/><stop offset="1" stop-color="#FFE9BE"/></radialGradient><radialGradient id="D" cx="0" cy="0" r="1" gradientTransform="matrix(.95932 .50964 -.28434 .53523 21 9.6)" gradientUnits="userSpaceOnUse"><stop stop-color="#CF9D67"/><stop offset="1" stop-color="#C99762" stop-opacity="0"/></radialGradient><radialGradient id="E" cx="0" cy="0" r="1" gradientTransform="matrix(0 .89936 -.93953 0 22.3 7.6)" gradientUnits="userSpaceOnUse"><stop stop-color="#FFFBD8"/><stop offset="1" stop-color="#FFFAD8" stop-opacity="0"/></radialGradient><radialGradient id="G" cx="0" cy="0" r="1" gradientTransform="matrix(-1.80877 2.34027 -2.34074 -1.80913 9.2 11.3)" gradientUnits="userSpaceOnUse"><stop stop-color="#FFFAD9"/><stop offset=".6" stop-color="#D5B693"/><stop offset="1" stop-color="#BA8F62"/></radialGradient><radialGradient id="H" cx="0" cy="0" r="1" gradientTransform="rotate(83.5 -3 11)scale(1.49984 3.40862)" gradientUnits="userSpaceOnUse"><stop stop-color="#99744A"/><stop offset=".8" stop-color="#B38D63" stop-opacity="0"/></radialGradient><radialGradient id="J" cx="0" cy="0" r="1" gradientTransform="matrix(-1.81747 2.53235 -2.02006 -1.4498 11 9.7)" gradientUnits="userSpaceOnUse"><stop stop-color="#FFEEBC"/><stop offset=".6" stop-color="#DFBF96"/><stop offset="1" stop-color="#C6AC92"/></radialGradient><radialGradient id="L" cx="0" cy="0" r="1" gradientTransform="rotate(125.3 8.8 8.3)scale(2.95379 2.19101)" gradientUnits="userSpaceOnUse"><stop stop-color="#FFFAD9"/><stop offset=".6" stop-color="#F8DDB7"/><stop offset="1" stop-color="#C6AC92"/></radialGradient><radialGradient id="O" cx="0" cy="0" r="1" gradientTransform="matrix(-.83629 1.53125 -1.52894 -.83502 20 8)" gradientUnits="userSpaceOnUse"><stop offset=".6" stop-color="#FFFAD8"/><stop offset=".7" stop-color="#FDE0B2"/></radialGradient><radialGradient id="Q" cx="0" cy="0" r="1" gradientTransform="matrix(-2.09373 2.65627 -2.1171 -1.66874 22.8 9.5)" gradientUnits="userSpaceOnUse"><stop offset=".1" stop-color="#FFF5CA"/><stop offset=".5" stop-color="#F2D4B4"/><stop offset="1" stop-color="#D9B68F"/></radialGradient><radialGradient id="T" cx="0" cy="0" r="1" gradientTransform="matrix(-1.76583 -.31136 .3253 -1.84484 16.9 8.5)" gradientUnits="userSpaceOnUse"><stop offset=".6" stop-color="#C89965"/><stop offset=".9" stop-color="#C69864" stop-opacity="0"/></radialGradient><radialGradient id="U" cx="0" cy="0" r="1" gradientTransform="matrix(-1.25 .92188 -.96313 -1.30593 18.7 10.4)" gradientUnits="userSpaceOnUse"><stop offset=".5" stop-color="#B7834C"/><stop offset=".9" stop-color="#B27F4C" stop-opacity="0"/></radialGradient><radialGradient id="W" cx="0" cy="0" r="1" gradientTransform="matrix(2.34887 -.35472 .33148 2.19493 23.3 11.5)" gradientUnits="userSpaceOnUse"><stop offset=".2" stop-color="#FFFAE5"/><stop offset=".4" stop-color="#FFE6C2"/><stop offset="1" stop-color="#FFE9BE"/></radialGradient><radialGradient id="X" cx="0" cy="0" r="1" gradientTransform="matrix(1.05502 .64439 -.35064 .57409 23.2 13)" gradientUnits="userSpaceOnUse"><stop stop-color="#CF9D67"/><stop offset="1" stop-color="#C99762" stop-opacity="0"/></radialGradient><radialGradient id="Y" cx="0" cy="0" r="1" gradientTransform="matrix(0 .87871 -.97248 0 24.5 11.3)" gradientUnits="userSpaceOnUse"><stop stop-color="#FFFBD8"/><stop offset="1" stop-color="#FFFAD8" stop-opacity="0"/></radialGradient><radialGradient id="aa" cx="0" cy="0" r="1" gradientTransform="rotate(-9.1 57.2 -111.7)scale(2.39559 2.3651)" gradientUnits="userSpaceOnUse"><stop offset=".2" stop-color="#FFFAE5"/><stop offset=".4" stop-color="#FFE6C2"/><stop offset="1" stop-color="#FFE9BE"/></radialGradient><radialGradient id="ab" cx="0" cy="0" r="1" gradientTransform="matrix(1 .53124 -.2964 .55793 18.3 9.4)" gradientUnits="userSpaceOnUse"><stop stop-color="#CF9D67"/><stop offset="1" stop-color="#C99762" stop-opacity="0"/></radialGradient><radialGradient id="ac" cx="0" cy="0" r="1" gradientTransform="matrix(0 .9375 -.97937 0 19.6 7.3)" gradientUnits="userSpaceOnUse"><stop stop-color="#FFFBD8"/><stop offset="1" stop-color="#FFFAD8" stop-opacity="0"/></radialGradient><radialGradient id="ae" cx="0" cy="0" r="1" gradientTransform="matrix(-.8842 1.6196 -1.61681 -.88269 22.4 11.7)" gradientUnits="userSpaceOnUse"><stop offset=".4" stop-color="#FFFAD8"/><stop offset=".7" stop-color="#FDE0B2"/></radialGradient><radialGradient id="ah" cx="0" cy="0" r="1" gradientTransform="matrix(-2.09373 2.65627 -2.1171 -1.66874 20.7 9.6)" gradientUnits="userSpaceOnUse"><stop offset=".1" stop-color="#FFF5CA"/><stop offset=".5" stop-color="#F2D4B4"/><stop offset="1" stop-color="#D9B68F"/></radialGradient><radialGradient id="ak" cx="0" cy="0" r="1" gradientTransform="rotate(-8.6 87.7 -135.2)scale(2.42605 2.26706)" gradientUnits="userSpaceOnUse"><stop offset=".2" stop-color="#FFFAE5"/><stop offset=".4" stop-color="#FFE6C2"/><stop offset="1" stop-color="#FFE9BE"/></radialGradient><radialGradient id="al" cx="0" cy="0" r="1" gradientTransform="rotate(31.4 -12.8 44)scale(1.26256 .68702)" gradientUnits="userSpaceOnUse"><stop stop-color="#CF9D67"/><stop offset="1" stop-color="#C99762" stop-opacity="0"/></radialGradient><radialGradient id="am" cx="0" cy="0" r="1" gradientTransform="matrix(0 .89741 -.99318 0 22.4 11.3)" gradientUnits="userSpaceOnUse"><stop stop-color="#FFFBD8"/><stop offset="1" stop-color="#FFFAD8" stop-opacity="0"/></radialGradient><radialGradient id="ao" cx="0" cy="0" r="1" gradientTransform="matrix(-1.75293 2.47575 -1.83642 -1.30025 18 5.7)" gradientUnits="userSpaceOnUse"><stop stop-color="#FFFAD9"/><stop offset=".6" stop-color="#E6CAAE"/><stop offset="1" stop-color="#C6AC92"/></radialGradient><radialGradient id="aq" cx="0" cy="0" r="1" gradientTransform="matrix(-1.7977 2.377 -2.36178 -1.7862 16.2 7.3)" gradientUnits="userSpaceOnUse"><stop stop-color="#FFFAD9"/><stop offset=".6" stop-color="#D5B693"/><stop offset="1" stop-color="#BA8F62"/></radialGradient><radialGradient id="as" cx="0" cy="0" r="1" gradientTransform="matrix(-1.10376 2.18375 -1.71116 -.8649 18 12)" gradientUnits="userSpaceOnUse"><stop offset=".7" stop-color="#A5784D"/><stop offset=".9" stop-color="#C09064"/><stop offset="1" stop-color="#C3976B" stop-opacity="0"/></radialGradient><radialGradient id="at" cx="0" cy="0" r="1" gradientTransform="rotate(138.9 8 10.9)scale(2.33484 2.43931)" gradientUnits="userSpaceOnUse"><stop offset=".5" stop-color="#B7834C"/><stop offset=".9" stop-color="#B27F4C" stop-opacity="0"/></radialGradient><radialGradient id="av" cx="0" cy="0" r="1" gradientTransform="matrix(-1.62456 1.87544 -1.87615 -1.62517 18.1 7.7)" gradientUnits="userSpaceOnUse"><stop stop-color="#FFF7D4"/><stop offset=".6" stop-color="#F4CBA8"/><stop offset="1" stop-color="#C1A382"/></radialGradient><radialGradient id="ax" cx="0" cy="0" r="1" gradientTransform="rotate(130.8 7.8 10.7)scale(2.48496)" gradientUnits="userSpaceOnUse"><stop stop-color="#FFF7D4"/><stop offset=".6" stop-color="#F4CBA8"/><stop offset="1" stop-color="#C1A382"/></radialGradient><radialGradient id="aA" cx="0" cy="0" r="1" gradientTransform="matrix(2.4711 -.3958 .39077 2.43964 16.4 12)" gradientUnits="userSpaceOnUse"><stop offset=".2" stop-color="#FFFAE5"/><stop offset=".4" stop-color="#FFE6C2"/><stop offset="1" stop-color="#FFE9BE"/></radialGradient><radialGradient id="aB" cx="0" cy="0" r="1" gradientTransform="matrix(-1.96875 2.03124 -1.13329 -1.09842 16.4 9.6)" gradientUnits="userSpaceOnUse"><stop stop-color="#CF9D67"/><stop offset="1" stop-color="#C99762" stop-opacity="0"/></radialGradient><radialGradient id="aC" cx="0" cy="0" r="1" gradientTransform="matrix(0 .97937 -1.02311 0 17.7 11.7)" gradientUnits="userSpaceOnUse"><stop stop-color="#FFFBD8"/><stop offset="1" stop-color="#FFFAD8" stop-opacity="0"/></radialGradient><radialGradient id="aD" cx="0" cy="0" r="1" gradientTransform="matrix(-1.20938 1.32909 -1.34713 -1.2258 18.4 13.7)" gradientUnits="userSpaceOnUse"><stop offset=".4" stop-color="#B38D71"/><stop offset=".8" stop-color="#A58065" stop-opacity="0"/></radialGradient><radialGradient id="aF" cx="0" cy="0" r="1" gradientTransform="matrix(-1.67291 2.75167 -2.19313 -1.33334 15.8 9.7)" gradientUnits="userSpaceOnUse"><stop stop-color="#FFF5CA"/><stop offset=".6" stop-color="#DFC1A0"/><stop offset="1" stop-color="#BEA281"/></radialGradient><radialGradient id="aH" cx="0" cy="0" r="1" gradientTransform="rotate(127.7 4.3 9.3)scale(3.00564 3.00618)" gradientUnits="userSpaceOnUse"><stop stop-color="#FFFAD9"/><stop offset=".6" stop-color="#D5B693"/><stop offset="1" stop-color="#BA8F62"/></radialGradient><radialGradient id="aJ" cx="0" cy="0" r="1" gradientTransform="rotate(130.8 2.9 8.2)scale(2.48496)" gradientUnits="userSpaceOnUse"><stop stop-color="#FFECBA"/><stop offset=".6" stop-color="#EEC69C"/><stop offset="1" stop-color="#B09970"/></radialGradient><radialGradient id="aT" cx="0" cy="0" r="1" gradientTransform="rotate(130.8 5.4 9.6)scale(2.48496)" gradientUnits="userSpaceOnUse"><stop stop-color="#FFF7D4"/><stop offset=".6" stop-color="#F4CBA8"/><stop offset="1" stop-color="#C1A382"/></radialGradient><filter id="b" width="3.7" height="3.7" x="12.5" y="3.6" color-interpolation-filters="sRGB" filterUnits="userSpaceOnUse"><feFlood flood-opacity="0" result="BackgroundImageFix"/><feBlend in="SourceGraphic" in2="BackgroundImageFix" result="shape"/><feGaussianBlur result="effect1_foregroundBlur_18_29199" stdDeviation=".1"/></filter><filter id="f" width="3.6" height="3.4" x="10.4" y="8.8" color-interpolation-filters="sRGB" filterUnits="userSpaceOnUse"><feFlood flood-opacity="0" result="BackgroundImageFix"/><feBlend in="SourceGraphic" in2="BackgroundImageFix" result="shape"/><feGaussianBlur result="effect1_foregroundBlur_18_29199" stdDeviation=".1"/></filter><filter id="i" width="3.7" height="3.9" x="14.2" y="1.8" color-interpolation-filters="sRGB" filterUnits="userSpaceOnUse"><feFlood flood-opacity="0" result="BackgroundImageFix"/><feBlend in="SourceGraphic" in2="BackgroundImageFix" result="shape"/><feGaussianBlur result="effect1_foregroundBlur_18_29199" stdDeviation=".1"/></filter><filter id="k" width="3.7" height="3.8" x="12.4" y="6.3" color-interpolation-filters="sRGB" filterUnits="userSpaceOnUse"><feFlood flood-opacity="0" result="BackgroundImageFix"/><feBlend in="SourceGraphic" in2="BackgroundImageFix" result="shape"/><feGaussianBlur result="effect1_foregroundBlur_18_29199" stdDeviation=".1"/></filter><filter id="m" width="3.8" height="3.9" x="10.2" y="4.7" color-interpolation-filters="sRGB" filterUnits="userSpaceOnUse"><feFlood flood-opacity="0" result="BackgroundImageFix"/><feBlend in="SourceGraphic" in2="BackgroundImageFix" result="shape"/><feGaussianBlur result="effect1_foregroundBlur_18_29199" stdDeviation=".1"/></filter><filter id="o" width="3.7" height="3.7" x="8.6" y="6.3" color-interpolation-filters="sRGB" filterUnits="userSpaceOnUse"><feFlood flood-opacity="0" result="BackgroundImageFix"/><feBlend in="SourceGraphic" in2="BackgroundImageFix" result="shape"/><feGaussianBlur result="effect1_foregroundBlur_18_29199" stdDeviation=".1"/></filter><filter id="r" width="3.9" height="3.9" x="10.1" y="6.2" color-interpolation-filters="sRGB" filterUnits="userSpaceOnUse"><feFlood flood-opacity="0" result="BackgroundImageFix"/><feBlend in="SourceGraphic" in2="BackgroundImageFix" result="shape"/><feGaussianBlur result="effect1_foregroundBlur_18_29199" stdDeviation=".1"/></filter><filter id="t" width="3.3" height="3.3" x="16.3" y="3.6" color-interpolation-filters="sRGB" filterUnits="userSpaceOnUse"><feFlood flood-opacity="0" result="BackgroundImageFix"/><feBlend in="SourceGraphic" in2="BackgroundImageFix" result="shape"/><feGaussianBlur result="effect1_foregroundBlur_18_29199" stdDeviation=".1"/></filter><filter id="v" width="3.9" height="3.9" x="14.1" y="3.5" color-interpolation-filters="sRGB" filterUnits="userSpaceOnUse"><feFlood flood-opacity="0" result="BackgroundImageFix"/><feBlend in="SourceGraphic" in2="BackgroundImageFix" result="shape"/><feGaussianBlur result="effect1_foregroundBlur_18_29199" stdDeviation=".1"/></filter><filter id="B" width="3.7" height="3.7" x="19.5" y="6.2" color-interpolation-filters="sRGB" filterUnits="userSpaceOnUse"><feFlood flood-opacity="0" result="BackgroundImageFix"/><feBlend in="SourceGraphic" in2="BackgroundImageFix" result="shape"/><feGaussianBlur result="effect1_foregroundBlur_18_29199" stdDeviation=".1"/></filter><filter id="F" width="3.7" height="3.7" x="6.4" y="9.9" color-interpolation-filters="sRGB" filterUnits="userSpaceOnUse"><feFlood flood-opacity="0" result="BackgroundImageFix"/><feBlend in="SourceGraphic" in2="BackgroundImageFix" result="shape"/><feGaussianBlur result="effect1_foregroundBlur_18_29199" stdDeviation=".1"/></filter><filter id="I" width="3.8" height="3.9" x="8.1" y="8.3" color-interpolation-filters="sRGB" filterUnits="userSpaceOnUse"><feFlood flood-opacity="0" result="BackgroundImageFix"/><feBlend in="SourceGraphic" in2="BackgroundImageFix" result="shape"/><feGaussianBlur result="effect1_foregroundBlur_18_29199" stdDeviation=".1"/></filter><filter id="K" width="3.6" height="3.8" x="18" y="4.5" color-interpolation-filters="sRGB" filterUnits="userSpaceOnUse"><feFlood flood-opacity="0" result="BackgroundImageFix"/><feBlend in="SourceGraphic" in2="BackgroundImageFix" result="shape"/><feGaussianBlur result="effect1_foregroundBlur_18_29199" stdDeviation=".1"/></filter><filter id="N" width="3.8" height="3.8" x="17.9" y="6.1" color-interpolation-filters="sRGB" filterUnits="userSpaceOnUse"><feFlood flood-opacity="0" result="BackgroundImageFix"/><feBlend in="SourceGraphic" in2="BackgroundImageFix" result="shape"/><feGaussianBlur result="effect1_foregroundBlur_18_29199" stdDeviation=".1"/></filter><filter id="P" width="3.9" height="4" x="20" y="8.2" color-interpolation-filters="sRGB" filterUnits="userSpaceOnUse"><feFlood flood-opacity="0" result="BackgroundImageFix"/><feBlend in="SourceGraphic" in2="BackgroundImageFix" result="shape"/><feGaussianBlur result="effect1_foregroundBlur_18_29199" stdDeviation=".1"/></filter><filter id="S" width="3.6" height="3.4" x="15.2" y="8.5" color-interpolation-filters="sRGB" filterUnits="userSpaceOnUse"><feFlood flood-opacity="0" result="BackgroundImageFix"/><feBlend in="SourceGraphic" in2="BackgroundImageFix" result="shape"/><feGaussianBlur result="effect1_foregroundBlur_18_29199" stdDeviation=".1"/></filter><filter id="V" width="3.8" height="3.6" x="21.6" y="9.9" color-interpolation-filters="sRGB" filterUnits="userSpaceOnUse"><feFlood flood-opacity="0" result="BackgroundImageFix"/><feBlend in="SourceGraphic" in2="BackgroundImageFix" result="shape"/><feGaussianBlur result="effect1_foregroundBlur_18_29199" stdDeviation=".1"/></filter><filter id="Z" width="3.8" height="3.8" x="16.7" y="5.9" color-interpolation-filters="sRGB" filterUnits="userSpaceOnUse"><feFlood flood-opacity="0" result="BackgroundImageFix"/><feBlend in="SourceGraphic" in2="BackgroundImageFix" result="shape"/><feGaussianBlur result="effect1_foregroundBlur_18_29199" stdDeviation=".1"/></filter><filter id="ad" width="3.9" height="3.9" x="20.1" y="9.8" color-interpolation-filters="sRGB" filterUnits="userSpaceOnUse"><feFlood flood-opacity="0" result="BackgroundImageFix"/><feBlend in="SourceGraphic" in2="BackgroundImageFix" result="shape"/><feGaussianBlur result="effect1_foregroundBlur_18_29199" stdDeviation=".1"/></filter><filter id="ag" width="3.9" height="4" x="17.8" y="8.2" color-interpolation-filters="sRGB" filterUnits="userSpaceOnUse"><feFlood flood-opacity="0" result="BackgroundImageFix"/><feBlend in="SourceGraphic" in2="BackgroundImageFix" result="shape"/><feGaussianBlur result="effect1_foregroundBlur_18_29199" stdDeviation=".1"/></filter><filter id="ai" width="3.9" height="4" x="15.6" y="10" color-interpolation-filters="sRGB" filterUnits="userSpaceOnUse"><feFlood flood-opacity="0" result="BackgroundImageFix"/><feBlend in="SourceGraphic" in2="BackgroundImageFix" result="shape"/><feGaussianBlur result="effect1_foregroundBlur_18_29199" stdDeviation=".1"/></filter><filter id="aj" width="3.9" height="3.6" x="19.5" y="9.9" color-interpolation-filters="sRGB" filterUnits="userSpaceOnUse"><feFlood flood-opacity="0" result="BackgroundImageFix"/><feBlend in="SourceGraphic" in2="BackgroundImageFix" result="shape"/><feGaussianBlur result="effect1_foregroundBlur_18_29199" stdDeviation=".1"/></filter><filter id="an" width="3.7" height="3.8" x="15.2" y="4.2" color-interpolation-filters="sRGB" filterUnits="userSpaceOnUse"><feFlood flood-opacity="0" result="BackgroundImageFix"/><feBlend in="SourceGraphic" in2="BackgroundImageFix" result="shape"/><feGaussianBlur result="effect1_foregroundBlur_18_29199" stdDeviation=".1"/></filter><filter id="ap" width="3.7" height="3.7" x="13.5" y="6" color-interpolation-filters="sRGB" filterUnits="userSpaceOnUse"><feFlood flood-opacity="0" result="BackgroundImageFix"/><feBlend in="SourceGraphic" in2="BackgroundImageFix" result="shape"/><feGaussianBlur result="effect1_foregroundBlur_18_29199" stdDeviation=".1"/></filter><filter id="ar" width="3.6" height="3.4" x="16.5" y="12.3" color-interpolation-filters="sRGB" filterUnits="userSpaceOnUse"><feFlood flood-opacity="0" result="BackgroundImageFix"/><feBlend in="SourceGraphic" in2="BackgroundImageFix" result="shape"/><feGaussianBlur result="effect1_foregroundBlur_18_29199" stdDeviation=".1"/></filter><filter id="au" width="3.9" height="3.9" x="15" y="5.8" color-interpolation-filters="sRGB" filterUnits="userSpaceOnUse"><feFlood flood-opacity="0" result="BackgroundImageFix"/><feBlend in="SourceGraphic" in2="BackgroundImageFix" result="shape"/><feGaussianBlur result="effect1_foregroundBlur_18_29199" stdDeviation=".1"/></filter><filter id="aw" width="3.9" height="3.9" x="17.9" y="10" color-interpolation-filters="sRGB" filterUnits="userSpaceOnUse"><feFlood flood-opacity="0" result="BackgroundImageFix"/><feBlend in="SourceGraphic" in2="BackgroundImageFix" result="shape"/><feGaussianBlur result="effect1_foregroundBlur_18_29199" stdDeviation=".1"/></filter><filter id="az" width="4" height="3.9" x="14.6" y="10.2" color-interpolation-filters="sRGB" filterUnits="userSpaceOnUse"><feFlood flood-opacity="0" result="BackgroundImageFix"/><feBlend in="SourceGraphic" in2="BackgroundImageFix" result="shape"/><feGaussianBlur result="effect1_foregroundBlur_18_29199" stdDeviation=".1"/></filter><filter id="aE" width="3.9" height="4" x="13.1" y="8.4" color-interpolation-filters="sRGB" filterUnits="userSpaceOnUse"><feFlood flood-opacity="0" result="BackgroundImageFix"/><feBlend in="SourceGraphic" in2="BackgroundImageFix" result="shape"/><feGaussianBlur result="effect1_foregroundBlur_18_29199" stdDeviation=".1"/></filter><filter id="aG" width="3.7" height="3.7" x="11.5" y="10.2" color-interpolation-filters="sRGB" filterUnits="userSpaceOnUse"><feFlood flood-opacity="0" result="BackgroundImageFix"/><feBlend in="SourceGraphic" in2="BackgroundImageFix" result="shape"/><feGaussianBlur result="effect1_foregroundBlur_18_29199" stdDeviation=".1"/></filter><filter id="aI" width="3.9" height="3.9" x="7.9" y="9.6" color-interpolation-filters="sRGB" filterUnits="userSpaceOnUse"><feFlood flood-opacity="0" result="BackgroundImageFix"/><feBlend in="SourceGraphic" in2="BackgroundImageFix" result="shape"/><feGaussianBlur result="effect1_foregroundBlur_18_29199" stdDeviation=".1"/></filter><filter id="aM" width="4.9" height="17.9" x="9.7" y="12" color-interpolation-filters="sRGB" filterUnits="userSpaceOnUse"><feFlood flood-opacity="0" result="BackgroundImageFix"/><feBlend in="SourceGraphic" in2="BackgroundImageFix" result="shape"/><feGaussianBlur result="effect1_foregroundBlur_18_29199" stdDeviation=".1"/></filter><filter id="aP" width="5.5" height="17.9" x="5.9" y="11.9" color-interpolation-filters="sRGB" filterUnits="userSpaceOnUse"><feFlood flood-opacity="0" result="BackgroundImageFix"/><feBlend in="SourceGraphic" in2="BackgroundImageFix" result="shape"/><feGaussianBlur result="effect1_foregroundBlur_18_29199" stdDeviation=".1"/></filter><filter id="aS" width="3.9" height="3.9" x="13.1" y="10" color-interpolation-filters="sRGB" filterUnits="userSpaceOnUse"><feFlood flood-opacity="0" result="BackgroundImageFix"/><feBlend in="SourceGraphic" in2="BackgroundImageFix" result="shape"/><feGaussianBlur result="effect1_foregroundBlur_18_29199" stdDeviation=".1"/></filter><filter id="aW" width="4.9" height="18.1" x="17.8" y="12" color-interpolation-filters="sRGB" filterUnits="userSpaceOnUse"><feFlood flood-opacity="0" result="BackgroundImageFix"/><feBlend in="SourceGraphic" in2="BackgroundImageFix" result="shape"/><feGaussianBlur result="effect1_foregroundBlur_18_29199" stdDeviation=".1"/></filter><filter id="aZ" width="5.4" height="17.9" x="20.9" y="12" color-interpolation-filters="sRGB" filterUnits="userSpaceOnUse"><feFlood flood-opacity="0" result="BackgroundImageFix"/><feBlend in="SourceGraphic" in2="BackgroundImageFix" result="shape"/><feGaussianBlur result="effect1_foregroundBlur_18_29199" stdDeviation=".1"/></filter><filter id="bc" width="5.1" height="18.1" x="13.6" y="12" color-interpolation-filters="sRGB" filterUnits="userSpaceOnUse"><feFlood flood-opacity="0" result="BackgroundImageFix"/><feBlend in="SourceGraphic" in2="BackgroundImageFix" result="shape"/><feGaussianBlur result="effect1_foregroundBlur_18_29199" stdDeviation=".1"/></filter><filter id="be" width="2.5" height="2.1" x="15.9" y="11.9" color-interpolation-filters="sRGB" filterUnits="userSpaceOnUse"><feFlood flood-opacity="0" result="BackgroundImageFix"/><feBlend in="SourceGraphic" in2="BackgroundImageFix" result="shape"/><feGaussianBlur result="effect1_foregroundBlur_18_29199" stdDeviation=".1"/></filter><filter id="bf" width="2.2" height="1.9" x="24.2" y="12" color-interpolation-filters="sRGB" filterUnits="userSpaceOnUse"><feFlood flood-opacity="0" result="BackgroundImageFix"/><feBlend in="SourceGraphic" in2="BackgroundImageFix" result="shape"/><feGaussianBlur result="effect1_foregroundBlur_18_29199" stdDeviation=".1"/></filter><filter id="bg" width="2.8" height="1.9" x="7.2" y="12" color-interpolation-filters="sRGB" filterUnits="userSpaceOnUse"><feFlood flood-opacity="0" result="BackgroundImageFix"/><feBlend in="SourceGraphic" in2="BackgroundImageFix" result="shape"/><feGaussianBlur result="effect1_foregroundBlur_18_29199" stdDeviation=".1"/></filter><linearGradient id="a" x1="13.1" x2="19" y1="4.3" y2="4.3" gradientUnits="userSpaceOnUse"><stop offset=".3" stop-color="#A29175"/><stop offset=".6" stop-color="#CDC2AE"/><stop offset="1" stop-color="#E0CFAF"/></linearGradient><linearGradient id="e" x1="9.1" x2="15.2" y1="7.3" y2="7.3" gradientUnits="userSpaceOnUse"><stop offset=".3" stop-color="#A29175"/><stop offset=".6" stop-color="#F9DFB1"/><stop offset="1" stop-color="#E0CFAF"/></linearGradient><linearGradient id="z" x1="16.7" x2="22.8" y1="7.2" y2="7.2" gradientUnits="userSpaceOnUse"><stop offset=".1" stop-color="#DAB381"/><stop offset=".4" stop-color="#DEBA8C"/><stop offset=".6" stop-color="#E6D2AD"/><stop offset="1" stop-color="#E8D4AE"/></linearGradient><linearGradient id="A" x1="6.9" x2="13" y1="10.9" y2="10.9" gradientUnits="userSpaceOnUse"><stop offset=".3" stop-color="#A29175"/><stop offset=".6" stop-color="#F9DFB1"/><stop offset="1" stop-color="#E0CFAF"/></linearGradient><linearGradient id="M" x1="18.9" x2="25" y1="10.9" y2="10.9" gradientUnits="userSpaceOnUse"><stop offset=".1" stop-color="#DAB381"/><stop offset=".4" stop-color="#DEBA8C"/><stop offset=".6" stop-color="#E6D2AD"/><stop offset="1" stop-color="#E8D4AE"/></linearGradient><linearGradient id="R" x1="14.1" x2="19.9" y1="7.6" y2="7.6" gradientUnits="userSpaceOnUse"><stop stop-color="#C0A988"/><stop offset=".3" stop-color="#A19075"/><stop offset=".8" stop-color="#D9C7A5"/><stop offset=".9" stop-color="#EAD5B1"/><stop offset="1" stop-color="#FCDBA9"/></linearGradient><linearGradient id="af" x1="16.8" x2="22.9" y1="10.8" y2="10.8" gradientUnits="userSpaceOnUse"><stop offset=".1" stop-color="#DAB381"/><stop offset=".4" stop-color="#DEBA8C"/><stop offset=".6" stop-color="#E6D2AD"/><stop offset="1" stop-color="#EBD7B2"/></linearGradient><linearGradient id="ay" x1="12.2" x2="18" y1="11.3" y2="11.3" gradientUnits="userSpaceOnUse"><stop stop-color="#C0A988"/><stop offset=".3" stop-color="#A19075"/><stop offset=".8" stop-color="#D9C7A5"/><stop offset=".9" stop-color="#EAD5B1"/><stop offset="1" stop-color="#FCDBA9"/></linearGradient><linearGradient id="aK" x1="10" x2="13.7" y1="12.6" y2="12.6" gradientUnits="userSpaceOnUse"><stop offset=".1" stop-color="#9D9093"/><stop offset=".7" stop-color="#F6E8FF"/></linearGradient><linearGradient id="aL" x1="12.3" x2="12.3" y1="30" y2="28.8" gradientUnits="userSpaceOnUse"><stop stop-color="#C573FD"/><stop offset=".2" stop-color="#EDB2FF"/><stop offset="1" stop-color="#E39CFF" stop-opacity="0"/></linearGradient><linearGradient id="aN" x1="6" x2="10.2" y1="13.3" y2="13.3" gradientUnits="userSpaceOnUse"><stop offset=".3" stop-color="#A42131"/><stop offset="1" stop-color="#FB3A4A"/></linearGradient><linearGradient id="aO" x1="10.6" x2="10.6" y1="29.8" y2="27.7" gradientUnits="userSpaceOnUse"><stop stop-color="#D8107F"/><stop offset=".2" stop-color="#F71080"/><stop offset="1" stop-color="#F20F81" stop-opacity="0"/></linearGradient><linearGradient id="aQ" x1="8.7" x2="8.7" y1="12.2" y2="29.6" gradientUnits="userSpaceOnUse"><stop stop-color="#F02059"/><stop offset="1" stop-color="#FA1C79"/></linearGradient><linearGradient id="aR" x1="6.8" x2="8.6" y1="20.7" y2="20.4" gradientUnits="userSpaceOnUse"><stop stop-color="#C83553"/><stop offset=".7" stop-color="#D52853" stop-opacity="0"/></linearGradient><linearGradient id="aU" x1="18.7" x2="22.4" y1="12.6" y2="12.6" gradientUnits="userSpaceOnUse"><stop offset="0" stop-color="#9D9093"/><stop offset=".6" stop-color="#F6E8FF"/></linearGradient><linearGradient id="aV" x1="20.4" x2="20.4" y1="30" y2="29" gradientUnits="userSpaceOnUse"><stop stop-color="#C573FD"/><stop offset=".2" stop-color="#E9A9FF"/><stop offset="1" stop-color="#E39CFF" stop-opacity="0"/></linearGradient><linearGradient id="aX" x1="21.1" x2="25.3" y1="13.3" y2="13.3" gradientUnits="userSpaceOnUse"><stop offset=".3" stop-color="#A42131"/><stop offset="1" stop-color="#FB3A4A"/></linearGradient><linearGradient id="aY" x1="25.7" x2="25.7" y1="29.8" y2="27.7" gradientUnits="userSpaceOnUse"><stop stop-color="#D8107F"/><stop offset=".2" stop-color="#F71080"/><stop offset="1" stop-color="#F20F81" stop-opacity="0"/></linearGradient><linearGradient id="ba" x1="26.4" x2="23.3" y1="19" y2="18.5" gradientUnits="userSpaceOnUse"><stop stop-color="#FE1951"/><stop offset=".6" stop-color="#F32064"/></linearGradient><linearGradient id="bb" x1="13.8" x2="18.6" y1="13.3" y2="13.3" gradientUnits="userSpaceOnUse"><stop offset=".4" stop-color="#C13444"/><stop offset="1" stop-color="#FF4358"/></linearGradient><linearGradient id="bd" x1="16.2" x2="16.2" y1="12.3" y2="29.8" gradientUnits="userSpaceOnUse"><stop stop-color="#F02059"/><stop offset="1" stop-color="#FA1C79"/></linearGradient></defs></svg>