<svg xmlns="http://www.w3.org/2000/svg" width="32" height="32" fill="none"><path fill="url(#a)" d="M2 18.7h28V30H2z"/><path fill="url(#b)" d="M4.1 6.5q0-.3.4-.3h1.2q.4 0 .4.3V12H4z"/><path fill="url(#c)" d="M4.1 6.5q0-.3.4-.3h1.2q.4 0 .4.3V12H4z"/><path fill="url(#d)" d="M4.1 6.5q0-.3.4-.3h1.2q.4 0 .4.3V12H4z"/><path fill="url(#e)" d="M4.1 6.5q0-.3.4-.3h1.2q.4 0 .4.3V12H4z"/><path fill="url(#f)" d="M4.1 6.5q0-.3.4-.3h1.2q.4 0 .4.3V12H4z"/><path fill="url(#g)" d="M14.1 19h-11v-7l5.5-5.6 5.5 5.6z"/><path fill="url(#h)" d="M14.1 19h-11v-7l5.5-5.6 5.5 5.6z"/><path fill="url(#i)" d="M14.1 19h-11v-7l5.5-5.6 5.5 5.6z"/><path fill="url(#j)" d="M14.1 19h-11v-7l5.5-5.6 5.5 5.6z"/><path fill="url(#k)" d="M14.1 19h-11v-7l5.5-5.6 5.5 5.6z"/><path fill="url(#l)" d="M14.1 19h-11v-7l5.5-5.6 5.5 5.6z"/><path fill="url(#m)" d="M14.1 19h-11v-7l5.5-5.6 5.5 5.6z"/><path fill="url(#n)" d="M15.4 12.3 9 5.9h-.8l-6.6 6.4q-.3.4 0 .8.5.5.9 0l6-5.8h.3l5.9 5.8q.4.5.8 0t0-.8"/><g filter="url(#o)"><path stroke="url(#p)" stroke-linecap="round" stroke-width=".3" d="m8.6 6.2 6.5 6.4"/></g><g filter="url(#q)"><path stroke="url(#r)" stroke-linecap="round" stroke-opacity=".5" stroke-width=".3" d="m8.6 6.2-6.5 6.4"/></g><path fill="url(#s)" d="M19.1 6.5q0-.3.4-.3h1.3q.3 0 .3.3V12h-2z"/><path fill="url(#t)" d="M19.1 6.5q0-.3.4-.3h1.3q.3 0 .3.3V12h-2z"/><path fill="url(#u)" d="M19.1 6.5q0-.3.4-.3h1.3q.3 0 .3.3V12h-2z"/><path fill="url(#v)" d="M19.1 6.5q0-.3.4-.3h1.3q.3 0 .3.3V12h-2z"/><path fill="url(#w)" d="M19.1 6.5q0-.3.4-.3h1.3q.3 0 .3.3V12h-2z"/><path fill="url(#x)" d="M19.1 6.5q0-.3.4-.3h1.3q.3 0 .3.3V12h-2z"/><path fill="url(#y)" d="M19.1 6.5q0-.3.4-.3h1.3q.3 0 .3.3V12h-2z"/><path fill="url(#z)" d="M19.1 6.5q0-.3.4-.3h1.3q.3 0 .3.3V12h-2z"/><path fill="url(#A)" d="M19.1 6.5q0-.3.4-.3h1.3q.3 0 .3.3V12h-2z"/><path fill="url(#B)" d="M19.1 6.5q0-.3.4-.3h1.3q.3 0 .3.3V12h-2z"/><path fill="url(#C)" d="M29.1 19h-11v-7l5.5-5.6 5.5 5.6z"/><path fill="url(#D)" d="M29.1 19h-11v-7l5.5-5.6 5.5 5.6z"/><path fill="url(#E)" d="M29.1 19h-11v-7l5.5-5.6 5.5 5.6z"/><path fill="url(#F)" d="M29.1 19h-11v-7l5.5-5.6 5.5 5.6z"/><path fill="url(#G)" d="M29.1 19h-11v-7l5.5-5.6 5.5 5.6z"/><path fill="url(#H)" d="M29.1 19h-11v-7l5.5-5.6 5.5 5.6z"/><path fill="url(#I)" d="M29.1 19h-11v-7l5.5-5.6 5.5 5.6z"/><path fill="url(#J)" d="M29.1 19h-11v-7l5.5-5.6 5.5 5.6z"/><path fill="url(#K)" d="M30.5 12.3 24 5.9a.6.6 0 0 0-1 0l-6.4 6.4q-.4.4 0 .8t.8 0l6-5.8h.3l5.9 5.8q.4.5.9 0 .3-.4 0-.8"/><g filter="url(#L)"><path stroke="url(#M)" stroke-linecap="round" stroke-width=".3" d="m23.6 6.2 6.6 6.4"/></g><g filter="url(#N)"><path stroke="url(#O)" stroke-linecap="round" stroke-opacity=".5" stroke-width=".3" d="m23.6 6.2-6.5 6.4"/></g><path fill="url(#P)" d="M24.3 26.1H7.9V15.9L16 7.7l8.2 8.2z"/><path fill="url(#Q)" d="M24.3 26.1H7.9V15.9L16 7.7l8.2 8.2z"/><path fill="url(#R)" d="M24.3 26.1H7.9V15.9L16 7.7l8.2 8.2z"/><path fill="url(#S)" d="M24.3 26.1H7.9V15.9L16 7.7l8.2 8.2z"/><path fill="url(#T)" d="M24.3 26.1H7.9V15.9L16 7.7l8.2 8.2z"/><path fill="url(#U)" d="M24.3 26.1H7.9V15.9L16 7.7l8.2 8.2z"/><path fill="url(#V)" d="M24.3 26.1H7.9V15.9L16 7.7l8.2 8.2z"/><g filter="url(#W)"><path fill="url(#X)" d="M15.2 25.8H10v-7.3q0-.9.9-1h3.5q.7.1.8 1z"/></g><g filter="url(#Y)"><path fill="url(#Z)" d="M21.8 21.7h-3.2l-.6-.6v-3.2q0-.6.6-.7h3.2q.5 0 .6.7V21q0 .5-.6.6"/><path fill="url(#aa)" d="M21.8 21.7h-3.2l-.6-.6v-3.2q0-.6.6-.7h3.2q.5 0 .6.7V21q0 .5-.6.6"/></g><path fill="url(#ab)" d="M21.8 21.7h-3.2l-.6-.6v-3.2q0-.6.6-.7h3.2q.5 0 .6.7V21q0 .5-.6.6"/><path fill="url(#ac)" d="M21.8 21.7h-3.2l-.6-.6v-3.2q0-.6.6-.7h3.2q.5 0 .6.7V21q0 .5-.6.6"/><g filter="url(#ad)"><path fill="url(#ae)" d="M16.2 25.2h-6v-7q.1-1 1-1h4q.9 0 1 1z"/></g><g filter="url(#af)"><path fill="#62393D" d="M14.7 21.7a.4.4 0 1 0 0-.8.4.4 0 0 0 0 .8"/></g><path fill="url(#ag)" d="m26.4 16-9.7-9.6a1 1 0 0 0-1.3 0L5.7 16q-.6.7 0 1.3.7.4 1.3 0l8.9-8.8h.3l8.9 8.7q.7.6 1.3 0t0-1.2"/><g filter="url(#ah)"><path fill="#895D56" d="M14.8 21.7a.4.4 0 1 0 0-.9.4.4 0 0 0 0 .9"/></g><path fill="url(#ai)" d="M9.5 26q0-.7.8-.8H16q.6.1.7.8v.1z"/><path fill="url(#aj)" d="M9.5 26q0-.7.8-.8H16q.6.1.7.8v.1z"/><path fill="url(#ak)" d="M9.5 26q0-.7.8-.8H16q.6.1.7.8v.1z"/><g filter="url(#al)"><path stroke="url(#am)" stroke-linecap="round" stroke-width=".3" d="m16.2 6.9 9.7 9.6"/></g><g filter="url(#an)"><path stroke="url(#ao)" stroke-linecap="round" stroke-opacity=".5" stroke-width=".3" d="m16.2 6.9-9.7 9.6"/></g><g filter="url(#ap)"><path fill="#2EAD69" d="M26.5 26q1.7-.6 1.9-2.5c0-1.6-1.3-2.8-2.9-2.8q-1.4 0-2.3 1-.5.9-1.3 1.3a2 2 0 0 0 0 3z"/><path fill="url(#aq)" d="M26.5 26q1.7-.6 1.9-2.5c0-1.6-1.3-2.8-2.9-2.8q-1.4 0-2.3 1-.5.9-1.3 1.3a2 2 0 0 0 0 3z"/><path fill="url(#ar)" d="M26.5 26q1.7-.6 1.9-2.5c0-1.6-1.3-2.8-2.9-2.8q-1.4 0-2.3 1-.5.9-1.3 1.3a2 2 0 0 0 0 3z"/><path fill="url(#as)" d="M26.5 26q1.7-.6 1.9-2.5c0-1.6-1.3-2.8-2.9-2.8q-1.4 0-2.3 1-.5.9-1.3 1.3a2 2 0 0 0 0 3z"/></g><g filter="url(#at)"><path fill="#2EAD69" d="M5.6 26q-1.7-.6-1.8-2.5c0-1.6 1.3-2.8 2.8-2.8q1.5 0 2.3 1t1.3 1.3a2 2 0 0 1 0 3z"/><path fill="url(#au)" d="M5.6 26q-1.7-.6-1.8-2.5c0-1.6 1.3-2.8 2.8-2.8q1.5 0 2.3 1t1.3 1.3a2 2 0 0 1 0 3z"/><path fill="url(#av)" d="M5.6 26q-1.7-.6-1.8-2.5c0-1.6 1.3-2.8 2.8-2.8q1.5 0 2.3 1t1.3 1.3a2 2 0 0 1 0 3z"/><path fill="url(#aw)" d="M5.6 26q-1.7-.6-1.8-2.5c0-1.6 1.3-2.8 2.8-2.8q1.5 0 2.3 1t1.3 1.3a2 2 0 0 1 0 3z"/></g><g filter="url(#ax)"><path fill="#3ABD6C" d="M29 20.1q1-.4 1-1.4-.1-1.5-1.6-1.6-.9.1-1.3.8l-.5.4a1 1 0 0 0-.2 1.8z"/><path fill="url(#ay)" d="M29 20.1q1-.4 1-1.4-.1-1.5-1.6-1.6-.9.1-1.3.8l-.5.4a1 1 0 0 0-.2 1.8z"/><path fill="url(#az)" d="M29 20.1q1-.4 1-1.4-.1-1.5-1.6-1.6-.9.1-1.3.8l-.5.4a1 1 0 0 0-.2 1.8z"/><path fill="url(#aA)" d="M29 20.1q1-.4 1-1.4-.1-1.5-1.6-1.6-.9.1-1.3.8l-.5.4a1 1 0 0 0-.2 1.8z"/></g><g filter="url(#aB)"><path fill="#2BA75C" d="M3.1 20.1q-1-.4-1-1.4.1-1.5 1.6-1.6.9.1 1.3.8l.5.4q.5.3.6 1 0 .5-.4.8z"/><path fill="url(#aC)" d="M3.1 20.1q-1-.4-1-1.4.1-1.5 1.6-1.6.9.1 1.3.8l.5.4q.5.3.6 1 0 .5-.4.8z"/><path fill="url(#aD)" d="M3.1 20.1q-1-.4-1-1.4.1-1.5 1.6-1.6.9.1 1.3.8l.5.4q.5.3.6 1 0 .5-.4.8z"/></g><path fill="url(#aE)" d="M26.5 26q1.7-.6 1.9-2.5c0-1.6-1.3-2.8-2.9-2.8q-1.4 0-2.3 1-.5.9-1.3 1.3a2 2 0 0 0 0 3z"/><path fill="url(#aF)" d="M5.6 26q-1.7-.6-1.8-2.5c0-1.6 1.3-2.8 2.8-2.8q1.5 0 2.3 1t1.3 1.3a2 2 0 0 1 0 3z"/><path fill="url(#aG)" d="M5.6 26q-1.7-.6-1.8-2.5c0-1.6 1.3-2.8 2.8-2.8q1.5 0 2.3 1t1.3 1.3a2 2 0 0 1 0 3z"/><path fill="url(#aH)" d="M5.6 26q-1.7-.6-1.8-2.5c0-1.6 1.3-2.8 2.8-2.8q1.5 0 2.3 1t1.3 1.3a2 2 0 0 1 0 3z"/><path fill="url(#aI)" d="M29 20.1q1-.4 1-1.4-.1-1.5-1.6-1.6-.9.1-1.3.8l-.5.4a1 1 0 0 0-.2 1.8z"/><path fill="url(#aJ)" d="M3.1 20.1q-1-.4-1-1.4.1-1.5 1.6-1.6.9.1 1.3.8l.5.4q.5.3.6 1 0 .5-.4.8z"/><g filter="url(#aK)"><path fill="#31B570" d="M24 25.4q-.7-1.1-.8-2l-.3-.1h-.2a1.2 1.2 0 0 0 .4 2.3h.9z"/></g><g filter="url(#aL)"><path fill="#31B570" d="m27.6 19.7-.5-1q0-.2-.1-.1h-.1a.6.6 0 0 0 .2 1.2z"/></g><g filter="url(#aM)"><path fill="#31B570" d="m4.5 19.7.5-1q0-.2.1-.1h.1a.6.6 0 0 1-.2 1.2z"/></g><defs><linearGradient id="a" x1="3.5" x2="29.4" y1="26.8" y2="26.8" gradientUnits="userSpaceOnUse"><stop stop-color="#42CF80"/><stop offset="1" stop-color="#50DB92"/></linearGradient><linearGradient id="c" x1="4" x2="4.8" y1="8.4" y2="8.4" gradientUnits="userSpaceOnUse"><stop stop-color="#8E694B"/><stop offset="1" stop-color="#8E694B" stop-opacity="0"/></linearGradient><linearGradient id="d" x1="5.6" x2="5.2" y1="9" y2="8.6" gradientUnits="userSpaceOnUse"><stop stop-color="#C77958"/><stop offset="1" stop-color="#C77958" stop-opacity="0"/></linearGradient><linearGradient id="e" x1="5.1" x2="5.1" y1="6.1" y2="6.2" gradientUnits="userSpaceOnUse"><stop stop-color="#D5AD80"/><stop offset="1" stop-color="#D5AD80" stop-opacity="0"/></linearGradient><linearGradient id="g" x1="8.6" x2="6" y1="17" y2="14.3" gradientUnits="userSpaceOnUse"><stop offset=".2" stop-color="#836444"/><stop offset="1" stop-color="#D38157"/></linearGradient><linearGradient id="h" x1="3.8" x2="7.9" y1="19.3" y2="13.5" gradientUnits="userSpaceOnUse"><stop stop-color="#BA8951"/><stop offset="1" stop-color="#BA8951" stop-opacity="0"/></linearGradient><linearGradient id="j" x1="14.1" x2="13.7" y1="16.4" y2="16.4" gradientUnits="userSpaceOnUse"><stop stop-color="#FFE6B1"/><stop offset="1" stop-color="#FFE6B1" stop-opacity="0"/></linearGradient><linearGradient id="l" x1="10.5" x2="9.6" y1="8.6" y2="9.6" gradientUnits="userSpaceOnUse"><stop stop-color="#9D3C3A"/><stop offset="1" stop-color="#9D3C3A" stop-opacity="0"/></linearGradient><linearGradient id="m" x1="3" x2="3.4" y1="17.6" y2="17.6" gradientUnits="userSpaceOnUse"><stop stop-color="#845F3D"/><stop offset="1" stop-color="#845F3D" stop-opacity="0"/></linearGradient><linearGradient id="n" x1="8.5" x2="8.5" y1="5.7" y2="10.8" gradientUnits="userSpaceOnUse"><stop stop-color="#E85430"/><stop offset="1" stop-color="#C11C2A"/></linearGradient><linearGradient id="p" x1="8.4" x2="15.4" y1="6.1" y2="13.3" gradientUnits="userSpaceOnUse"><stop stop-color="#FF8337"/><stop offset="1" stop-color="#F24747"/></linearGradient><linearGradient id="r" x1="8.8" x2="1.8" y1="6.1" y2="13.3" gradientUnits="userSpaceOnUse"><stop stop-color="#FF8337"/><stop offset="1" stop-color="#F24747"/></linearGradient><linearGradient id="t" x1="19" x2="19.8" y1="8.4" y2="8.4" gradientUnits="userSpaceOnUse"><stop stop-color="#8E694B"/><stop offset="1" stop-color="#8E694B" stop-opacity="0"/></linearGradient><linearGradient id="u" x1="20.6" x2="20.3" y1="9" y2="8.6" gradientUnits="userSpaceOnUse"><stop stop-color="#C77958"/><stop offset="1" stop-color="#C77958" stop-opacity="0"/></linearGradient><linearGradient id="v" x1="20.1" x2="20.1" y1="6.1" y2="6.2" gradientUnits="userSpaceOnUse"><stop stop-color="#D5AD80"/><stop offset="1" stop-color="#D5AD80" stop-opacity="0"/></linearGradient><linearGradient id="y" x1="19" x2="19.8" y1="8.4" y2="8.4" gradientUnits="userSpaceOnUse"><stop stop-color="#8E694B"/><stop offset="1" stop-color="#8E694B" stop-opacity="0"/></linearGradient><linearGradient id="z" x1="20.6" x2="20.3" y1="9" y2="8.6" gradientUnits="userSpaceOnUse"><stop stop-color="#C77958"/><stop offset="1" stop-color="#C77958" stop-opacity="0"/></linearGradient><linearGradient id="A" x1="20.1" x2="20.1" y1="6.1" y2="6.2" gradientUnits="userSpaceOnUse"><stop stop-color="#D5AD80"/><stop offset="1" stop-color="#D5AD80" stop-opacity="0"/></linearGradient><linearGradient id="C" x1="21.6" x2="28.8" y1="14.7" y2="14.7" gradientUnits="userSpaceOnUse"><stop stop-color="#E39162"/><stop offset="1" stop-color="#EBB48C"/></linearGradient><linearGradient id="D" x1="18.8" x2="23" y1="19.3" y2="13.5" gradientUnits="userSpaceOnUse"><stop stop-color="#BA8951"/><stop offset="1" stop-color="#BA8951" stop-opacity="0"/></linearGradient><linearGradient id="F" x1="29.1" x2="28.8" y1="16.4" y2="16.4" gradientUnits="userSpaceOnUse"><stop stop-color="#FFE6B1"/><stop offset="1" stop-color="#FFE6B1" stop-opacity="0"/></linearGradient><linearGradient id="H" x1="25.3" x2="24.7" y1="8.7" y2="9.4" gradientUnits="userSpaceOnUse"><stop stop-color="#B55852"/><stop offset="1" stop-color="#B55852" stop-opacity="0"/></linearGradient><linearGradient id="I" x1="18.1" x2="18.4" y1="17.6" y2="17.6" gradientUnits="userSpaceOnUse"><stop stop-color="#845F3D"/><stop offset="1" stop-color="#845F3D" stop-opacity="0"/></linearGradient><linearGradient id="K" x1="23.5" x2="23.5" y1="5.7" y2="10.1" gradientUnits="userSpaceOnUse"><stop stop-color="#EA6D2E"/><stop offset="1" stop-color="#CA222B"/></linearGradient><linearGradient id="M" x1="23.4" x2="30.4" y1="6.1" y2="13.3" gradientUnits="userSpaceOnUse"><stop stop-color="#FF8337"/><stop offset="1" stop-color="#F24747"/></linearGradient><linearGradient id="O" x1="23.8" x2="16.8" y1="6.1" y2="13.3" gradientUnits="userSpaceOnUse"><stop stop-color="#FF8337"/><stop offset="1" stop-color="#F24747"/></linearGradient><linearGradient id="P" x1="8.5" x2="23.8" y1="19.7" y2="19.7" gradientUnits="userSpaceOnUse"><stop stop-color="#D7905F"/><stop offset="1" stop-color="#E8BC97"/></linearGradient><linearGradient id="Q" x1="8.9" x2="14.9" y1="26.5" y2="17.9" gradientUnits="userSpaceOnUse"><stop stop-color="#BA8951"/><stop offset="1" stop-color="#BA8951" stop-opacity="0"/></linearGradient><linearGradient id="S" x1="24.3" x2="23.7" y1="22.2" y2="22.2" gradientUnits="userSpaceOnUse"><stop stop-color="#FFE6B1"/><stop offset="1" stop-color="#FFE6B1" stop-opacity="0"/></linearGradient><linearGradient id="U" x1="18.8" x2="18.5" y1="10.9" y2="11.2" gradientUnits="userSpaceOnUse"><stop stop-color="#B55852"/><stop offset="1" stop-color="#B55852" stop-opacity="0"/></linearGradient><linearGradient id="V" x1="7.8" x2="8.3" y1="24" y2="24" gradientUnits="userSpaceOnUse"><stop stop-color="#845F3D"/><stop offset="1" stop-color="#845F3D" stop-opacity="0"/></linearGradient><linearGradient id="X" x1="12.6" x2="12.6" y1="17.5" y2="25.8" gradientUnits="userSpaceOnUse"><stop stop-color="#805139"/><stop offset="1" stop-color="#6D4D2F"/></linearGradient><linearGradient id="Z" x1="18" x2="22.8" y1="22" y2="17.2" gradientUnits="userSpaceOnUse"><stop stop-color="#4CCCFF"/><stop offset="1" stop-color="#3A9EE6"/></linearGradient><linearGradient id="aa" x1="20.2" x2="20.2" y1="22" y2="21.1" gradientUnits="userSpaceOnUse"><stop stop-color="#1E9FE4"/><stop offset="1" stop-color="#1E9FE4" stop-opacity="0"/></linearGradient><linearGradient id="ab" x1="18" x2="18.9" y1="20.6" y2="20.6" gradientUnits="userSpaceOnUse"><stop stop-color="#48E0FF"/><stop offset="1" stop-color="#48E0FF" stop-opacity="0"/></linearGradient><linearGradient id="ac" x1="18.6" x2="19.2" y1="16.5" y2="18.3" gradientUnits="userSpaceOnUse"><stop stop-color="#43B3F2"/><stop offset="1" stop-color="#43B3F2" stop-opacity="0"/></linearGradient><linearGradient id="ae" x1="10.3" x2="16.2" y1="22.2" y2="22.2" gradientUnits="userSpaceOnUse"><stop stop-color="#70504D"/><stop offset="1" stop-color="#9B665E"/></linearGradient><linearGradient id="ag" x1="16" x2="16" y1="6.2" y2="17.5" gradientUnits="userSpaceOnUse"><stop stop-color="#EA6D2E"/><stop offset="1" stop-color="#CA222B"/></linearGradient><linearGradient id="ai" x1="9.7" x2="16.6" y1="26.1" y2="26.1" gradientUnits="userSpaceOnUse"><stop stop-color="#9FA1A3"/><stop offset="1" stop-color="#C4C1C7"/></linearGradient><linearGradient id="aj" x1="9.4" x2="10.3" y1="26.1" y2="26.1" gradientUnits="userSpaceOnUse"><stop stop-color="#59675C"/><stop offset="1" stop-color="#59675C" stop-opacity="0"/></linearGradient><linearGradient id="ak" x1="16.8" x2="16" y1="25.7" y2="26.1" gradientUnits="userSpaceOnUse"><stop stop-color="#C8CAC6"/><stop offset="1" stop-color="#C8CAC6" stop-opacity="0"/></linearGradient><linearGradient id="am" x1="15.9" x2="26.3" y1="6.7" y2="17.5" gradientUnits="userSpaceOnUse"><stop stop-color="#FF8337"/><stop offset="1" stop-color="#F24747"/></linearGradient><linearGradient id="ao" x1="16.5" x2="6.1" y1="6.7" y2="17.5" gradientUnits="userSpaceOnUse"><stop stop-color="#FF8337"/><stop offset="1" stop-color="#F24747"/></linearGradient><linearGradient id="aq" x1="23.9" x2="23.9" y1="26.6" y2="24.8" gradientUnits="userSpaceOnUse"><stop stop-color="#3B8478"/><stop offset="1" stop-color="#3B8478" stop-opacity="0"/></linearGradient><linearGradient id="au" x1="8.2" x2="8.2" y1="26.6" y2="24.8" gradientUnits="userSpaceOnUse"><stop stop-color="#3B8478"/><stop offset="1" stop-color="#3B8478" stop-opacity="0"/></linearGradient><linearGradient id="ay" x1="27.5" x2="27.5" y1="20.4" y2="19.4" gradientUnits="userSpaceOnUse"><stop stop-color="#3B8478"/><stop offset="1" stop-color="#3B8478" stop-opacity="0"/></linearGradient><linearGradient id="aC" x1="4.6" x2="4.6" y1="20.4" y2="19.4" gradientUnits="userSpaceOnUse"><stop stop-color="#3B8478"/><stop offset="1" stop-color="#3B8478" stop-opacity="0"/></linearGradient><linearGradient id="aG" x1="8.2" x2="8.2" y1="26.5" y2="24.8" gradientUnits="userSpaceOnUse"><stop stop-color="#3B8478"/><stop offset=".8" stop-color="#3B8478" stop-opacity="0"/></linearGradient><radialGradient id="b" cx="0" cy="0" r="1" gradientTransform="matrix(0 2.53622 -1.25918 0 5.8 6.5)" gradientUnits="userSpaceOnUse"><stop stop-color="#D39364"/><stop offset="1" stop-color="#9F6941"/></radialGradient><radialGradient id="f" cx="0" cy="0" r="1" gradientTransform="matrix(-1.36805 0 0 -.29407 6.3 6.3)" gradientUnits="userSpaceOnUse"><stop stop-color="#EAAA75"/><stop offset="1" stop-color="#EAAA75" stop-opacity="0"/></radialGradient><radialGradient id="i" cx="0" cy="0" r="1" gradientTransform="matrix(-.88468 -1.7548 2.09693 -1.05717 10.7 18.6)" gradientUnits="userSpaceOnUse"><stop stop-color="#BEAB75"/><stop offset="1" stop-color="#BEAB75" stop-opacity="0"/></radialGradient><radialGradient id="k" cx="0" cy="0" r="1" gradientTransform="matrix(0 2.46128 -.50998 0 14.2 11.6)" gradientUnits="userSpaceOnUse"><stop offset=".3" stop-color="#9E413E"/><stop offset="1" stop-color="#9E413E" stop-opacity="0"/></radialGradient><radialGradient id="s" cx="0" cy="0" r="1" gradientTransform="matrix(0 2.53622 -1.25918 0 20.8 6.5)" gradientUnits="userSpaceOnUse"><stop stop-color="#FFD1A3"/><stop offset="1" stop-color="#DFA276"/></radialGradient><radialGradient id="w" cx="0" cy="0" r="1" gradientTransform="matrix(-1.36805 0 0 -.29407 21.3 6.3)" gradientUnits="userSpaceOnUse"><stop stop-color="#FFE9B1"/><stop offset="1" stop-color="#FFE9B1" stop-opacity="0"/></radialGradient><radialGradient id="x" cx="0" cy="0" r="1" gradientTransform="matrix(0 2.53622 -1.25918 0 20.8 6.5)" gradientUnits="userSpaceOnUse"><stop stop-color="#D39364"/><stop offset="1" stop-color="#9F6941"/></radialGradient><radialGradient id="B" cx="0" cy="0" r="1" gradientTransform="matrix(-1.36805 0 0 -.29407 21.3 6.3)" gradientUnits="userSpaceOnUse"><stop stop-color="#EAAA75"/><stop offset="1" stop-color="#EAAA75" stop-opacity="0"/></radialGradient><radialGradient id="E" cx="0" cy="0" r="1" gradientTransform="matrix(-.88468 -1.7548 2.09693 -1.05717 25.7 18.6)" gradientUnits="userSpaceOnUse"><stop stop-color="#BEAB75"/><stop offset="1" stop-color="#BEAB75" stop-opacity="0"/></radialGradient><radialGradient id="G" cx="0" cy="0" r="1" gradientTransform="matrix(0 2.46128 -.50998 0 29.3 11.6)" gradientUnits="userSpaceOnUse"><stop offset=".3" stop-color="#9E413E"/><stop offset="1" stop-color="#9E413E" stop-opacity="0"/></radialGradient><radialGradient id="J" cx="0" cy="0" r="1" gradientTransform="matrix(2.98213 0 0 3.49335 23.6 17.5)" gradientUnits="userSpaceOnUse"><stop stop-color="#BB825C"/><stop offset="1" stop-color="#BB825C" stop-opacity="0"/></radialGradient><radialGradient id="R" cx="0" cy="0" r="1" gradientTransform="rotate(-117.2 17.4 6.9)scale(2.87659 3.47954)" gradientUnits="userSpaceOnUse"><stop stop-color="#BEAB75"/><stop offset="1" stop-color="#BEAB75" stop-opacity="0"/></radialGradient><radialGradient id="T" cx="0" cy="0" r="1" gradientTransform="matrix(0 3.58741 -.75887 0 24.5 15.3)" gradientUnits="userSpaceOnUse"><stop offset=".3" stop-color="#9E413E"/><stop offset="1" stop-color="#9E413E" stop-opacity="0"/></radialGradient><radialGradient id="ar" cx="0" cy="0" r="1" gradientTransform="matrix(-2.14808 -5.80701 2.64518 -.97848 25.8 28.8)" gradientUnits="userSpaceOnUse"><stop stop-color="#2C785B"/><stop offset="1" stop-color="#2C785B" stop-opacity="0"/></radialGradient><radialGradient id="as" cx="0" cy="0" r="1" gradientTransform="matrix(-5.43867 4.23206 -5.72823 -7.36141 26.6 22.6)" gradientUnits="userSpaceOnUse"><stop offset=".6" stop-color="#2C785B" stop-opacity="0"/><stop offset="1" stop-color="#2C785B"/></radialGradient><radialGradient id="av" cx="0" cy="0" r="1" gradientTransform="rotate(-69.7 23.9 9.8)scale(6.19158 2.82035)" gradientUnits="userSpaceOnUse"><stop stop-color="#2C785B"/><stop offset="1" stop-color="#2C785B" stop-opacity="0"/></radialGradient><radialGradient id="aw" cx="0" cy="0" r="1" gradientTransform="matrix(5.4387 4.23203 -5.72819 7.36144 5.5 22.6)" gradientUnits="userSpaceOnUse"><stop offset=".6" stop-color="#2C785B" stop-opacity="0"/><stop offset="1" stop-color="#2C785B"/></radialGradient><radialGradient id="az" cx="0" cy="0" r="1" gradientTransform="matrix(-1.17725 -3.17758 1.44744 -.53626 28.5 21.6)" gradientUnits="userSpaceOnUse"><stop stop-color="#2C785B"/><stop offset="1" stop-color="#2C785B" stop-opacity="0"/></radialGradient><radialGradient id="aA" cx="0" cy="0" r="1" gradientTransform="rotate(142.1 11.4 14)scale(3.77159 5.10496)" gradientUnits="userSpaceOnUse"><stop offset=".6" stop-color="#2C785B" stop-opacity="0"/><stop offset="1" stop-color="#2C785B"/></radialGradient><radialGradient id="aD" cx="0" cy="0" r="1" gradientTransform="rotate(37.9 -25 13.6)scale(3.77159 5.10496)" gradientUnits="userSpaceOnUse"><stop offset=".6" stop-color="#2C785B" stop-opacity="0"/><stop offset="1" stop-color="#2C785B"/></radialGradient><radialGradient id="aE" cx="0" cy="0" r="1" gradientTransform="matrix(-3.36286 2.02989 -1.9324 -3.20136 28 22)" gradientUnits="userSpaceOnUse"><stop stop-color="#60FB9A"/><stop offset="1" stop-color="#60FB9A" stop-opacity="0"/></radialGradient><radialGradient id="aF" cx="0" cy="0" r="1" gradientTransform="rotate(133.5 .1 13.2)scale(4.90734 6.94449)" gradientUnits="userSpaceOnUse"><stop stop-color="#60FB9A"/><stop offset="1" stop-color="#60FB9A" stop-opacity="0"/></radialGradient><radialGradient id="aH" cx="0" cy="0" r="1" gradientTransform="matrix(-5.93748 2.50003 -3.34867 -7.95296 10.1 22.5)" gradientUnits="userSpaceOnUse"><stop offset=".6" stop-color="#39895B" stop-opacity="0"/><stop offset="1" stop-color="#39895B"/></radialGradient><radialGradient id="aI" cx="0" cy="0" r="1" gradientTransform="matrix(-1.8405 1.11096 -1.0576 -1.7521 29.8 17.9)" gradientUnits="userSpaceOnUse"><stop stop-color="#60FB9A"/><stop offset="1" stop-color="#60FB9A" stop-opacity="0"/></radialGradient><radialGradient id="aJ" cx="0" cy="0" r="1" gradientTransform="matrix(-1.46875 1.96875 -1.8742 -1.39821 5.4 17.5)" gradientUnits="userSpaceOnUse"><stop stop-color="#60FB9A"/><stop offset="1" stop-color="#60FB9A" stop-opacity="0"/></radialGradient><filter id="o" width="8" height="7.9" x="7.8" y="5.4" color-interpolation-filters="sRGB" filterUnits="userSpaceOnUse"><feFlood flood-opacity="0" result="BackgroundImageFix"/><feBlend in="SourceGraphic" in2="BackgroundImageFix" result="shape"/><feGaussianBlur result="effect1_foregroundBlur_18_5845" stdDeviation=".3"/></filter><filter id="q" width="8" height="7.9" x="1.3" y="5.4" color-interpolation-filters="sRGB" filterUnits="userSpaceOnUse"><feFlood flood-opacity="0" result="BackgroundImageFix"/><feBlend in="SourceGraphic" in2="BackgroundImageFix" result="shape"/><feGaussianBlur result="effect1_foregroundBlur_18_5845" stdDeviation=".3"/></filter><filter id="L" width="8" height="7.9" x="22.9" y="5.4" color-interpolation-filters="sRGB" filterUnits="userSpaceOnUse"><feFlood flood-opacity="0" result="BackgroundImageFix"/><feBlend in="SourceGraphic" in2="BackgroundImageFix" result="shape"/><feGaussianBlur result="effect1_foregroundBlur_18_5845" stdDeviation=".3"/></filter><filter id="N" width="8" height="7.9" x="16.3" y="5.4" color-interpolation-filters="sRGB" filterUnits="userSpaceOnUse"><feFlood flood-opacity="0" result="BackgroundImageFix"/><feBlend in="SourceGraphic" in2="BackgroundImageFix" result="shape"/><feGaussianBlur result="effect1_foregroundBlur_18_5845" stdDeviation=".3"/></filter><filter id="W" width="6.3" height="9.3" x="9.5" y="17" color-interpolation-filters="sRGB" filterUnits="userSpaceOnUse"><feFlood flood-opacity="0" result="BackgroundImageFix"/><feBlend in="SourceGraphic" in2="BackgroundImageFix" result="shape"/><feGaussianBlur result="effect1_foregroundBlur_18_5845" stdDeviation=".3"/></filter><filter id="Y" width="5" height="5" x="17.5" y="17.2" color-interpolation-filters="sRGB" filterUnits="userSpaceOnUse"><feFlood flood-opacity="0" result="BackgroundImageFix"/><feBlend in="SourceGraphic" in2="BackgroundImageFix" result="shape"/><feColorMatrix in="SourceAlpha" result="hardAlpha" values="0 0 0 0 0 0 0 0 0 0 0 0 0 0 0 0 0 0 127 0"/><feOffset dx="-.5" dy=".5"/><feGaussianBlur stdDeviation=".3"/><feComposite in2="hardAlpha" k2="-1" k3="1" operator="arithmetic"/><feColorMatrix values="0 0 0 0 0.0470588 0 0 0 0 0.47451 0 0 0 0 0.792157 0 0 0 1 0"/><feBlend in2="shape" result="effect1_innerShadow_18_5845"/></filter><filter id="ad" width="6.3" height="8.1" x="10.1" y="17.1" color-interpolation-filters="sRGB" filterUnits="userSpaceOnUse"><feFlood flood-opacity="0" result="BackgroundImageFix"/><feBlend in="SourceGraphic" in2="BackgroundImageFix" result="shape"/><feColorMatrix in="SourceAlpha" result="hardAlpha" values="0 0 0 0 0 0 0 0 0 0 0 0 0 0 0 0 0 0 127 0"/><feOffset dx=".3"/><feGaussianBlur stdDeviation=".3"/><feComposite in2="hardAlpha" k2="-1" k3="1" operator="arithmetic"/><feColorMatrix values="0 0 0 0 0.254902 0 0 0 0 0.188235 0 0 0 0 0.141176 0 0 0 1 0"/><feBlend in2="shape" result="effect1_innerShadow_18_5845"/><feColorMatrix in="SourceAlpha" result="hardAlpha" values="0 0 0 0 0 0 0 0 0 0 0 0 0 0 0 0 0 0 127 0"/><feOffset dx="-.2"/><feGaussianBlur stdDeviation=".1"/><feComposite in2="hardAlpha" k2="-1" k3="1" operator="arithmetic"/><feColorMatrix values="0 0 0 0 0.694118 0 0 0 0 0.470588 0 0 0 0 0.407843 0 0 0 1 0"/><feBlend in2="effect1_innerShadow_18_5845" result="effect2_innerShadow_18_5845"/></filter><filter id="af" width="1.1" height="1.1" x="14.1" y="20.7" color-interpolation-filters="sRGB" filterUnits="userSpaceOnUse"><feFlood flood-opacity="0" result="BackgroundImageFix"/><feBlend in="SourceGraphic" in2="BackgroundImageFix" result="shape"/><feGaussianBlur result="effect1_foregroundBlur_18_5845" stdDeviation=".1"/></filter><filter id="ah" width="1.1" height=".9" x="14.3" y="20.8" color-interpolation-filters="sRGB" filterUnits="userSpaceOnUse"><feFlood flood-opacity="0" result="BackgroundImageFix"/><feBlend in="SourceGraphic" in2="BackgroundImageFix" result="shape"/><feColorMatrix in="SourceAlpha" result="hardAlpha" values="0 0 0 0 0 0 0 0 0 0 0 0 0 0 0 0 0 0 127 0"/><feOffset dx="-.1"/><feGaussianBlur stdDeviation=".1"/><feComposite in2="hardAlpha" k2="-1" k3="1" operator="arithmetic"/><feColorMatrix values="0 0 0 0 0.694118 0 0 0 0 0.482353 0 0 0 0 0.419608 0 0 0 1 0"/><feBlend in2="shape" result="effect1_innerShadow_18_5845"/><feColorMatrix in="SourceAlpha" result="hardAlpha" values="0 0 0 0 0 0 0 0 0 0 0 0 0 0 0 0 0 0 127 0"/><feOffset dx=".1"/><feGaussianBlur stdDeviation=".1"/><feComposite in2="hardAlpha" k2="-1" k3="1" operator="arithmetic"/><feColorMatrix values="0 0 0 0 0.290196 0 0 0 0 0.184314 0 0 0 0 0.164706 0 0 0 1 0"/><feBlend in2="effect1_innerShadow_18_5845" result="effect2_innerShadow_18_5845"/></filter><filter id="al" width="11.2" height="11.1" x="15.5" y="6.1" color-interpolation-filters="sRGB" filterUnits="userSpaceOnUse"><feFlood flood-opacity="0" result="BackgroundImageFix"/><feBlend in="SourceGraphic" in2="BackgroundImageFix" result="shape"/><feGaussianBlur result="effect1_foregroundBlur_18_5845" stdDeviation=".3"/></filter><filter id="an" width="11.2" height="11.1" x="5.8" y="6.1" color-interpolation-filters="sRGB" filterUnits="userSpaceOnUse"><feFlood flood-opacity="0" result="BackgroundImageFix"/><feBlend in="SourceGraphic" in2="BackgroundImageFix" result="shape"/><feGaussianBlur result="effect1_foregroundBlur_18_5845" stdDeviation=".3"/></filter><filter id="ap" width="7.5" height="5.6" x="21.1" y="20.7" color-interpolation-filters="sRGB" filterUnits="userSpaceOnUse"><feFlood flood-opacity="0" result="BackgroundImageFix"/><feBlend in="SourceGraphic" in2="BackgroundImageFix" result="shape"/><feColorMatrix in="SourceAlpha" result="hardAlpha" values="0 0 0 0 0 0 0 0 0 0 0 0 0 0 0 0 0 0 127 0"/><feOffset dx=".2" dy=".2"/><feGaussianBlur stdDeviation=".3"/><feComposite in2="hardAlpha" k2="-1" k3="1" operator="arithmetic"/><feColorMatrix values="0 0 0 0 0.309804 0 0 0 0 0.564706 0 0 0 0 0.329412 0 0 0 1 0"/><feBlend in2="shape" result="effect1_innerShadow_18_5845"/></filter><filter id="at" width="7.5" height="5.6" x="3.8" y="20.7" color-interpolation-filters="sRGB" filterUnits="userSpaceOnUse"><feFlood flood-opacity="0" result="BackgroundImageFix"/><feBlend in="SourceGraphic" in2="BackgroundImageFix" result="shape"/><feColorMatrix in="SourceAlpha" result="hardAlpha" values="0 0 0 0 0 0 0 0 0 0 0 0 0 0 0 0 0 0 127 0"/><feOffset dx=".2" dy=".2"/><feGaussianBlur stdDeviation=".3"/><feComposite in2="hardAlpha" k2="-1" k3="1" operator="arithmetic"/><feColorMatrix values="0 0 0 0 0.309804 0 0 0 0 0.564706 0 0 0 0 0.329412 0 0 0 1 0"/><feBlend in2="shape" result="effect1_innerShadow_18_5845"/></filter><filter id="ax" width="4.2" height="3.2" x="26" y="17.1" color-interpolation-filters="sRGB" filterUnits="userSpaceOnUse"><feFlood flood-opacity="0" result="BackgroundImageFix"/><feBlend in="SourceGraphic" in2="BackgroundImageFix" result="shape"/><feColorMatrix in="SourceAlpha" result="hardAlpha" values="0 0 0 0 0 0 0 0 0 0 0 0 0 0 0 0 0 0 127 0"/><feOffset dx=".2" dy=".2"/><feGaussianBlur stdDeviation=".3"/><feComposite in2="hardAlpha" k2="-1" k3="1" operator="arithmetic"/><feColorMatrix values="0 0 0 0 0.309804 0 0 0 0 0.564706 0 0 0 0 0.329412 0 0 0 1 0"/><feBlend in2="shape" result="effect1_innerShadow_18_5845"/></filter><filter id="aB" width="4.2" height="3.2" x="2.1" y="17.1" color-interpolation-filters="sRGB" filterUnits="userSpaceOnUse"><feFlood flood-opacity="0" result="BackgroundImageFix"/><feBlend in="SourceGraphic" in2="BackgroundImageFix" result="shape"/><feColorMatrix in="SourceAlpha" result="hardAlpha" values="0 0 0 0 0 0 0 0 0 0 0 0 0 0 0 0 0 0 127 0"/><feOffset dx=".2" dy=".2"/><feGaussianBlur stdDeviation=".3"/><feComposite in2="hardAlpha" k2="-1" k3="1" operator="arithmetic"/><feColorMatrix values="0 0 0 0 0.309804 0 0 0 0 0.564706 0 0 0 0 0.329412 0 0 0 1 0"/><feBlend in2="shape" result="effect1_innerShadow_18_5845"/></filter><filter id="aK" width="3.6" height="3.8" x="21.2" y="22.5" color-interpolation-filters="sRGB" filterUnits="userSpaceOnUse"><feFlood flood-opacity="0" result="BackgroundImageFix"/><feBlend in="SourceGraphic" in2="BackgroundImageFix" result="shape"/><feGaussianBlur result="effect1_foregroundBlur_18_5845" stdDeviation=".4"/></filter><filter id="aL" width="2.7" height="2.8" x="25.7" y="17.8" color-interpolation-filters="sRGB" filterUnits="userSpaceOnUse"><feFlood flood-opacity="0" result="BackgroundImageFix"/><feBlend in="SourceGraphic" in2="BackgroundImageFix" result="shape"/><feGaussianBlur result="effect1_foregroundBlur_18_5845" stdDeviation=".4"/></filter><filter id="aM" width="2.7" height="2.8" x="3.7" y="17.8" color-interpolation-filters="sRGB" filterUnits="userSpaceOnUse"><feFlood flood-opacity="0" result="BackgroundImageFix"/><feBlend in="SourceGraphic" in2="BackgroundImageFix" result="shape"/><feGaussianBlur result="effect1_foregroundBlur_18_5845" stdDeviation=".4"/></filter></defs></svg>