<svg xmlns="http://www.w3.org/2000/svg" width="32" height="32" fill="none"><g fill-rule="evenodd" clip-rule="evenodd" filter="url(#a)"><path fill="url(#b)" d="M21.4 10.7c.1-4 5-5.3 7.4-2.3a1.3 1.3 0 0 1-2 1.6c-1-1.3-2.8-.6-2.8.8q0 .7.6 1.5l1.5 1.4.4.4c1.5 1.4 3.4 3.2 3.6 6.5a5.5 5.5 0 0 1-6.8 5.7 1.3 1.3 0 0 1 .6-2.6c1.8.5 3.7-1 3.6-3-.1-2.1-1.3-3.4-2.8-4.7l-2.2-2a5 5 0 0 1-1.1-3.3"/><path fill="url(#c)" d="M21.4 10.7c.1-4 5-5.3 7.4-2.3a1.3 1.3 0 0 1-2 1.6c-1-1.3-2.8-.6-2.8.8q0 .7.6 1.5l1.5 1.4.4.4c1.5 1.4 3.4 3.2 3.6 6.5a5.5 5.5 0 0 1-6.8 5.7 1.3 1.3 0 0 1 .6-2.6c1.8.5 3.7-1 3.6-3-.1-2.1-1.3-3.4-2.8-4.7l-2.2-2a5 5 0 0 1-1.1-3.3"/><path fill="url(#d)" d="M21.4 10.7c.1-4 5-5.3 7.4-2.3a1.3 1.3 0 0 1-2 1.6c-1-1.3-2.8-.6-2.8.8q0 .7.6 1.5l1.5 1.4.4.4c1.5 1.4 3.4 3.2 3.6 6.5a5.5 5.5 0 0 1-6.8 5.7 1.3 1.3 0 0 1 .6-2.6c1.8.5 3.7-1 3.6-3-.1-2.1-1.3-3.4-2.8-4.7l-2.2-2a5 5 0 0 1-1.1-3.3"/><path fill="url(#e)" d="M21.4 10.7c.1-4 5-5.3 7.4-2.3a1.3 1.3 0 0 1-2 1.6c-1-1.3-2.8-.6-2.8.8q0 .7.6 1.5l1.5 1.4.4.4c1.5 1.4 3.4 3.2 3.6 6.5a5.5 5.5 0 0 1-6.8 5.7 1.3 1.3 0 0 1 .6-2.6c1.8.5 3.7-1 3.6-3-.1-2.1-1.3-3.4-2.8-4.7l-2.2-2a5 5 0 0 1-1.1-3.3"/></g><g filter="url(#f)"><path stroke="url(#g)" stroke-linecap="round" stroke-width=".6" d="M28.1 9.1c-.6-1-2-1.8-3.4-1.4-1.9.5-2.6 3.3-.2 5.6 2.3 2.4 4 3 4.6 7 .5 3.2-2.4 4.6-3.8 5"/></g><path fill="url(#h)" fill-rule="evenodd" d="M21.4 10.7c.1-4 5-5.3 7.4-2.3a1.3 1.3 0 0 1-2 1.6c-1-1.3-2.8-.6-2.8.8q0 .7.6 1.5l1.5 1.4.4.4c1.5 1.4 3.4 3.2 3.6 6.5a5.5 5.5 0 0 1-6.8 5.7 1.3 1.3 0 0 1 .6-2.6c1.8.5 3.7-1 3.6-3-.1-2.1-1.3-3.4-2.8-4.7l-2.2-2a5 5 0 0 1-1.1-3.3" clip-rule="evenodd"/><g filter="url(#i)"><path fill="url(#j)" d="M22.4 29.5 8.8 16.7c1.7-1.7 5.1-4.4 7.5-4a10 10 0 0 1 8.7 8.8v5c0 2.5-1.6 3-2.6 3"/><path fill="url(#k)" d="M22.4 29.5 8.8 16.7c1.7-1.7 5.1-4.4 7.5-4a10 10 0 0 1 8.7 8.8v5c0 2.5-1.6 3-2.6 3"/><path fill="url(#l)" d="M22.4 29.5 8.8 16.7c1.7-1.7 5.1-4.4 7.5-4a10 10 0 0 1 8.7 8.8v5c0 2.5-1.6 3-2.6 3"/><path fill="url(#m)" d="M22.4 29.5 8.8 16.7c1.7-1.7 5.1-4.4 7.5-4a10 10 0 0 1 8.7 8.8v5c0 2.5-1.6 3-2.6 3"/><path fill="url(#n)" d="M22.4 29.5 8.8 16.7c1.7-1.7 5.1-4.4 7.5-4a10 10 0 0 1 8.7 8.8v5c0 2.5-1.6 3-2.6 3"/><path fill="url(#o)" d="M22.4 29.5 8.8 16.7c1.7-1.7 5.1-4.4 7.5-4a10 10 0 0 1 8.7 8.8v5c0 2.5-1.6 3-2.6 3"/></g><path fill="url(#p)" d="M11.6 15c3 1 2.5 4 1.4 4.4h-.8c-3 1.4-6 5.5-5.7 10H3.1q-1-.6-.8-1.2c.1-7.6 6-12.2 9.3-13.2"/><path fill="url(#q)" d="M11.6 15c3 1 2.5 4 1.4 4.4h-.8c-3 1.4-6 5.5-5.7 10H3.1q-1-.6-.8-1.2c.1-7.6 6-12.2 9.3-13.2"/><path fill="url(#r)" d="M11.6 15c3 1 2.5 4 1.4 4.4h-.8c-3 1.4-6 5.5-5.7 10H3.1q-1-.6-.8-1.2c.1-7.6 6-12.2 9.3-13.2"/><path fill="url(#s)" d="M11.6 15c3 1 2.5 4 1.4 4.4h-.8c-3 1.4-6 5.5-5.7 10H3.1q-1-.6-.8-1.2c.1-7.6 6-12.2 9.3-13.2"/><path fill="url(#t)" d="M11.6 15c3 1 2.5 4 1.4 4.4h-.8c-3 1.4-6 5.5-5.7 10H3.1q-1-.6-.8-1.2c.1-7.6 6-12.2 9.3-13.2"/><path fill="url(#u)" d="M16.5 22.7c-3.4 0-6.2 3-6.4 6.3q0 .4.4.5h12q.4-.1.4-.5c-.3-3.4-3-6.3-6.4-6.3"/><path fill="url(#v)" d="M16.5 22.7c-3.4 0-6.2 3-6.4 6.3q0 .4.4.5h12q.4-.1.4-.5c-.3-3.4-3-6.3-6.4-6.3"/><path fill="url(#w)" d="M16.5 22.7c-3.4 0-6.2 3-6.4 6.3q0 .4.4.5h12q.4-.1.4-.5c-.3-3.4-3-6.3-6.4-6.3"/><path fill="url(#x)" d="M16.5 22.7c-3.4 0-6.2 3-6.4 6.3q0 .4.4.5h12q.4-.1.4-.5c-.3-3.4-3-6.3-6.4-6.3"/><g filter="url(#y)"><path stroke="url(#z)" stroke-linecap="round" d="M12.1 28.4c.7-4 6.2-5.8 9.4-2.1"/></g><g filter="url(#A)"><path stroke="url(#B)" stroke-linecap="round" stroke-width=".5" d="M22.1 27.4c-.3-3-3-5-5.2-5.3"/></g><g filter="url(#C)"><path fill="#602A33" d="M18.6 27c-1.4 0-2.5.9-2.5 2h5q-.1-1.8-2.5-2"/></g><path fill="url(#D)" d="M5.6 27a2.5 2.5 0 0 0-2.5 2.5h5c0-1.4-1-2.5-2.5-2.5"/><path fill="url(#E)" d="M5.6 27a2.5 2.5 0 0 0-2.5 2.5h5c0-1.4-1-2.5-2.5-2.5"/><path fill="url(#F)" d="M5.6 27a2.5 2.5 0 0 0-2.5 2.5h5c0-1.4-1-2.5-2.5-2.5"/><path fill="url(#G)" d="M5.6 27a2.5 2.5 0 0 0-2.5 2.5h5c0-1.4-1-2.5-2.5-2.5"/><g filter="url(#H)"><circle cx="6.9" cy="28.6" r=".6" fill="#FFBBCF"/></g><path fill="url(#I)" d="M19.5 27a2.5 2.5 0 0 0-2.5 2.5h5q-.1-2.4-2.5-2.5"/><path fill="url(#J)" d="M19.5 27a2.5 2.5 0 0 0-2.5 2.5h5q-.1-2.4-2.5-2.5"/><path fill="url(#K)" d="M19.5 27a2.5 2.5 0 0 0-2.5 2.5h5q-.1-2.4-2.5-2.5"/><path fill="url(#L)" d="M19.5 27a2.5 2.5 0 0 0-2.5 2.5h5q-.1-2.4-2.5-2.5"/><g filter="url(#M)"><circle cx="20.7" cy="28.4" r=".6" fill="#FFCCDB"/></g><g filter="url(#N)"><path stroke="url(#O)" stroke-linecap="round" d="M13.9 17c-2 .2-7.2 3.3-8.3 8.7"/></g><g filter="url(#P)"><path stroke="url(#Q)" stroke-linecap="round" stroke-width=".3" d="M13.2 16c.6.3 1 2.3.2 3.3"/></g><g filter="url(#R)"><path fill="url(#S)" d="M22.4 17.5c2.4 4 .8 7.9.4 9.2-1.1-2.3-3.4-3.7-6.3-6.9a23 23 0 0 1-3.7-4.8c1.8-2.3 7-1.9 9.6 2.5"/></g><g filter="url(#T)"><ellipse cx="27.7" cy="8.8" fill="url(#U)" rx=".5" ry=".9" transform="rotate(-42.8 27.7 8.8)"/></g><g filter="url(#V)"><path fill="url(#W)" d="M25 24v2.2l.2-1.1q0-1-.2-1.1"/></g><path fill="url(#X)" d="M5.3 13.6c1.6 0 2.8-1.2 2.8-2.7S6.9 8.2 5.3 8.2a2.7 2.7 0 0 0-2.7 2.7c0 1.5 1.2 2.7 2.7 2.7"/><path fill="url(#Y)" d="M5.3 13.6c1.6 0 2.8-1.2 2.8-2.7S6.9 8.2 5.3 8.2a2.7 2.7 0 0 0-2.7 2.7c0 1.5 1.2 2.7 2.7 2.7"/><path fill="url(#Z)" fill-opacity=".5" d="M5.3 13.6c1.6 0 2.8-1.2 2.8-2.7S6.9 8.2 5.3 8.2a2.7 2.7 0 0 0-2.7 2.7c0 1.5 1.2 2.7 2.7 2.7"/><path fill="url(#aa)" d="M14.9 13.6c1.5 0 2.7-1.2 2.7-2.7S16.4 8.2 15 8.2a2.7 2.7 0 0 0-2.8 2.7c0 1.5 1.2 2.7 2.8 2.7"/><g filter="url(#ab)"><path stroke="url(#ac)" stroke-linecap="round" stroke-opacity=".8" stroke-width=".5" d="M15.6 8.6c.5 0 1.4.7 1.6 1.7q.4 1.6-.8 2.5"/></g><path fill="url(#ad)" d="M10.1 17.1c4 0 6-2.7 6-6s-2-6-6-6-6 2.7-6 6 2 6 6 6"/><path fill="url(#ae)" d="M10.1 17.1c4 0 6-2.7 6-6s-2-6-6-6-6 2.7-6 6 2 6 6 6"/><path fill="url(#af)" d="M10.1 17.1c4 0 6-2.7 6-6s-2-6-6-6-6 2.7-6 6 2 6 6 6"/><path fill="url(#ag)" d="M10.1 17.1c4 0 6-2.7 6-6s-2-6-6-6-6 2.7-6 6 2 6 6 6"/><path fill="url(#ah)" d="M10.1 17.1c4 0 6-2.7 6-6s-2-6-6-6-6 2.7-6 6 2 6 6 6"/><g filter="url(#ai)"><ellipse cx="13.8" cy="8.8" fill="#C58E7D" rx=".9" ry="2.2" transform="rotate(-23.4 13.8 8.8)"/></g><g filter="url(#aj)"><path fill="#C58E7D" d="M10 5.7q1.5 0 1.6.2-.1.2-1.6.2-1.4 0-1.5-.2.1-.2 1.5-.2"/></g><g filter="url(#ak)"><path fill="#561E25" d="M8 7a2.4 2.4 0 0 0-1.9 3.8q.2.2.1.4v.6a3.8 3.8 0 1 0 7.5-.6v-.4q.6-.7.6-1.5C14.3 8 13.2 7 11.9 7z"/></g><path fill="url(#al)" d="M8 6.8C6.8 6.8 5.7 8 5.7 9.2q0 1 .7 1.6l.3.6v.5c.3 2.2 2 3.2 3.6 3.2 1.5 0 3.4-1.3 3.4-3.4v-.5l.1-.3q.8-.4.9-1.7c0-1.3-.8-2.4-2.6-2.4z"/><path fill="url(#am)" d="M8 6.8C6.8 6.8 5.7 8 5.7 9.2q0 1 .7 1.6l.3.6v.5c.3 2.2 2 3.2 3.6 3.2 1.5 0 3.4-1.3 3.4-3.4v-.5l.1-.3q.8-.4.9-1.7c0-1.3-.8-2.4-2.6-2.4z"/><path fill="url(#an)" d="M8 6.8C6.8 6.8 5.7 8 5.7 9.2q0 1 .7 1.6l.3.6v.5c.3 2.2 2 3.2 3.6 3.2 1.5 0 3.4-1.3 3.4-3.4v-.5l.1-.3q.8-.4.9-1.7c0-1.3-.8-2.4-2.6-2.4z"/><path fill="url(#ao)" d="M8 6.8C6.8 6.8 5.7 8 5.7 9.2q0 1 .7 1.6l.3.6v.5c.3 2.2 2 3.2 3.6 3.2 1.5 0 3.4-1.3 3.4-3.4v-.5l.1-.3q.8-.4.9-1.7c0-1.3-.8-2.4-2.6-2.4z"/><g filter="url(#ap)"><path stroke="url(#aq)" stroke-linecap="round" stroke-opacity=".4" stroke-width=".8" d="M5 7.8c-.9 2-.8 4.9.1 6"/></g><g filter="url(#ar)"><path stroke="url(#as)" stroke-linecap="round" stroke-opacity=".5" stroke-width=".4" d="M15.6 8.9c.4 1.6.4 3.8-.4 5"/></g><g filter="url(#at)"><path stroke="url(#au)" stroke-linecap="round" stroke-width=".4" d="M12.8 7.1c.7.3 1.9 1.3 1.3 3"/></g><path fill="url(#av)" d="M8.1 12.6q.1 1.9 2 2 2-.2 2-2z"/><g filter="url(#aw)"><rect width=".8" height="1.6" x="7.9" y="9.1" fill="#BB6F89" fill-opacity=".6" rx=".4"/></g><g filter="url(#ax)"><rect width=".8" height="1.6" x="11" y="9.1" fill="#BB6F89" fill-opacity=".6" rx=".4"/></g><rect width="1" height="2" x="8.1" y="8.6" fill="url(#ay)" rx=".5"/><rect width="1" height="2" x="8.1" y="8.6" fill="url(#az)" rx=".5"/><rect width="1" height="2" x="11.1" y="8.6" fill="url(#aA)" rx=".5"/><rect width="1" height="2" x="11.1" y="8.6" fill="url(#aB)" rx=".5"/><g filter="url(#aC)"><rect width="2.7" height="1.2" x="8.7" y="10.8" fill="#BB6F89" rx=".6"/></g><rect width="2.3" height="1.1" x="9" y="10.6" fill="url(#aD)" rx=".5"/><rect width="2.3" height="1.1" x="9" y="10.6" fill="url(#aE)" rx=".5"/><path fill="url(#aF)" d="M9.8 11.3a.3.3 0 1 1-.5 0 .3.3 0 0 1 .5 0"/><path fill="url(#aG)" d="M10.9 11.3a.2.2 0 1 1-.5 0 .2.2 0 0 1 .5 0"/><g filter="url(#aH)"><path stroke="url(#aI)" stroke-width=".1" d="M10.7 10.9q.3 0 .4.3"/></g><g filter="url(#aJ)"><circle cx="11.7" cy="9" r=".2" fill="#795D72"/></g><g filter="url(#aK)"><circle cx="8.8" cy="9.1" r=".2" fill="#795D72"/></g><defs><radialGradient id="d" cx="0" cy="0" r="1" gradientTransform="matrix(1.625 1.4375 -2.70025 3.05245 25.2 23.4)" gradientUnits="userSpaceOnUse"><stop stop-color="#3A1118"/><stop offset="1" stop-color="#682B35" stop-opacity="0"/></radialGradient><radialGradient id="e" cx="0" cy="0" r="1" gradientTransform="rotate(-151.6 14.6 2.2)scale(3.87324)" gradientUnits="userSpaceOnUse"><stop stop-color="#A5438F"/><stop offset="1" stop-color="#863A75" stop-opacity="0"/></radialGradient><radialGradient id="h" cx="0" cy="0" r="1" gradientTransform="rotate(-138.8 16.2 0)scale(2.32534 4.72442)" gradientUnits="userSpaceOnUse"><stop stop-color="#975564"/><stop offset="1" stop-color="#985762" stop-opacity="0"/></radialGradient><radialGradient id="j" cx="0" cy="0" r="1" gradientTransform="matrix(7.90063 -8.4428 6.68554 6.25622 14.5 26)" gradientUnits="userSpaceOnUse"><stop stop-color="#66323A"/><stop offset="1" stop-color="#8A4F59"/></radialGradient><radialGradient id="k" cx="0" cy="0" r="1" gradientTransform="matrix(3.48964 -3.32812 6.31184 6.61815 16.9 23.3)" gradientUnits="userSpaceOnUse"><stop stop-color="#7C3D6E"/><stop offset="1" stop-color="#863A75" stop-opacity="0"/></radialGradient><radialGradient id="l" cx="0" cy="0" r="1" gradientTransform="matrix(3.375 -2.96875 8.99357 10.22427 14.2 21.9)" gradientUnits="userSpaceOnUse"><stop stop-color="#48161E"/><stop offset="1" stop-color="#682B35" stop-opacity="0"/></radialGradient><radialGradient id="m" cx="0" cy="0" r="1" gradientTransform="matrix(4.77386 -3.02958 2.85588 4.50015 12.1 25.7)" gradientUnits="userSpaceOnUse"><stop stop-color="#925990"/><stop offset="1" stop-color="#925990" stop-opacity="0"/></radialGradient><radialGradient id="n" cx="0" cy="0" r="1" gradientTransform="rotate(-8.8 165.9 -64.5)scale(14.2934 23.3508)" gradientUnits="userSpaceOnUse"><stop offset=".8" stop-color="#682B35" stop-opacity="0"/><stop offset="1" stop-color="#521F27"/></radialGradient><radialGradient id="o" cx="0" cy="0" r="1" gradientTransform="matrix(-.28371 4.82303 -4.20268 -.24722 12.2 13.8)" gradientUnits="userSpaceOnUse"><stop stop-color="#3A1118"/><stop offset="1" stop-color="#682B35" stop-opacity="0"/></radialGradient><radialGradient id="p" cx="0" cy="0" r="1" gradientTransform="rotate(-143.1 15 12.2)scale(17.5788 14.8666)" gradientUnits="userSpaceOnUse"><stop offset=".7" stop-color="#722F3A"/><stop offset=".9" stop-color="#92626A"/><stop offset="1" stop-color="#7E434D"/></radialGradient><radialGradient id="q" cx="0" cy="0" r="1" gradientTransform="matrix(-14.90506 -10.61206 8.97474 -12.60538 19.8 31)" gradientUnits="userSpaceOnUse"><stop offset=".8" stop-color="#682B35" stop-opacity="0"/><stop offset="1" stop-color="#521F27"/></radialGradient><radialGradient id="r" cx="0" cy="0" r="1" gradientTransform="matrix(-3.71874 2.93752 -1.26134 -1.59679 9.7 16.6)" gradientUnits="userSpaceOnUse"><stop stop-color="#3A1118"/><stop offset="1" stop-color="#682B35" stop-opacity="0"/></radialGradient><radialGradient id="s" cx="0" cy="0" r="1" gradientTransform="matrix(3.4375 -7.9375 3.40828 1.47602 2 30.8)" gradientUnits="userSpaceOnUse"><stop stop-color="#48161E"/><stop offset="1" stop-color="#682B35" stop-opacity="0"/></radialGradient><radialGradient id="t" cx="0" cy="0" r="1" gradientTransform="matrix(-2.67187 -1.34375 3.21177 -6.38618 13.5 20)" gradientUnits="userSpaceOnUse"><stop stop-color="#5B2430"/><stop offset="1" stop-color="#5B2430" stop-opacity="0"/></radialGradient><radialGradient id="u" cx="0" cy="0" r="1" gradientTransform="rotate(23.4 -52.9 40.7)scale(4.29108 5.54024)" gradientUnits="userSpaceOnUse"><stop stop-color="#722F3A"/><stop offset="1" stop-color="#854953"/></radialGradient><radialGradient id="v" cx="0" cy="0" r="1" gradientTransform="matrix(-12 -6.09375 4.94125 -9.73047 24.1 31)" gradientUnits="userSpaceOnUse"><stop offset=".8" stop-color="#5C2F31" stop-opacity="0"/><stop offset="1" stop-color="#5C2F31"/></radialGradient><radialGradient id="w" cx="0" cy="0" r="1" gradientTransform="matrix(-.75001 -4.09375 18.44381 -3.37908 15.3 31.3)" gradientUnits="userSpaceOnUse"><stop offset=".4" stop-color="#6D2379"/><stop offset=".8" stop-color="#85356D" stop-opacity="0"/></radialGradient><radialGradient id="x" cx="0" cy="0" r="1" gradientTransform="matrix(-2.6562 -.27918 .5294 -5.03697 21 29.7)" gradientUnits="userSpaceOnUse"><stop stop-color="#86444F"/><stop offset="1" stop-color="#602A33" stop-opacity="0"/></radialGradient><radialGradient id="D" cx="0" cy="0" r="1" gradientTransform="rotate(136.4 -1.6 15.2)scale(4.39871 4.50882)" gradientUnits="userSpaceOnUse"><stop stop-color="#EEB4BD"/><stop offset="1" stop-color="#B05D8C"/></radialGradient><radialGradient id="E" cx="0" cy="0" r="1" gradientTransform="matrix(-.75 1.625 -1.64844 -.76081 4.8 30.1)" gradientUnits="userSpaceOnUse"><stop stop-color="#B05D8C"/><stop offset="1" stop-color="#BD6797" stop-opacity="0"/></radialGradient><radialGradient id="F" cx="0" cy="0" r="1" gradientTransform="matrix(0 4.70312 -8.96039 0 5.7 29)" gradientUnits="userSpaceOnUse"><stop stop-color="#D29691" stop-opacity="0"/><stop offset="1" stop-color="#BA7973"/></radialGradient><radialGradient id="G" cx="0" cy="0" r="1" gradientTransform="matrix(-3.42188 0 0 -3.26256 6 29.5)" gradientUnits="userSpaceOnUse"><stop offset=".8" stop-color="#EDB7C5" stop-opacity="0"/><stop offset="1" stop-color="#EDB7C5"/></radialGradient><radialGradient id="I" cx="0" cy="0" r="1" gradientTransform="matrix(-2.85415 2.93499 -3.00846 -2.9256 21.4 27.4)" gradientUnits="userSpaceOnUse"><stop stop-color="#EEB4BD"/><stop offset="1" stop-color="#B05D8C"/></radialGradient><radialGradient id="J" cx="0" cy="0" r="1" gradientTransform="matrix(-.7507 1.62468 -1.6481 -.76153 18.6 30)" gradientUnits="userSpaceOnUse"><stop stop-color="#B05D8C"/><stop offset="1" stop-color="#BD6797" stop-opacity="0"/></radialGradient><radialGradient id="K" cx="0" cy="0" r="1" gradientTransform="matrix(0 4.70312 -8.96039 0 19.6 29)" gradientUnits="userSpaceOnUse"><stop stop-color="#D29691" stop-opacity="0"/><stop offset="1" stop-color="#BA7973"/></radialGradient><radialGradient id="L" cx="0" cy="0" r="1" gradientTransform="matrix(-3.65622 -4.41898 2.95318 -2.44343 20.9 31.4)" gradientUnits="userSpaceOnUse"><stop offset=".7" stop-color="#E99B98" stop-opacity="0"/><stop offset="1" stop-color="#E99B98"/></radialGradient><radialGradient id="S" cx="0" cy="0" r="1" gradientTransform="matrix(-2.28124 1.886 -10.1217 -12.24286 21.3 18.2)" gradientUnits="userSpaceOnUse"><stop stop-color="#CD9691"/><stop offset=".9" stop-color="#CD9691" stop-opacity="0"/></radialGradient><radialGradient id="U" cx="0" cy="0" r="1" gradientTransform="rotate(-94.7 18.4 -8)scale(1.27178 .70535)" gradientUnits="userSpaceOnUse"><stop stop-color="#C48980"/><stop offset="1" stop-color="#C48980" stop-opacity="0"/></radialGradient><radialGradient id="Z" cx="0" cy="0" r="1" gradientTransform="matrix(-5.65961 -5.59674 6.68027 -6.75531 7.3 14)" gradientUnits="userSpaceOnUse"><stop offset=".6" stop-color="#F39585" stop-opacity="0"/><stop offset="1" stop-color="#F39585"/></radialGradient><radialGradient id="ac" cx="0" cy="0" r="1" gradientTransform="matrix(-2.76691 -3.17568 6.68986 -5.82875 16.7 12.7)" gradientUnits="userSpaceOnUse"><stop stop-color="#FFDACC" stop-opacity="0"/><stop offset=".4" stop-color="#FFDACC"/><stop offset="1" stop-color="#FFDACC" stop-opacity="0"/></radialGradient><radialGradient id="ad" cx="0" cy="0" r="1" gradientTransform="matrix(-5.50237 9.2652 -16.41966 -9.75122 14.3 7.8)" gradientUnits="userSpaceOnUse"><stop stop-color="#A06857"/><stop offset="1" stop-color="#5B3838"/></radialGradient><radialGradient id="af" cx="0" cy="0" r="1" gradientTransform="matrix(0 10.3999 -9.28735 0 9.3 10.4)" gradientUnits="userSpaceOnUse"><stop offset=".7" stop-color="#FF7AF2" stop-opacity="0"/><stop offset="1" stop-color="#FFBCE6"/></radialGradient><radialGradient id="ag" cx="0" cy="0" r="1" gradientTransform="rotate(123.8 5 7.3)scale(9.58275)" gradientUnits="userSpaceOnUse"><stop stop-color="#A9705E"/><stop offset="1" stop-color="#A9705E" stop-opacity="0"/></radialGradient><radialGradient id="ah" cx="0" cy="0" r="1" gradientTransform="matrix(-3.90626 2.76292 -2.83425 -4.0071 15.7 8.3)" gradientUnits="userSpaceOnUse"><stop stop-color="#A9705E"/><stop offset="1" stop-color="#A9705E" stop-opacity="0"/></radialGradient><radialGradient id="am" cx="0" cy="0" r="1" gradientTransform="matrix(-9.71876 3.58447 -4.73712 -12.84397 14.8 8.5)" gradientUnits="userSpaceOnUse"><stop offset=".8" stop-color="#A55F89" stop-opacity="0"/><stop offset="1" stop-color="#A55F89"/></radialGradient><radialGradient id="an" cx="0" cy="0" r="1" gradientTransform="matrix(-.00036 6.39106 -5.56633 -.00031 10 10)" gradientUnits="userSpaceOnUse"><stop offset=".8" stop-color="#EF5CF2" stop-opacity="0"/><stop offset="1" stop-color="#FF63C4"/></radialGradient><radialGradient id="ao" cx="0" cy="0" r="1" gradientTransform="rotate(128.7 5.5 6.8)scale(5.95154 6.48618)" gradientUnits="userSpaceOnUse"><stop stop-color="#FFC8BC"/><stop offset=".5" stop-color="#FFC8BC" stop-opacity="0"/></radialGradient><radialGradient id="av" cx="0" cy="0" r="1" gradientTransform="matrix(0 -4.56335 8.88926 0 10.4 15)" gradientUnits="userSpaceOnUse"><stop stop-color="#EF0084"/><stop offset=".5" stop-color="#89029C"/></radialGradient><radialGradient id="aF" cx="0" cy="0" r="1" gradientTransform="matrix(-.65508 .69822 -.41977 -.39383 9.6 11.2)" gradientUnits="userSpaceOnUse"><stop stop-color="#3E2739"/><stop offset="1" stop-color="#684E61"/></radialGradient><radialGradient id="aG" cx="0" cy="0" r="1" gradientTransform="matrix(-.36752 .4473 -.69988 -.57505 10.7 11)" gradientUnits="userSpaceOnUse"><stop stop-color="#3C2737"/><stop offset="1" stop-color="#684E61"/></radialGradient><filter id="a" width="8.8" height="19.7" x="21.4" y="6.7" color-interpolation-filters="sRGB" filterUnits="userSpaceOnUse"><feFlood flood-opacity="0" result="BackgroundImageFix"/><feBlend in="SourceGraphic" in2="BackgroundImageFix" result="shape"/><feColorMatrix in="SourceAlpha" result="hardAlpha" values="0 0 0 0 0 0 0 0 0 0 0 0 0 0 0 0 0 0 127 0"/><feOffset dx=".1" dy="-.1"/><feGaussianBlur stdDeviation=".4"/><feComposite in2="hardAlpha" k2="-1" k3="1" operator="arithmetic"/><feColorMatrix values="0 0 0 0 0.3375 0 0 0 0 0.106875 0 0 0 0 0.164531 0 0 0 1 0"/><feBlend in2="shape" result="effect1_innerShadow_28327_1450"/></filter><filter id="f" width="8.8" height="20.2" x="21.7" y="6.3" color-interpolation-filters="sRGB" filterUnits="userSpaceOnUse"><feFlood flood-opacity="0" result="BackgroundImageFix"/><feBlend in="SourceGraphic" in2="BackgroundImageFix" result="shape"/><feGaussianBlur result="effect1_foregroundBlur_28327_1450" stdDeviation=".5"/></filter><filter id="i" width="16.2" height="17" x="8.8" y="12.6" color-interpolation-filters="sRGB" filterUnits="userSpaceOnUse"><feFlood flood-opacity="0" result="BackgroundImageFix"/><feBlend in="SourceGraphic" in2="BackgroundImageFix" result="shape"/><feColorMatrix in="SourceAlpha" result="hardAlpha" values="0 0 0 0 0 0 0 0 0 0 0 0 0 0 0 0 0 0 127 0"/><feOffset dy=".1"/><feGaussianBlur stdDeviation=".5"/><feComposite in2="hardAlpha" k2="-1" k3="1" operator="arithmetic"/><feColorMatrix values="0 0 0 0 0.705882 0 0 0 0 0.52549 0 0 0 0 0.509804 0 0 0 0.5 0"/><feBlend in2="shape" result="effect1_innerShadow_28327_1450"/></filter><filter id="y" width="12.8" height="7.6" x="10.4" y="22.5" color-interpolation-filters="sRGB" filterUnits="userSpaceOnUse"><feFlood flood-opacity="0" result="BackgroundImageFix"/><feBlend in="SourceGraphic" in2="BackgroundImageFix" result="shape"/><feGaussianBlur result="effect1_foregroundBlur_28327_1450" stdDeviation=".6"/></filter><filter id="A" width="7.7" height="7.8" x="15.6" y="20.8" color-interpolation-filters="sRGB" filterUnits="userSpaceOnUse"><feFlood flood-opacity="0" result="BackgroundImageFix"/><feBlend in="SourceGraphic" in2="BackgroundImageFix" result="shape"/><feGaussianBlur result="effect1_foregroundBlur_28327_1450" stdDeviation=".5"/></filter><filter id="C" width="6.5" height="3.6" x="15.4" y="26.2" color-interpolation-filters="sRGB" filterUnits="userSpaceOnUse"><feFlood flood-opacity="0" result="BackgroundImageFix"/><feBlend in="SourceGraphic" in2="BackgroundImageFix" result="shape"/><feGaussianBlur result="effect1_foregroundBlur_28327_1450" stdDeviation=".4"/></filter><filter id="H" width="3.2" height="3.2" x="5.3" y="27" color-interpolation-filters="sRGB" filterUnits="userSpaceOnUse"><feFlood flood-opacity="0" result="BackgroundImageFix"/><feBlend in="SourceGraphic" in2="BackgroundImageFix" result="shape"/><feGaussianBlur result="effect1_foregroundBlur_28327_1450" stdDeviation=".5"/></filter><filter id="M" width="3.2" height="3.2" x="19.1" y="26.9" color-interpolation-filters="sRGB" filterUnits="userSpaceOnUse"><feFlood flood-opacity="0" result="BackgroundImageFix"/><feBlend in="SourceGraphic" in2="BackgroundImageFix" result="shape"/><feGaussianBlur result="effect1_foregroundBlur_28327_1450" stdDeviation=".5"/></filter><filter id="N" width="13.3" height="13.7" x="3.1" y="14.5" color-interpolation-filters="sRGB" filterUnits="userSpaceOnUse"><feFlood flood-opacity="0" result="BackgroundImageFix"/><feBlend in="SourceGraphic" in2="BackgroundImageFix" result="shape"/><feGaussianBlur result="effect1_foregroundBlur_28327_1450" stdDeviation="1"/></filter><filter id="P" width="2.4" height="5" x="12.3" y="15.1" color-interpolation-filters="sRGB" filterUnits="userSpaceOnUse"><feFlood flood-opacity="0" result="BackgroundImageFix"/><feBlend in="SourceGraphic" in2="BackgroundImageFix" result="shape"/><feGaussianBlur result="effect1_foregroundBlur_28327_1450" stdDeviation=".4"/></filter><filter id="R" width="17.8" height="20.1" x="9.3" y="10.1" color-interpolation-filters="sRGB" filterUnits="userSpaceOnUse"><feFlood flood-opacity="0" result="BackgroundImageFix"/><feBlend in="SourceGraphic" in2="BackgroundImageFix" result="shape"/><feGaussianBlur result="effect1_foregroundBlur_28327_1450" stdDeviation="1.8"/></filter><filter id="T" width="3.5" height="3.5" x="26" y="7" color-interpolation-filters="sRGB" filterUnits="userSpaceOnUse"><feFlood flood-opacity="0" result="BackgroundImageFix"/><feBlend in="SourceGraphic" in2="BackgroundImageFix" result="shape"/><feGaussianBlur result="effect1_foregroundBlur_28327_1450" stdDeviation=".5"/></filter><filter id="V" width=".4" height="2.5" x="24.9" y="23.9" color-interpolation-filters="sRGB" filterUnits="userSpaceOnUse"><feFlood flood-opacity="0" result="BackgroundImageFix"/><feBlend in="SourceGraphic" in2="BackgroundImageFix" result="shape"/><feGaussianBlur result="effect1_foregroundBlur_28327_1450" stdDeviation=".1"/></filter><filter id="ab" width="3" height="5.6" x="14.9" y="7.9" color-interpolation-filters="sRGB" filterUnits="userSpaceOnUse"><feFlood flood-opacity="0" result="BackgroundImageFix"/><feBlend in="SourceGraphic" in2="BackgroundImageFix" result="shape"/><feGaussianBlur result="effect1_foregroundBlur_28327_1450" stdDeviation=".2"/></filter><filter id="ai" width="9.4" height="11.1" x="9.1" y="3.3" color-interpolation-filters="sRGB" filterUnits="userSpaceOnUse"><feFlood flood-opacity="0" result="BackgroundImageFix"/><feBlend in="SourceGraphic" in2="BackgroundImageFix" result="shape"/><feGaussianBlur result="effect1_foregroundBlur_28327_1450" stdDeviation="1.8"/></filter><filter id="aj" width="10.1" height="7.4" x="5" y="2.2" color-interpolation-filters="sRGB" filterUnits="userSpaceOnUse"><feFlood flood-opacity="0" result="BackgroundImageFix"/><feBlend in="SourceGraphic" in2="BackgroundImageFix" result="shape"/><feGaussianBlur result="effect1_foregroundBlur_28327_1450" stdDeviation="1.8"/></filter><filter id="ak" width="12.6" height="12.6" x="3.6" y="4.9" color-interpolation-filters="sRGB" filterUnits="userSpaceOnUse"><feFlood flood-opacity="0" result="BackgroundImageFix"/><feBlend in="SourceGraphic" in2="BackgroundImageFix" result="shape"/><feGaussianBlur result="effect1_foregroundBlur_28327_1450" stdDeviation="1"/></filter><filter id="ap" width="2.3" height="7.7" x="3.6" y="7" color-interpolation-filters="sRGB" filterUnits="userSpaceOnUse"><feFlood flood-opacity="0" result="BackgroundImageFix"/><feBlend in="SourceGraphic" in2="BackgroundImageFix" result="shape"/><feGaussianBlur result="effect1_foregroundBlur_28327_1450" stdDeviation=".2"/></filter><filter id="ar" width="1.8" height="6.2" x="14.6" y="8.3" color-interpolation-filters="sRGB" filterUnits="userSpaceOnUse"><feFlood flood-opacity="0" result="BackgroundImageFix"/><feBlend in="SourceGraphic" in2="BackgroundImageFix" result="shape"/><feGaussianBlur result="effect1_foregroundBlur_28327_1450" stdDeviation=".2"/></filter><filter id="at" width="2.6" height="4.2" x="12.2" y="6.5" color-interpolation-filters="sRGB" filterUnits="userSpaceOnUse"><feFlood flood-opacity="0" result="BackgroundImageFix"/><feBlend in="SourceGraphic" in2="BackgroundImageFix" result="shape"/><feGaussianBlur result="effect1_foregroundBlur_28327_1450" stdDeviation=".2"/></filter><filter id="aw" width="2.8" height="3.6" x="6.9" y="8.1" color-interpolation-filters="sRGB" filterUnits="userSpaceOnUse"><feFlood flood-opacity="0" result="BackgroundImageFix"/><feBlend in="SourceGraphic" in2="BackgroundImageFix" result="shape"/><feGaussianBlur result="effect1_foregroundBlur_28327_1450" stdDeviation=".5"/></filter><filter id="ax" width="2.8" height="3.6" x="10" y="8.1" color-interpolation-filters="sRGB" filterUnits="userSpaceOnUse"><feFlood flood-opacity="0" result="BackgroundImageFix"/><feBlend in="SourceGraphic" in2="BackgroundImageFix" result="shape"/><feGaussianBlur result="effect1_foregroundBlur_28327_1450" stdDeviation=".5"/></filter><filter id="aC" width="4.7" height="3.2" x="7.7" y="9.8" color-interpolation-filters="sRGB" filterUnits="userSpaceOnUse"><feFlood flood-opacity="0" result="BackgroundImageFix"/><feBlend in="SourceGraphic" in2="BackgroundImageFix" result="shape"/><feGaussianBlur result="effect1_foregroundBlur_28327_1450" stdDeviation=".5"/></filter><filter id="aH" width=".8" height=".8" x="10.5" y="10.6" color-interpolation-filters="sRGB" filterUnits="userSpaceOnUse"><feFlood flood-opacity="0" result="BackgroundImageFix"/><feBlend in="SourceGraphic" in2="BackgroundImageFix" result="shape"/><feGaussianBlur result="effect1_foregroundBlur_28327_1450" stdDeviation=".1"/></filter><filter id="aJ" width="2.4" height="2.4" x="10.5" y="7.8" color-interpolation-filters="sRGB" filterUnits="userSpaceOnUse"><feFlood flood-opacity="0" result="BackgroundImageFix"/><feBlend in="SourceGraphic" in2="BackgroundImageFix" result="shape"/><feGaussianBlur result="effect1_foregroundBlur_28327_1450" stdDeviation=".5"/></filter><filter id="aK" width="2.4" height="2.4" x="7.6" y="7.9" color-interpolation-filters="sRGB" filterUnits="userSpaceOnUse"><feFlood flood-opacity="0" result="BackgroundImageFix"/><feBlend in="SourceGraphic" in2="BackgroundImageFix" result="shape"/><feGaussianBlur result="effect1_foregroundBlur_28327_1450" stdDeviation=".5"/></filter><linearGradient id="b" x1="24.2" x2="30.9" y1="23.1" y2="17.4" gradientUnits="userSpaceOnUse"><stop stop-color="#66323A"/><stop offset=".6" stop-color="#8A4F59"/><stop offset="1" stop-color="#985762"/></linearGradient><linearGradient id="c" x1="23.6" x2="19.7" y1="31.2" y2="23.6" gradientUnits="userSpaceOnUse"><stop offset=".1" stop-color="#6D2379"/><stop offset=".8" stop-color="#85356D" stop-opacity="0"/></linearGradient><linearGradient id="g" x1="27.1" x2="21.7" y1="10.8" y2="13.8" gradientUnits="userSpaceOnUse"><stop stop-color="#BE8E8A"/><stop offset="1" stop-color="#B48682" stop-opacity="0"/></linearGradient><linearGradient id="z" x1="18.5" x2="13" y1="21.5" y2="29.2" gradientUnits="userSpaceOnUse"><stop stop-color="#B3817C"/><stop offset="1" stop-color="#B2817C" stop-opacity="0"/></linearGradient><linearGradient id="B" x1="23.7" x2="14.8" y1="21.5" y2="24.6" gradientUnits="userSpaceOnUse"><stop stop-color="#B3817C"/><stop offset="1" stop-color="#B2817C" stop-opacity="0"/></linearGradient><linearGradient id="O" x1="11.6" x2="7.8" y1="18.4" y2="23.5" gradientUnits="userSpaceOnUse"><stop stop-color="#B48682"/><stop offset="1" stop-color="#B48682" stop-opacity="0"/></linearGradient><linearGradient id="Q" x1="13.7" x2="13.7" y1="16.7" y2="19.3" gradientUnits="userSpaceOnUse"><stop stop-color="#A1736F"/><stop offset="1" stop-color="#955093"/></linearGradient><linearGradient id="W" x1="25.4" x2="25.4" y1="22.2" y2="26.4" gradientUnits="userSpaceOnUse"><stop offset=".1" stop-color="#EDD1CE"/><stop offset="1" stop-color="#BE8E8A" stop-opacity="0"/></linearGradient><linearGradient id="X" x1="5.3" x2="5.3" y1="9" y2="14.5" gradientUnits="userSpaceOnUse"><stop stop-color="#A67874"/><stop offset="1" stop-color="#8F5872"/></linearGradient><linearGradient id="Y" x1="5.3" x2="5.3" y1="10.6" y2="14.7" gradientUnits="userSpaceOnUse"><stop stop-color="#B56595" stop-opacity="0"/><stop offset="1" stop-color="#CA6FA6"/></linearGradient><linearGradient id="aa" x1="14.9" x2="14.9" y1="9.6" y2="14.7" gradientUnits="userSpaceOnUse"><stop offset=".1" stop-color="#FAB8A9"/><stop offset="1" stop-color="#B56595"/></linearGradient><linearGradient id="ae" x1="10.1" x2="10.1" y1="11.1" y2="19.6" gradientUnits="userSpaceOnUse"><stop stop-color="#682B5B" stop-opacity="0"/><stop offset="1" stop-color="#682B5B"/></linearGradient><linearGradient id="al" x1="10" x2="10" y1="6.1" y2="15.9" gradientUnits="userSpaceOnUse"><stop stop-color="#FFC8BC"/><stop offset=".2" stop-color="#F6ACC1"/><stop offset=".9" stop-color="#AC628E"/></linearGradient><linearGradient id="aq" x1="5.4" x2="4.2" y1="14.2" y2="7.8" gradientUnits="userSpaceOnUse"><stop stop-color="#7C6160" stop-opacity="0"/><stop offset=".5" stop-color="#7C6160"/><stop offset="1" stop-color="#7C6160" stop-opacity="0"/></linearGradient><linearGradient id="as" x1="14.6" x2="16.3" y1="13.9" y2="9.9" gradientUnits="userSpaceOnUse"><stop stop-color="#BE8B89" stop-opacity="0"/><stop offset=".3" stop-color="#BE8B89" stop-opacity=".6"/><stop offset=".8" stop-color="#BE8B89" stop-opacity="0"/></linearGradient><linearGradient id="au" x1="14.4" x2="12.6" y1="9.8" y2="7.1" gradientUnits="userSpaceOnUse"><stop stop-color="#FFDACC" stop-opacity="0"/><stop offset=".6" stop-color="#FFDACC"/><stop offset="1" stop-color="#FFDACC" stop-opacity="0"/></linearGradient><linearGradient id="ay" x1="10.5" x2="7.6" y1="9.3" y2="9.3" gradientUnits="userSpaceOnUse"><stop stop-color="#432A3D"/><stop offset=".6" stop-color="#684E61"/><stop offset=".8" stop-color="#43253D"/></linearGradient><linearGradient id="az" x1="8.8" x2="8.8" y1="9.2" y2="10.8" gradientUnits="userSpaceOnUse"><stop offset=".3" stop-color="#43253D" stop-opacity="0"/><stop offset="1" stop-color="#43253D"/></linearGradient><linearGradient id="aA" x1="13.5" x2="10.6" y1="9.3" y2="9.3" gradientUnits="userSpaceOnUse"><stop stop-color="#432A3D"/><stop offset=".6" stop-color="#684E61"/><stop offset=".8" stop-color="#43253D"/></linearGradient><linearGradient id="aB" x1="11.8" x2="11.8" y1="9.2" y2="10.8" gradientUnits="userSpaceOnUse"><stop offset=".3" stop-color="#43253D" stop-opacity="0"/><stop offset="1" stop-color="#43253D"/></linearGradient><linearGradient id="aD" x1="10.1" x2="10.1" y1="10.6" y2="11.6" gradientUnits="userSpaceOnUse"><stop stop-color="#E9A4A2"/><stop offset="1" stop-color="#DC89A8"/></linearGradient><linearGradient id="aE" x1="9.9" x2="9.5" y1="12.9" y2="11.2" gradientUnits="userSpaceOnUse"><stop offset=".1" stop-color="#C971B6"/><stop offset="1" stop-color="#DC90CC" stop-opacity="0"/></linearGradient><linearGradient id="aI" x1="10.9" x2="10.9" y1="10.9" y2="11.2" gradientUnits="userSpaceOnUse"><stop stop-color="#FFDACC" stop-opacity="0"/><stop offset=".3" stop-color="#FFEBE3"/></linearGradient></defs></svg>