<svg xmlns="http://www.w3.org/2000/svg" width="32" height="32" fill="none"><path fill="url(#a)" d="M6.5 22.4c3 0 5.5-2.4 5.5-5.4s-2.5-5.4-5.5-5.4S1 14 1 17s2.5 5.4 5.5 5.4"/><path fill="url(#b)" d="M6.5 22.4c3 0 5.5-2.4 5.5-5.4s-2.5-5.4-5.5-5.4S1 14 1 17s2.5 5.4 5.5 5.4"/><path fill="url(#c)" fill-opacity=".5" d="M6.5 22.4c3 0 5.5-2.4 5.5-5.4s-2.5-5.4-5.5-5.4S1 14 1 17s2.5 5.4 5.5 5.4"/><path fill="url(#d)" d="M25.4 22.4a5.4 5.4 0 1 0 0-10.8c-3 0-5.5 2.4-5.5 5.4s2.5 5.4 5.5 5.4"/><g filter="url(#e)"><path stroke="url(#f)" stroke-linecap="round" stroke-opacity=".8" stroke-width=".5" d="M26.8 12.4c1 .1 3 1.4 3.3 3.5.5 1.8-.1 4-1.6 5"/></g><path fill="url(#g)" d="M16 29.4c8 0 12-5.4 12-12s-4-12-12-12-12 5.4-12 12 4 12 12 12"/><path fill="url(#h)" d="M16 29.4c8 0 12-5.4 12-12s-4-12-12-12-12 5.4-12 12 4 12 12 12"/><path fill="url(#i)" d="M16 29.4c8 0 12-5.4 12-12s-4-12-12-12-12 5.4-12 12 4 12 12 12"/><path fill="url(#j)" d="M16 29.4c8 0 12-5.4 12-12s-4-12-12-12-12 5.4-12 12 4 12 12 12"/><g filter="url(#k)"><ellipse cx="23.4" cy="12.9" fill="#C58E7D" rx="1.8" ry="4.3" transform="rotate(-23.4 23.4 13)"/></g><g filter="url(#l)"><ellipse cx="15.8" cy="7" fill="#C58E7D" rx=".4" ry="3.1" transform="rotate(-90 15.8 7)"/></g><g filter="url(#m)"><path fill="#561E25" d="M11.9 9.1A4.8 4.8 0 0 0 8.2 17q.2.1.1.4a7.5 7.5 0 0 0 7.4 8.9 7.5 7.5 0 0 0 7.3-8.9l.1-.4q1-1.4 1.1-3c0-2.7-2-4.9-4.7-4.9z"/></g><path fill="url(#n)" d="M12.2 8.9a4.8 4.8 0 0 0-3.7 7.9v1.9a7.5 7.5 0 1 0 15-1.4v-.5q1.1-1.4 1.2-3a5 5 0 0 0-4.9-4.9z"/><path fill="url(#o)" d="M12.2 8.9a4.8 4.8 0 0 0-3.7 7.9v1.9a7.5 7.5 0 1 0 15-1.4v-.5q1.1-1.4 1.2-3a5 5 0 0 0-4.9-4.9z"/><path fill="url(#p)" d="M12.2 8.9a4.8 4.8 0 0 0-3.7 7.9v1.9a7.5 7.5 0 1 0 15-1.4v-.5q1.1-1.4 1.2-3a5 5 0 0 0-4.9-4.9z"/><g filter="url(#q)"><path stroke="url(#r)" stroke-linecap="round" stroke-opacity=".4" stroke-width=".8" d="M5.7 10.8c-1.6 4-1.4 9.7.3 12.2"/></g><g filter="url(#s)"><path stroke="url(#t)" stroke-linecap="round" stroke-opacity=".5" stroke-width=".4" d="M27 13c.8 3.2.7 7.5-.8 10"/></g><g filter="url(#u)"><path stroke="url(#v)" stroke-linecap="round" stroke-width=".4" d="M21.4 9.5c1.3.5 3.7 2.5 2.5 5.9"/></g><g filter="url(#w)"><path stroke="url(#x)" stroke-linecap="round" stroke-width=".1" d="M23 17.3c.5 2.9-.6 5-1.6 6"/></g><path fill="url(#y)" d="M12 20.4c0 2.3 1.7 4 4 4 2.5 0 4-1.8 4-4z"/><g filter="url(#z)"><rect width="1.6" height="3.3" x="11.7" y="13.5" fill="#BB6F89" fill-opacity=".6" rx=".8"/></g><g filter="url(#A)"><rect width="1.6" height="3.3" x="17.9" y="13.5" fill="#BB6F89" fill-opacity=".6" rx=".8"/></g><rect width="1.5" height="3" x="12.2" y="13.4" fill="url(#B)" rx=".8"/><rect width="1.5" height="3" x="12.2" y="13.4" fill="url(#C)" rx=".8"/><rect width="1.5" height="3" x="18.2" y="13.4" fill="url(#D)" rx=".8"/><rect width="1.5" height="3" x="18.2" y="13.4" fill="url(#E)" rx=".8"/><g filter="url(#F)"><rect width="5.3" height="2.4" x="13.1" y="16.8" fill="#BB6F89" rx="1.1"/></g><rect width="4.9" height="2.2" x="13.6" y="16.4" fill="url(#G)" rx="1.1"/><rect width="4.9" height="2.2" x="13.6" y="16.4" fill="url(#H)" rx="1.1"/><circle cx="14.5" cy="17.9" r=".5" fill="url(#I)"/><circle cx="17.3" cy="17.9" r=".5" fill="url(#J)"/><g filter="url(#K)"><path stroke="url(#L)" stroke-width=".1" d="M17.2 17q.7 0 1 .7"/></g><g filter="url(#M)"><circle cx="19.2" cy="14" r=".3" fill="#795D72"/></g><g filter="url(#N)"><circle cx="13.3" cy="14.2" r=".3" fill="#795D72"/></g><defs><linearGradient id="a" x1="6.5" x2="6.5" y1="13.2" y2="24.1" gradientUnits="userSpaceOnUse"><stop stop-color="#A67874"/><stop offset="1" stop-color="#8F5872"/></linearGradient><linearGradient id="b" x1="6.5" x2="6.5" y1="16.5" y2="24.6" gradientUnits="userSpaceOnUse"><stop stop-color="#B56595" stop-opacity="0"/><stop offset="1" stop-color="#CA6FA6"/></linearGradient><linearGradient id="d" x1="25.4" x2="25.4" y1="14.4" y2="24.6" gradientUnits="userSpaceOnUse"><stop offset=".1" stop-color="#FAB8A9"/><stop offset="1" stop-color="#B56595"/></linearGradient><linearGradient id="h" x1="16" x2="16" y1="17.4" y2="34.3" gradientUnits="userSpaceOnUse"><stop stop-color="#682B5B" stop-opacity="0"/><stop offset="1" stop-color="#682B5B"/></linearGradient><linearGradient id="n" x1="16" x2="16" y1="8.9" y2="26.9" gradientUnits="userSpaceOnUse"><stop stop-color="#FFC8BC"/><stop offset=".2" stop-color="#FAB8A9"/><stop offset=".9" stop-color="#AC628E"/></linearGradient><linearGradient id="r" x1="6.6" x2="4.2" y1="23.6" y2="10.9" gradientUnits="userSpaceOnUse"><stop stop-color="#7C6160" stop-opacity="0"/><stop offset=".5" stop-color="#7C6160"/><stop offset="1" stop-color="#7C6160" stop-opacity="0"/></linearGradient><linearGradient id="t" x1="25" x2="28.3" y1="23" y2="15" gradientUnits="userSpaceOnUse"><stop stop-color="#BE8B89" stop-opacity="0"/><stop offset=".3" stop-color="#BE8B89" stop-opacity=".6"/><stop offset=".8" stop-color="#BE8B89" stop-opacity="0"/></linearGradient><linearGradient id="v" x1="24.5" x2="20.9" y1="14.8" y2="9.4" gradientUnits="userSpaceOnUse"><stop stop-color="#FFDACC" stop-opacity="0"/><stop offset=".6" stop-color="#FFDACC"/><stop offset="1" stop-color="#FFDACC" stop-opacity="0"/></linearGradient><linearGradient id="x" x1="22.8" x2="22.1" y1="22.7" y2="18.6" gradientUnits="userSpaceOnUse"><stop offset="0" stop-color="#FFDACC" stop-opacity="0"/><stop offset="1" stop-color="#FFDACC"/></linearGradient><linearGradient id="B" x1="15.9" x2="11.5" y1="14.5" y2="14.5" gradientUnits="userSpaceOnUse"><stop stop-color="#432A3D"/><stop offset=".6" stop-color="#684E61"/><stop offset=".8" stop-color="#43253D"/></linearGradient><linearGradient id="C" x1="13.3" x2="13.3" y1="14.3" y2="16.7" gradientUnits="userSpaceOnUse"><stop offset=".3" stop-color="#43253D" stop-opacity="0"/><stop offset="1" stop-color="#43253D"/></linearGradient><linearGradient id="D" x1="21.8" x2="17.5" y1="14.5" y2="14.5" gradientUnits="userSpaceOnUse"><stop stop-color="#432A3D"/><stop offset=".6" stop-color="#684E61"/><stop offset=".8" stop-color="#43253D"/></linearGradient><linearGradient id="E" x1="19.3" x2="19.3" y1="14.3" y2="16.7" gradientUnits="userSpaceOnUse"><stop offset=".3" stop-color="#43253D" stop-opacity="0"/><stop offset="1" stop-color="#43253D"/></linearGradient><linearGradient id="G" x1="16" x2="16" y1="16.4" y2="18.5" gradientUnits="userSpaceOnUse"><stop stop-color="#E9A4A2"/><stop offset="1" stop-color="#DC89A8"/></linearGradient><linearGradient id="H" x1="15.5" x2="14.8" y1="21.3" y2="17.7" gradientUnits="userSpaceOnUse"><stop offset=".1" stop-color="#C971B6"/><stop offset="1" stop-color="#DC90CC" stop-opacity="0"/></linearGradient><linearGradient id="L" x1="17.7" x2="17.7" y1="17" y2="17.7" gradientUnits="userSpaceOnUse"><stop stop-color="#FFDACC" stop-opacity="0"/><stop offset=".3" stop-color="#FFEBE3"/></linearGradient><filter id="e" width="4.8" height="9.8" x="26.2" y="11.7" color-interpolation-filters="sRGB" filterUnits="userSpaceOnUse"><feFlood flood-opacity="0" result="BackgroundImageFix"/><feBlend in="SourceGraphic" in2="BackgroundImageFix" result="shape"/><feGaussianBlur result="effect1_foregroundBlur_28327_1406" stdDeviation=".2"/></filter><filter id="k" width="11.8" height="15.1" x="17.5" y="5.4" color-interpolation-filters="sRGB" filterUnits="userSpaceOnUse"><feFlood flood-opacity="0" result="BackgroundImageFix"/><feBlend in="SourceGraphic" in2="BackgroundImageFix" result="shape"/><feGaussianBlur result="effect1_foregroundBlur_28327_1406" stdDeviation="1.8"/></filter><filter id="l" width="13.1" height="7.8" x="9.2" y="3.1" color-interpolation-filters="sRGB" filterUnits="userSpaceOnUse"><feFlood flood-opacity="0" result="BackgroundImageFix"/><feBlend in="SourceGraphic" in2="BackgroundImageFix" result="shape"/><feGaussianBlur result="effect1_foregroundBlur_28327_1406" stdDeviation="1.8"/></filter><filter id="m" width="21.1" height="21.1" x="5.1" y="7.1" color-interpolation-filters="sRGB" filterUnits="userSpaceOnUse"><feFlood flood-opacity="0" result="BackgroundImageFix"/><feBlend in="SourceGraphic" in2="BackgroundImageFix" result="shape"/><feGaussianBlur result="effect1_foregroundBlur_28327_1406" stdDeviation="1"/></filter><filter id="q" width="3" height="13.7" x="3.8" y="10" color-interpolation-filters="sRGB" filterUnits="userSpaceOnUse"><feFlood flood-opacity="0" result="BackgroundImageFix"/><feBlend in="SourceGraphic" in2="BackgroundImageFix" result="shape"/><feGaussianBlur result="effect1_foregroundBlur_28327_1406" stdDeviation=".2"/></filter><filter id="s" width="2.5" height="11.2" x="25.6" y="12.4" color-interpolation-filters="sRGB" filterUnits="userSpaceOnUse"><feFlood flood-opacity="0" result="BackgroundImageFix"/><feBlend in="SourceGraphic" in2="BackgroundImageFix" result="shape"/><feGaussianBlur result="effect1_foregroundBlur_28327_1406" stdDeviation=".2"/></filter><filter id="u" width="4" height="7.1" x="20.8" y="8.9" color-interpolation-filters="sRGB" filterUnits="userSpaceOnUse"><feFlood flood-opacity="0" result="BackgroundImageFix"/><feBlend in="SourceGraphic" in2="BackgroundImageFix" result="shape"/><feGaussianBlur result="effect1_foregroundBlur_28327_1406" stdDeviation=".2"/></filter><filter id="w" width="2.6" height="6.9" x="21" y="16.8" color-interpolation-filters="sRGB" filterUnits="userSpaceOnUse"><feFlood flood-opacity="0" result="BackgroundImageFix"/><feBlend in="SourceGraphic" in2="BackgroundImageFix" result="shape"/><feGaussianBlur result="effect1_foregroundBlur_28327_1406" stdDeviation=".2"/></filter><filter id="z" width="3.6" height="5.3" x="10.7" y="12.5" color-interpolation-filters="sRGB" filterUnits="userSpaceOnUse"><feFlood flood-opacity="0" result="BackgroundImageFix"/><feBlend in="SourceGraphic" in2="BackgroundImageFix" result="shape"/><feGaussianBlur result="effect1_foregroundBlur_28327_1406" stdDeviation=".5"/></filter><filter id="A" width="3.6" height="5.3" x="16.9" y="12.5" color-interpolation-filters="sRGB" filterUnits="userSpaceOnUse"><feFlood flood-opacity="0" result="BackgroundImageFix"/><feBlend in="SourceGraphic" in2="BackgroundImageFix" result="shape"/><feGaussianBlur result="effect1_foregroundBlur_28327_1406" stdDeviation=".5"/></filter><filter id="F" width="7.3" height="4.4" x="12.1" y="15.8" color-interpolation-filters="sRGB" filterUnits="userSpaceOnUse"><feFlood flood-opacity="0" result="BackgroundImageFix"/><feBlend in="SourceGraphic" in2="BackgroundImageFix" result="shape"/><feGaussianBlur result="effect1_foregroundBlur_28327_1406" stdDeviation=".5"/></filter><filter id="K" width="1.3" height="1.1" x="17" y="16.8" color-interpolation-filters="sRGB" filterUnits="userSpaceOnUse"><feFlood flood-opacity="0" result="BackgroundImageFix"/><feBlend in="SourceGraphic" in2="BackgroundImageFix" result="shape"/><feGaussianBlur result="effect1_foregroundBlur_28327_1406" stdDeviation=".1"/></filter><filter id="M" width="2.6" height="2.6" x="17.9" y="12.7" color-interpolation-filters="sRGB" filterUnits="userSpaceOnUse"><feFlood flood-opacity="0" result="BackgroundImageFix"/><feBlend in="SourceGraphic" in2="BackgroundImageFix" result="shape"/><feGaussianBlur result="effect1_foregroundBlur_28327_1406" stdDeviation=".5"/></filter><filter id="N" width="2.6" height="2.6" x="12" y="12.9" color-interpolation-filters="sRGB" filterUnits="userSpaceOnUse"><feFlood flood-opacity="0" result="BackgroundImageFix"/><feBlend in="SourceGraphic" in2="BackgroundImageFix" result="shape"/><feGaussianBlur result="effect1_foregroundBlur_28327_1406" stdDeviation=".5"/></filter><radialGradient id="c" cx="0" cy="0" r="1" gradientTransform="matrix(-11.25001 -11.12504 13.27885 -13.42801 10.4 23)" gradientUnits="userSpaceOnUse"><stop offset=".6" stop-color="#F39585" stop-opacity="0"/><stop offset="1" stop-color="#F39585"/></radialGradient><radialGradient id="f" cx="0" cy="0" r="1" gradientTransform="matrix(-5.49997 -6.31252 13.2979 -11.5862 29 20.5)" gradientUnits="userSpaceOnUse"><stop stop-color="#FFDACC" stop-opacity="0"/><stop offset=".4" stop-color="#FFDACC"/><stop offset="1" stop-color="#FFDACC" stop-opacity="0"/></radialGradient><radialGradient id="g" cx="0" cy="0" r="1" gradientTransform="matrix(-10.93739 18.417 -32.63847 -19.38316 24.3 11)" gradientUnits="userSpaceOnUse"><stop stop-color="#A06857"/><stop offset="1" stop-color="#5B3838"/></radialGradient><radialGradient id="i" cx="0" cy="0" r="1" gradientTransform="matrix(0 20.6725 -18.4611 0 16 14.4)" gradientUnits="userSpaceOnUse"><stop offset=".7" stop-color="#FF7AF2" stop-opacity="0"/><stop offset="1" stop-color="#FFBCE6"/></radialGradient><radialGradient id="j" cx="0" cy="0" r="1" gradientTransform="rotate(123.8 9.1 11.2)scale(19.0483)" gradientUnits="userSpaceOnUse"><stop stop-color="#A9705E"/><stop offset="1" stop-color="#A9705E" stop-opacity="0"/></radialGradient><radialGradient id="o" cx="0" cy="0" r="1" gradientTransform="rotate(159.4 11.5 8.5)scale(20.2335 27.146)" gradientUnits="userSpaceOnUse"><stop offset=".8" stop-color="#A55F89" stop-opacity="0"/><stop offset="1" stop-color="#A55F89"/></radialGradient><radialGradient id="p" cx="0" cy="0" r="1" gradientTransform="matrix(-.00069 12.7039 -10.8463 -.00059 16 15.4)" gradientUnits="userSpaceOnUse"><stop offset=".8" stop-color="#EF5CF2" stop-opacity="0"/><stop offset="1" stop-color="#FF63C4"/></radialGradient><radialGradient id="y" cx="0" cy="0" r="1" gradientTransform="matrix(0 -9.07087 17.6698 0 16.7 25.2)" gradientUnits="userSpaceOnUse"><stop stop-color="#EF0084"/><stop offset=".5" stop-color="#89029C"/></radialGradient><radialGradient id="I" cx="0" cy="0" r="1" gradientTransform="rotate(133.2 3.7 12)scale(1.90311 1.14415)" gradientUnits="userSpaceOnUse"><stop stop-color="#3E2739"/><stop offset="1" stop-color="#684E61"/></radialGradient><radialGradient id="J" cx="0" cy="0" r="1" gradientTransform="matrix(-.774 .94202 -1.47397 -1.21107 17.6 17.5)" gradientUnits="userSpaceOnUse"><stop stop-color="#3C2737"/><stop offset="1" stop-color="#684E61"/></radialGradient></defs></svg>