<svg xmlns="http://www.w3.org/2000/svg" width="32" height="32" fill="none"><path fill="url(#a)" d="M21 7a5 5 0 1 1-10 0 5 5 0 0 1 10 0"/><g filter="url(#b)"><path fill="#A5A5A5" d="M26.7 13c-.7-4.5-3-8-10.7-8S5.8 8.5 5 13q-.5 3 1.6 5l-.1-3.6c0-1.8 1-2.5 1.5-2.7h.2q1.5-.7 2.2-2.4l.2-.4q.3-.5.8 0 2.3 3 6 3h6c.3 0 2 .2 2.1 2.6l-.1 3q1.6-1.9 1.3-4.5"/><path fill="url(#c)" d="M26.7 13c-.7-4.5-3-8-10.7-8S5.8 8.5 5 13q-.5 3 1.6 5l-.1-3.6c0-1.8 1-2.5 1.5-2.7h.2q1.5-.7 2.2-2.4l.2-.4q.3-.5.8 0 2.3 3 6 3h6c.3 0 2 .2 2.1 2.6l-.1 3q1.6-1.9 1.3-4.5"/></g><path fill="url(#d)" d="M26.7 13c-.7-4.5-3-8-10.7-8S5.8 8.5 5 13q-.5 3 1.6 5v-3l-.1-.5c0-1.8 1-2.5 1.5-2.7h.2q1.5-.7 2.2-2.4l.2-.4q.3-.5.8 0 2.3 3 6 3h6c.3 0 2 .2 2.1 2.6l-.1 3q1.6-1.9 1.3-4.5"/><path fill="url(#e)" d="M26.7 13c-.7-4.5-3-8-10.7-8S5.8 8.5 5 13q-.5 3 1.6 5v-3l-.1-.5c0-1.8 1-2.5 1.5-2.7h.2q1.5-.7 2.2-2.4l.2-.4q.3-.5.8 0 2.3 3 6 3h6c.3 0 2 .2 2.1 2.6l-.1 3q1.6-1.9 1.3-4.5"/><g filter="url(#f)"><path fill="url(#g)" d="M10.3 19.1a3 3 0 1 1-6 0 3 3 0 0 1 6 0"/></g><g filter="url(#h)"><path fill="#E28527" d="M9.3 19.1a2 2 0 1 1-4 0 2 2 0 0 1 4 0"/><path fill="url(#i)" d="M9.3 19.1a2 2 0 1 1-4 0 2 2 0 0 1 4 0"/></g><g filter="url(#j)"><path fill="url(#k)" d="M28 19a3 3 0 1 1-6 0 3 3 0 0 1 6 0"/></g><g filter="url(#l)"><path fill="#FFCA38" d="M27 19.1a2 2 0 1 1-4 0 2 2 0 0 1 4 0"/><path fill="url(#m)" d="M27 19.1a2 2 0 1 1-4 0 2 2 0 0 1 4 0"/></g><g filter="url(#n)"><path fill="url(#o)" d="M6.5 14.4c0-1.8 1-2.5 1.5-2.7h.2q1.5-.7 2.2-2.4l.2-.4q.3-.5.8 0 2.3 3 6 3h6c.3 0 2 .2 2.1 2.6l-.2 6.7A9 9 0 0 1 16 30a9 9 0 0 1-9.3-8.8z"/><path fill="url(#p)" d="M6.5 14.4c0-1.8 1-2.5 1.5-2.7h.2q1.5-.7 2.2-2.4l.2-.4q.3-.5.8 0 2.3 3 6 3h6c.3 0 2 .2 2.1 2.6l-.2 6.7A9 9 0 0 1 16 30a9 9 0 0 1-9.3-8.8z"/><path fill="url(#q)" d="M6.5 14.4c0-1.8 1-2.5 1.5-2.7h.2q1.5-.7 2.2-2.4l.2-.4q.3-.5.8 0 2.3 3 6 3h6c.3 0 2 .2 2.1 2.6l-.2 6.7A9 9 0 0 1 16 30a9 9 0 0 1-9.3-8.8z"/><path fill="url(#r)" d="M6.5 14.4c0-1.8 1-2.5 1.5-2.7h.2q1.5-.7 2.2-2.4l.2-.4q.3-.5.8 0 2.3 3 6 3h6c.3 0 2 .2 2.1 2.6l-.2 6.7A9 9 0 0 1 16 30a9 9 0 0 1-9.3-8.8z"/></g><path fill="url(#s)" d="M6.5 14.4c0-1.8 1-2.5 1.5-2.7h.2q1.5-.7 2.2-2.4l.2-.4q.3-.5.8 0 2.3 3 6 3h6c.3 0 2 .2 2.1 2.6l-.2 6.7A9 9 0 0 1 16 30a9 9 0 0 1-9.3-8.8z"/><path fill="url(#t)" d="M6.5 14.4c0-1.8 1-2.5 1.5-2.7h.2q1.5-.7 2.2-2.4l.2-.4q.3-.5.8 0 2.3 3 6 3h6c.3 0 2 .2 2.1 2.6l-.2 6.7A9 9 0 0 1 16 30a9 9 0 0 1-9.3-8.8z"/><path fill="url(#u)" d="M6.5 14.4c0-1.8 1-2.5 1.5-2.7h.2q1.5-.7 2.2-2.4l.2-.4q.3-.5.8 0 2.3 3 6 3h6c.3 0 2 .2 2.1 2.6l-.2 6.7A9 9 0 0 1 16 30a9 9 0 0 1-9.3-8.8z"/><path fill="url(#v)" d="M6.5 14.4c0-1.8 1-2.5 1.5-2.7h.2q1.5-.7 2.2-2.4l.2-.4q.3-.5.8 0 2.3 3 6 3h6c.3 0 2 .2 2.1 2.6l-.2 6.7A9 9 0 0 1 16 30a9 9 0 0 1-9.3-8.8z"/><g filter="url(#w)"><path fill="#EB8B29" d="m15.2 19-1 3q-.3 1.1.7 1.3h1.4q1 0 1-1.1l-.8-3.1a.7.7 0 0 0-1.3-.1"/></g><g filter="url(#x)"><path fill="url(#y)" d="m15.3 18.7-1 3.2a1 1 0 0 0 1 1.3h1.4a1 1 0 0 0 1-1.3l-1-3.2c-.2-.7-1.2-.7-1.4 0"/><path fill="url(#z)" d="m15.3 18.7-1 3.2a1 1 0 0 0 1 1.3h1.4a1 1 0 0 0 1-1.3l-1-3.2c-.2-.7-1.2-.7-1.4 0"/><path fill="url(#A)" d="m15.3 18.7-1 3.2a1 1 0 0 0 1 1.3h1.4a1 1 0 0 0 1-1.3l-1-3.2c-.2-.7-1.2-.7-1.4 0"/><path fill="url(#B)" d="m15.3 18.7-1 3.2a1 1 0 0 0 1 1.3h1.4a1 1 0 0 0 1-1.3l-1-3.2c-.2-.7-1.2-.7-1.4 0"/></g><path fill="url(#C)" d="m15.3 18.7-1 3.2a1 1 0 0 0 1 1.3h1.4a1 1 0 0 0 1-1.3l-1-3.2c-.2-.7-1.2-.7-1.4 0"/><path fill="url(#D)" d="m15.3 18.7-1 3.2a1 1 0 0 0 1 1.3h1.4a1 1 0 0 0 1-1.3l-1-3.2c-.2-.7-1.2-.7-1.4 0"/><path fill="#8A004F" stroke="url(#E)" stroke-width=".1" d="M13.4 24H13v.4q1 1.6 3 1.6t3-1.6V24h-.4q-1.2.5-2.6.6t-2.6-.6Z"/><g filter="url(#F)"><path fill="#7B7777" d="m22.9 14.8-.3-.2-.8-.3q-1-.3-2.5-.2a.5.5 0 0 0 .2 1 4 4 0 0 1 2.6.4l.2.1a.5.5 0 0 0 .6-.8"/></g><g filter="url(#G)"><path fill="#7B7777" d="M9.7 15.6a.5.5 0 0 1-.6-.8l.3-.2.8-.3q1-.3 2.5-.2a.5.5 0 0 1-.2 1 4 4 0 0 0-2.6.4z"/></g><g filter="url(#H)"><path fill="#36292E" d="M13.8 18.2c-.5-.8-1-1.6-2.6-1.6a3 3 0 0 0-2.2.8q-.7.6-.1 1.1l.8.6z"/></g><g filter="url(#I)"><path fill="#36292E" d="M18.1 18.2c.5-.8 1-1.6 2.6-1.6q1.4 0 2.3.8.7.6 0 1.1l-.8.6z"/></g><path fill="#fff" d="M11.5 16.6q-2 .1-2.5 2 0 .5.5.6h4.2q.4 0 .4-.5a3 3 0 0 0-2.6-2"/><path fill="url(#J)" d="M12 17.1a1.7 1.7 0 0 0-1.7 2.1h3.2l.1-.4q-.1-1.6-1.7-1.7"/><path fill="#000" d="M12.9 18.8q0-1-1-1a1 1 0 0 0-.8 1.4h1.7z"/><g filter="url(#K)"><path fill="url(#L)" d="M13.5 18.6c0-.6-.5-1-.6-1l-.5.5.3.7z"/></g><g filter="url(#M)" transform="rotate(-28 11.4 17.8)"><ellipse cx="11.4" cy="17.8" fill="#C7A7A3" fill-opacity=".9" rx=".7" ry=".4"/><ellipse cx="11.4" cy="17.8" fill="url(#N)" rx=".7" ry=".4"/></g><path fill="#fff" d="M20.4 16.7q2 .1 2.5 2 0 .5-.5.6h-4.2a.4.4 0 0 1-.4-.5 3 3 0 0 1 2.6-2.1"/><path fill="url(#O)" d="M20 17.2a1.7 1.7 0 0 1 1.6 2h-3.2l-.1-.4q.1-1.5 1.7-1.6"/><path fill="#000" d="M19 18.8q0-.9 1-1a1 1 0 0 1 .8 1.5h-1.7z"/><g filter="url(#P)"><path fill="#C7A7A3" d="M19.8 17.5q.3.3-.4.6-.4.3-.6.2 0-.3.3-.7.5-.3.7 0"/><path fill="url(#Q)" d="M19.8 17.5q.3.3-.4.6-.4.3-.6.2 0-.3.3-.7.5-.3.7 0"/></g><g filter="url(#R)"><path fill="url(#S)" d="M21.5 18.6q-.2-.6-.5-.8l-.5.5.3.4z"/></g><g filter="url(#T)"><path stroke="url(#U)" stroke-linecap="round" stroke-width=".3" d="M9.5 15.2c.3-.3 1.5-.8 3.1-.7"/></g><g filter="url(#V)"><path stroke="url(#W)" stroke-linecap="round" stroke-width=".3" d="M22.6 15.2c-.4-.3-1.6-.8-3.2-.7"/></g><g filter="url(#X)"><path fill="url(#Y)" d="M17.6 11.2a7 7 0 0 1-6.8-4.6c0-.5 2.6-1.4 6.8-1.1 6.3.3 8.1 4.6 8.3 6.9-.4-1.1-1.4-1.2-1.9-1.2z"/></g><g filter="url(#Z)"><path fill="url(#aa)" d="M10.7 7c-.1 1.1-1 4-4.2 4.5 0-1.2 1-4.2 4.2-4.5"/></g><path fill="#FFC31B" fill-rule="evenodd" d="m18.6 20 .6.1q.4.5 1.7.7a.4.4 0 1 1 0 .9q-1.8-.2-2.3-1a.4.4 0 0 1 0-.6" clip-rule="evenodd"/><path fill="#FFA30C" fill-rule="evenodd" d="M13.5 20a.4.4 0 0 0-.7.1q-.3.5-1.6.7a.4.4 0 1 0 0 .9q1.8-.2 2.3-1 .3-.3 0-.6" clip-rule="evenodd"/><defs><radialGradient id="a" cx="0" cy="0" r="1" gradientTransform="matrix(-7.64542 2.8585 -2.41747 -6.46582 18.7 5)" gradientUnits="userSpaceOnUse"><stop offset=".1" stop-color="#C3C3C3"/><stop offset=".9" stop-color="#868381"/></radialGradient><radialGradient id="c" cx="0" cy="0" r="1" gradientTransform="matrix(7.70897 -9.00929 11.38856 9.74484 6.2 15.3)" gradientUnits="userSpaceOnUse"><stop stop-color="#82747B"/><stop offset="1" stop-color="#82747B" stop-opacity="0"/></radialGradient><radialGradient id="d" cx="0" cy="0" r="1" gradientTransform="matrix(-2.73002 0 0 -3.69719 8.3 14.3)" gradientUnits="userSpaceOnUse"><stop offset=".2" stop-color="#6F524D"/><stop offset="1" stop-color="#6F524D" stop-opacity="0"/></radialGradient><radialGradient id="e" cx="0" cy="0" r="1" gradientTransform="matrix(-.64957 -1.8242 .9121 -.32479 11.4 9.4)" gradientUnits="userSpaceOnUse"><stop offset=".2" stop-color="#776169"/><stop offset="1" stop-color="#776169" stop-opacity="0"/></radialGradient><radialGradient id="i" cx="0" cy="0" r="1" gradientTransform="matrix(-1.98962 0 0 -1.9032 7.3 19.1)" gradientUnits="userSpaceOnUse"><stop offset=".4" stop-color="#D67923" stop-opacity="0"/><stop offset="1" stop-color="#D67923"/></radialGradient><radialGradient id="k" cx="0" cy="0" r="1" gradientTransform="rotate(-24.4 57.5 -44.4)scale(5.09754 6.22385)" gradientUnits="userSpaceOnUse"><stop offset=".6" stop-color="#FFC531"/><stop offset=".9" stop-color="#FFE549"/></radialGradient><radialGradient id="m" cx="0" cy="0" r="1" gradientTransform="rotate(-20.3 66.9 -59)scale(2.41654)" gradientUnits="userSpaceOnUse"><stop offset=".7" stop-color="#FFBA25" stop-opacity="0"/><stop offset="1" stop-color="#FFBA25"/></radialGradient><radialGradient id="o" cx="0" cy="0" r="1" gradientTransform="matrix(-10.06253 11.24998 -11.00901 -9.847 22.5 17.2)" gradientUnits="userSpaceOnUse"><stop offset=".2" stop-color="#FFE335"/><stop offset="1" stop-color="#EE9830"/></radialGradient><radialGradient id="p" cx="0" cy="0" r="1" gradientTransform="matrix(0 -2.1875 3.14012 0 20.4 17.3)" gradientUnits="userSpaceOnUse"><stop offset=".1" stop-color="#FFB827"/><stop offset="1" stop-color="#FFB827" stop-opacity="0"/></radialGradient><radialGradient id="q" cx="0" cy="0" r="1" gradientTransform="matrix(0 -2.4375 2.75 0 12 17.3)" gradientUnits="userSpaceOnUse"><stop offset=".3" stop-color="#ED9128"/><stop offset="1" stop-color="#ED9128" stop-opacity="0"/></radialGradient><radialGradient id="r" cx="0" cy="0" r="1" gradientTransform="matrix(.6875 1.78125 -1.94444 .75048 11.6 18.7)" gradientUnits="userSpaceOnUse"><stop stop-color="#FFBA23"/><stop offset="1" stop-color="#FFBA23" stop-opacity="0"/></radialGradient><radialGradient id="s" cx="0" cy="0" r="1" gradientTransform="matrix(-3.99991 13.56256 -19.47614 -5.74396 17.3 16.8)" gradientUnits="userSpaceOnUse"><stop offset=".6" stop-color="#D67766" stop-opacity="0"/><stop offset="1" stop-color="#D67766"/></radialGradient><radialGradient id="t" cx="0" cy="0" r="1" gradientTransform="rotate(100.2 5 20.5)scale(11.3126 2.49146)" gradientUnits="userSpaceOnUse"><stop stop-color="#FFDA40"/><stop offset="1" stop-color="#FFDA40" stop-opacity="0"/></radialGradient><radialGradient id="u" cx="0" cy="0" r="1" gradientTransform="matrix(.9062 1.71878 -1.32598 .6991 10.5 8)" gradientUnits="userSpaceOnUse"><stop stop-color="#8C4B06"/><stop offset="1" stop-color="#8C4B06" stop-opacity="0"/></radialGradient><radialGradient id="v" cx="0" cy="0" r="1" gradientTransform="matrix(3.3125 -3.125 2.10639 2.23277 6.8 10.5)" gradientUnits="userSpaceOnUse"><stop offset=".2" stop-color="#8C4B06"/><stop offset="1" stop-color="#8C4B06" stop-opacity="0"/></radialGradient><radialGradient id="z" cx="0" cy="0" r="1" gradientTransform="matrix(-1.27489 -5.6078 1.55926 -.35448 17.5 21.8)" gradientUnits="userSpaceOnUse"><stop stop-color="#FFE848"/><stop offset="1" stop-color="#FFE848" stop-opacity="0"/></radialGradient><radialGradient id="D" cx="0" cy="0" r="1" gradientTransform="rotate(144.5 4.9 13.2)scale(2.93624 3.93288)" gradientUnits="userSpaceOnUse"><stop offset=".8" stop-color="#E2802F" stop-opacity="0"/><stop offset="1" stop-color="#E2802F"/></radialGradient><radialGradient id="J" cx="0" cy="0" r="1" gradientTransform="matrix(0 1.51264 -2.40602 0 12 18)" gradientUnits="userSpaceOnUse"><stop offset=".8" stop-color="#925C51"/><stop offset="1" stop-color="#694B43"/><stop offset="1" stop-color="#804D49"/><stop offset="1" stop-color="#85534D"/></radialGradient><radialGradient id="N" cx="0" cy="0" r="1" gradientTransform="rotate(-90.9 14.8 3.6)scale(.92124 1.10737)" gradientUnits="userSpaceOnUse"><stop offset=".8" stop-color="#FFE6E2" stop-opacity="0"/><stop offset="1" stop-color="#FFE6E2"/></radialGradient><radialGradient id="O" cx="0" cy="0" r="1" gradientTransform="matrix(0 1.51263 -2.406 0 20 18)" gradientUnits="userSpaceOnUse"><stop offset=".8" stop-color="#925C51"/><stop offset="1" stop-color="#694B43"/><stop offset="1" stop-color="#804D49"/><stop offset="1" stop-color="#85534D"/></radialGradient><radialGradient id="Q" cx="0" cy="0" r="1" gradientTransform="matrix(-.43239 -.5572 .76712 -.5953 19.5 18.2)" gradientUnits="userSpaceOnUse"><stop offset=".8" stop-color="#FFE6E2" stop-opacity="0"/><stop offset="1" stop-color="#FFE6E2"/></radialGradient><filter id="b" width="22.7" height="13.8" x="4.8" y="4.2" color-interpolation-filters="sRGB" filterUnits="userSpaceOnUse"><feFlood flood-opacity="0" result="BackgroundImageFix"/><feBlend in="SourceGraphic" in2="BackgroundImageFix" result="shape"/><feColorMatrix in="SourceAlpha" result="hardAlpha" values="0 0 0 0 0 0 0 0 0 0 0 0 0 0 0 0 0 0 127 0"/><feOffset dx=".8" dy="-.8"/><feGaussianBlur stdDeviation=".6"/><feComposite in2="hardAlpha" k2="-1" k3="1" operator="arithmetic"/><feColorMatrix values="0 0 0 0 0.47451 0 0 0 0 0.45098 0 0 0 0 0.486275 0 0 0 1 0"/><feBlend in2="shape" result="effect1_innerShadow_3987_19566"/></filter><filter id="f" width="6.2" height="6.3" x="4.3" y="16.1" color-interpolation-filters="sRGB" filterUnits="userSpaceOnUse"><feFlood flood-opacity="0" result="BackgroundImageFix"/><feBlend in="SourceGraphic" in2="BackgroundImageFix" result="shape"/><feColorMatrix in="SourceAlpha" result="hardAlpha" values="0 0 0 0 0 0 0 0 0 0 0 0 0 0 0 0 0 0 127 0"/><feOffset dx=".1" dy=".3"/><feGaussianBlur stdDeviation=".3"/><feComposite in2="hardAlpha" k2="-1" k3="1" operator="arithmetic"/><feColorMatrix values="0 0 0 0 0.835294 0 0 0 0 0.627451 0 0 0 0 0.305882 0 0 0 1 0"/><feBlend in2="shape" result="effect1_innerShadow_3987_19566"/></filter><filter id="h" width="5" height="5" x="4.8" y="16.6" color-interpolation-filters="sRGB" filterUnits="userSpaceOnUse"><feFlood flood-opacity="0" result="BackgroundImageFix"/><feBlend in="SourceGraphic" in2="BackgroundImageFix" result="shape"/><feGaussianBlur result="effect1_foregroundBlur_3987_19566" stdDeviation=".3"/></filter><filter id="j" width="6" height="6.3" x="22" y="15.8" color-interpolation-filters="sRGB" filterUnits="userSpaceOnUse"><feFlood flood-opacity="0" result="BackgroundImageFix"/><feBlend in="SourceGraphic" in2="BackgroundImageFix" result="shape"/><feColorMatrix in="SourceAlpha" result="hardAlpha" values="0 0 0 0 0 0 0 0 0 0 0 0 0 0 0 0 0 0 127 0"/><feOffset dy="-.3"/><feGaussianBlur stdDeviation=".3"/><feComposite in2="hardAlpha" k2="-1" k3="1" operator="arithmetic"/><feColorMatrix values="0 0 0 0 0.937255 0 0 0 0 0.576471 0 0 0 0 0.341176 0 0 0 1 0"/><feBlend in2="shape" result="effect1_innerShadow_3987_19566"/></filter><filter id="l" width="5" height="5" x="22.5" y="16.6" color-interpolation-filters="sRGB" filterUnits="userSpaceOnUse"><feFlood flood-opacity="0" result="BackgroundImageFix"/><feBlend in="SourceGraphic" in2="BackgroundImageFix" result="shape"/><feGaussianBlur result="effect1_foregroundBlur_3987_19566" stdDeviation=".3"/></filter><filter id="n" width="19.5" height="21.8" x="6.5" y="8.6" color-interpolation-filters="sRGB" filterUnits="userSpaceOnUse"><feFlood flood-opacity="0" result="BackgroundImageFix"/><feBlend in="SourceGraphic" in2="BackgroundImageFix" result="shape"/><feColorMatrix in="SourceAlpha" result="hardAlpha" values="0 0 0 0 0 0 0 0 0 0 0 0 0 0 0 0 0 0 127 0"/><feOffset dx=".5"/><feGaussianBlur stdDeviation=".5"/><feComposite in2="hardAlpha" k2="-1" k3="1" operator="arithmetic"/><feColorMatrix values="0 0 0 0 0.835294 0 0 0 0 0.619608 0 0 0 0 0.286275 0 0 0 1 0"/><feBlend in2="shape" result="effect1_innerShadow_3987_19566"/><feColorMatrix in="SourceAlpha" result="hardAlpha" values="0 0 0 0 0 0 0 0 0 0 0 0 0 0 0 0 0 0 127 0"/><feOffset dy=".5"/><feGaussianBlur stdDeviation=".8"/><feComposite in2="hardAlpha" k2="-1" k3="1" operator="arithmetic"/><feColorMatrix values="0 0 0 0 0.823529 0 0 0 0 0.501961 0 0 0 0 0.129412 0 0 0 1 0"/><feBlend in2="effect1_innerShadow_3987_19566" result="effect2_innerShadow_3987_19566"/></filter><filter id="w" width="4.2" height="5.9" x="13.6" y="18" color-interpolation-filters="sRGB" filterUnits="userSpaceOnUse"><feFlood flood-opacity="0" result="BackgroundImageFix"/><feBlend in="SourceGraphic" in2="BackgroundImageFix" result="shape"/><feGaussianBlur result="effect1_foregroundBlur_3987_19566" stdDeviation=".3"/></filter><filter id="x" width="4" height="5.5" x="14" y="18" color-interpolation-filters="sRGB" filterUnits="userSpaceOnUse"><feFlood flood-opacity="0" result="BackgroundImageFix"/><feBlend in="SourceGraphic" in2="BackgroundImageFix" result="shape"/><feGaussianBlur result="effect1_foregroundBlur_3987_19566" stdDeviation=".1"/></filter><filter id="F" width="4.4" height="1.8" x="18.9" y="13.9" color-interpolation-filters="sRGB" filterUnits="userSpaceOnUse"><feFlood flood-opacity="0" result="BackgroundImageFix"/><feBlend in="SourceGraphic" in2="BackgroundImageFix" result="shape"/><feColorMatrix in="SourceAlpha" result="hardAlpha" values="0 0 0 0 0 0 0 0 0 0 0 0 0 0 0 0 0 0 127 0"/><feOffset dx=".1" dy="-.1"/><feGaussianBlur stdDeviation=".1"/><feComposite in2="hardAlpha" k2="-1" k3="1" operator="arithmetic"/><feColorMatrix values="0 0 0 0 0.443137 0 0 0 0 0.368627 0 0 0 0 0.415686 0 0 0 1 0"/><feBlend in2="shape" result="effect1_innerShadow_3987_19566"/></filter><filter id="G" width="4.4" height="1.8" x="8.9" y="13.9" color-interpolation-filters="sRGB" filterUnits="userSpaceOnUse"><feFlood flood-opacity="0" result="BackgroundImageFix"/><feBlend in="SourceGraphic" in2="BackgroundImageFix" result="shape"/><feColorMatrix in="SourceAlpha" result="hardAlpha" values="0 0 0 0 0 0 0 0 0 0 0 0 0 0 0 0 0 0 127 0"/><feOffset dx=".1" dy="-.1"/><feGaussianBlur stdDeviation=".1"/><feComposite in2="hardAlpha" k2="-1" k3="1" operator="arithmetic"/><feColorMatrix values="0 0 0 0 0.443137 0 0 0 0 0.368627 0 0 0 0 0.415686 0 0 0 1 0"/><feBlend in2="shape" result="effect1_innerShadow_3987_19566"/></filter><filter id="H" width="5.4" height="2.5" x="8.6" y="16.6" color-interpolation-filters="sRGB" filterUnits="userSpaceOnUse"><feFlood flood-opacity="0" result="BackgroundImageFix"/><feBlend in="SourceGraphic" in2="BackgroundImageFix" result="shape"/><feColorMatrix in="SourceAlpha" result="hardAlpha" values="0 0 0 0 0 0 0 0 0 0 0 0 0 0 0 0 0 0 127 0"/><feOffset dx=".2"/><feGaussianBlur stdDeviation=".1"/><feComposite in2="hardAlpha" k2="-1" k3="1" operator="arithmetic"/><feColorMatrix values="0 0 0 0 0.133333 0 0 0 0 0.0784314 0 0 0 0 0.168627 0 0 0 1 0"/><feBlend in2="shape" result="effect1_innerShadow_3987_19566"/></filter><filter id="I" width="5.4" height="2.5" x="18.1" y="16.6" color-interpolation-filters="sRGB" filterUnits="userSpaceOnUse"><feFlood flood-opacity="0" result="BackgroundImageFix"/><feBlend in="SourceGraphic" in2="BackgroundImageFix" result="shape"/><feColorMatrix in="SourceAlpha" result="hardAlpha" values="0 0 0 0 0 0 0 0 0 0 0 0 0 0 0 0 0 0 127 0"/><feOffset dx=".2"/><feGaussianBlur stdDeviation=".1"/><feComposite in2="hardAlpha" k2="-1" k3="1" operator="arithmetic"/><feColorMatrix values="0 0 0 0 0.133333 0 0 0 0 0.0784314 0 0 0 0 0.168627 0 0 0 1 0"/><feBlend in2="shape" result="effect1_innerShadow_3987_19566"/></filter><filter id="K" width="1.5" height="1.6" x="12.2" y="17.4" color-interpolation-filters="sRGB" filterUnits="userSpaceOnUse"><feFlood flood-opacity="0" result="BackgroundImageFix"/><feBlend in="SourceGraphic" in2="BackgroundImageFix" result="shape"/><feGaussianBlur result="effect1_foregroundBlur_3987_19566" stdDeviation=".1"/></filter><filter id="M" width="1.5" height="1.1" x="10.7" y="17.3" color-interpolation-filters="sRGB" filterUnits="userSpaceOnUse"><feFlood flood-opacity="0" result="BackgroundImageFix"/><feBlend in="SourceGraphic" in2="BackgroundImageFix" result="shape"/><feGaussianBlur result="effect1_foregroundBlur_3987_19566" stdDeviation=".1"/></filter><filter id="P" width="1.3" height="1.1" x="18.7" y="17.3" color-interpolation-filters="sRGB" filterUnits="userSpaceOnUse"><feFlood flood-opacity="0" result="BackgroundImageFix"/><feBlend in="SourceGraphic" in2="BackgroundImageFix" result="shape"/><feGaussianBlur result="effect1_foregroundBlur_3987_19566" stdDeviation=".1"/></filter><filter id="R" width="1.3" height="1.4" x="20.3" y="17.6" color-interpolation-filters="sRGB" filterUnits="userSpaceOnUse"><feFlood flood-opacity="0" result="BackgroundImageFix"/><feBlend in="SourceGraphic" in2="BackgroundImageFix" result="shape"/><feGaussianBlur result="effect1_foregroundBlur_3987_19566" stdDeviation=".1"/></filter><filter id="T" width="3.9" height="1.4" x="9.1" y="14.1" color-interpolation-filters="sRGB" filterUnits="userSpaceOnUse"><feFlood flood-opacity="0" result="BackgroundImageFix"/><feBlend in="SourceGraphic" in2="BackgroundImageFix" result="shape"/><feGaussianBlur result="effect1_foregroundBlur_3987_19566" stdDeviation=".1"/></filter><filter id="V" width="3.9" height="1.4" x="19.1" y="14.1" color-interpolation-filters="sRGB" filterUnits="userSpaceOnUse"><feFlood flood-opacity="0" result="BackgroundImageFix"/><feBlend in="SourceGraphic" in2="BackgroundImageFix" result="shape"/><feGaussianBlur result="effect1_foregroundBlur_3987_19566" stdDeviation=".1"/></filter><filter id="X" width="17.6" height="9.5" x="9.6" y="4.2" color-interpolation-filters="sRGB" filterUnits="userSpaceOnUse"><feFlood flood-opacity="0" result="BackgroundImageFix"/><feBlend in="SourceGraphic" in2="BackgroundImageFix" result="shape"/><feGaussianBlur result="effect1_foregroundBlur_3987_19566" stdDeviation=".6"/></filter><filter id="Z" width="6.6" height="7" x="5.3" y="5.8" color-interpolation-filters="sRGB" filterUnits="userSpaceOnUse"><feFlood flood-opacity="0" result="BackgroundImageFix"/><feBlend in="SourceGraphic" in2="BackgroundImageFix" result="shape"/><feGaussianBlur result="effect1_foregroundBlur_3987_19566" stdDeviation=".6"/></filter><linearGradient id="g" x1="4.3" x2="9.8" y1="19.3" y2="19.3" gradientUnits="userSpaceOnUse"><stop stop-color="#E79B27"/><stop offset="1" stop-color="#B96201"/></linearGradient><linearGradient id="y" x1="16" x2="16" y1="23.2" y2="18.2" gradientUnits="userSpaceOnUse"><stop stop-color="#FFC134"/><stop offset="1" stop-color="#F8C73F"/></linearGradient><linearGradient id="A" x1="14" x2="15.6" y1="21.8" y2="22" gradientUnits="userSpaceOnUse"><stop stop-color="#F8A322"/><stop offset="1" stop-color="#F8A322" stop-opacity="0"/></linearGradient><linearGradient id="B" x1="16" x2="16" y1="23.4" y2="22.3" gradientUnits="userSpaceOnUse"><stop stop-color="#E48538"/><stop offset="1" stop-color="#E48538" stop-opacity="0"/></linearGradient><linearGradient id="C" x1="16.1" x2="16.1" y1="23.3" y2="23.1" gradientUnits="userSpaceOnUse"><stop stop-color="#E2802F"/><stop offset="1" stop-color="#E2802F" stop-opacity="0"/></linearGradient><linearGradient id="E" x1="14.7" x2="15.5" y1="25.8" y2="24.3" gradientUnits="userSpaceOnUse"><stop stop-color="#FEAC35"/><stop offset="1" stop-color="#FEAC35" stop-opacity="0"/></linearGradient><linearGradient id="L" x1="13.3" x2="12.7" y1="18.1" y2="18.5" gradientUnits="userSpaceOnUse"><stop stop-color="#B4948D"/><stop offset="1" stop-color="#B4948D" stop-opacity="0"/></linearGradient><linearGradient id="S" x1="21.4" x2="20.8" y1="18.2" y2="18.5" gradientUnits="userSpaceOnUse"><stop stop-color="#B4948D"/><stop offset="1" stop-color="#B4948D" stop-opacity="0"/></linearGradient><linearGradient id="U" x1="8.6" x2="12" y1="15.4" y2="14.2" gradientUnits="userSpaceOnUse"><stop stop-color="#959092" stop-opacity="0"/><stop offset="1" stop-color="#959092"/></linearGradient><linearGradient id="W" x1="18.1" x2="22.3" y1="14.4" y2="15" gradientUnits="userSpaceOnUse"><stop stop-color="#959092" stop-opacity="0"/><stop offset="1" stop-color="#959092"/></linearGradient><linearGradient id="Y" x1="22.6" x2="12.5" y1="9.5" y2="5" gradientUnits="userSpaceOnUse"><stop stop-color="#BBB9BC"/><stop offset="1" stop-color="#BBB9BC" stop-opacity="0"/></linearGradient><linearGradient id="aa" x1="10.3" x2="10" y1="7.5" y2="10.3" gradientUnits="userSpaceOnUse"><stop stop-color="#BBB9BC"/><stop offset="1" stop-color="#BBB9BC" stop-opacity="0"/></linearGradient></defs></svg>