<svg xmlns="http://www.w3.org/2000/svg" width="32" height="32" fill="none"><path fill="url(#a)" d="M3.5 29.5c0-6 4.9-10.7 10.9-10.7s10.8 4.8 10.8 10.7v.5H3.5z"/><path fill="url(#b)" d="M3.5 29.5c0-6 4.9-10.7 10.9-10.7s10.8 4.8 10.8 10.7v.5H3.5z"/><path fill="url(#c)" d="M3.5 29.5c0-6 4.9-10.7 10.9-10.7s10.8 4.8 10.8 10.7v.5H3.5z"/><path fill="url(#d)" d="M3.5 29.5c0-6 4.9-10.7 10.9-10.7s10.8 4.8 10.8 10.7v.5H3.5z"/><path fill="url(#e)" d="M21.5 30h3.7v-.5q-.1-5-3.7-8z"/><path fill="url(#f)" d="M21.5 30h3.7v-.5q-.1-5-3.7-8z"/><path fill="#FF4F19" d="M7.2 21.4q-3.5 3.1-3.7 8.1v.5h3.7z"/><path fill="url(#g)" d="M7.2 21.4q-3.5 3.1-3.7 8.1v.5h3.7z"/><path fill="url(#h)" d="M7.2 21.4q-3.5 3.1-3.7 8.1v.5h3.7z"/><path fill="#FFAA16" d="M12.5 18.6h4V20q-.2 1.6-2 1.8c-1 0-2-.7-2-1.8z"/><path fill="url(#i)" d="M12.5 18.6h4V20q-.2 1.6-2 1.8c-1 0-2-.7-2-1.8z"/><path fill="url(#j)" d="M12.5 18.6h4V20q-.2 1.6-2 1.8c-1 0-2-.7-2-1.8z"/><path fill="url(#k)" d="M19.4 15.2q.6 0 1-.4v1q-.1 1.4-1.4 2l.3-1.2z"/><path fill="url(#l)" d="M19.4 15.2q.6 0 1-.4v1q-.1 1.4-1.4 2l.3-1.2z"/><path fill="url(#m)" d="M9.6 15.2q-.6 0-1-.4v1q.1 1.4 1.4 2-.3-.4-.3-1.2z"/><path fill="url(#n)" d="M9.6 15.2q-.6 0-1-.4v1q.1 1.4 1.4 2-.3-.4-.3-1.2z"/><g filter="url(#o)"><path fill="url(#p)" d="M9.6 16.7a4 4 0 0 0 4 3.4h1.8a4 4 0 0 0 4-3.4l.3-5.7q-.1-1.3-1.4-1.5H17q-1.6 0-2.2-1.4l-.7-.5h-1.3a3.4 3.4 0 0 0-3.3 3.5z"/></g><path fill="url(#q)" d="M9.6 16.7a4 4 0 0 0 4 3.4h1.8a4 4 0 0 0 4-3.4l.3-5.7q-.1-1.3-1.4-1.5H17q-1.6 0-2.2-1.4l-.7-.5h-1.3a3.4 3.4 0 0 0-3.3 3.5z"/><path fill="url(#r)" d="M9.6 16.7a4 4 0 0 0 4 3.4h1.8a4 4 0 0 0 4-3.4l.3-5.7q-.1-1.3-1.4-1.5H17q-1.6 0-2.2-1.4l-.7-.5h-1.3a3.4 3.4 0 0 0-3.3 3.5z"/><path fill="url(#s)" d="M9.6 16.7a4 4 0 0 0 4 3.4h1.8a4 4 0 0 0 4-3.4l.3-5.7q-.1-1.3-1.4-1.5H17q-1.6 0-2.2-1.4l-.7-.5h-1.3a3.4 3.4 0 0 0-3.3 3.5z"/><path fill="url(#t)" d="M9.6 16.7a4 4 0 0 0 4 3.4h1.8a4 4 0 0 0 4-3.4l.3-5.7q-.1-1.3-1.4-1.5H17q-1.6 0-2.2-1.4l-.7-.5h-1.3a3.4 3.4 0 0 0-3.3 3.5z"/><g filter="url(#u)"><path fill="#EE9020" d="m14 13.4-.6 1.8q-.2.7.5.8h.8q.6-.1.5-.8l-.5-1.8q-.3-.6-.7 0"/></g><g filter="url(#v)"><path fill="url(#w)" d="m14.1 13.2-.5 1.8q-.1.7.5.8h.8q.6-.1.5-.8l-.5-1.8c-.1-.4-.7-.4-.8 0"/><path fill="url(#x)" d="m14.1 13.2-.5 1.8q-.1.7.5.8h.8q.6-.1.5-.8l-.5-1.8c-.1-.4-.7-.4-.8 0"/><path fill="url(#y)" d="m14.1 13.2-.5 1.8q-.1.7.5.8h.8q.6-.1.5-.8l-.5-1.8c-.1-.4-.7-.4-.8 0"/><path fill="url(#z)" d="m14.1 13.2-.5 1.8q-.1.7.5.8h.8q.6-.1.5-.8l-.5-1.8c-.1-.4-.7-.4-.8 0"/></g><g filter="url(#A)"><path stroke="url(#B)" stroke-width=".1" d="M13.1 16.4h-.3v.3a2 2 0 0 0 3.4 0v-.2h-.3l-1.4.2z"/></g><path fill="url(#C)" d="m14.5 16.8-1.4-.3q-.3 0-.2.2.6.8 1.6.9a2 2 0 0 0 1.6-.9q0-.2-.2-.2z"/><g filter="url(#D)"><path fill="url(#E)" d="M19.4 7.2q.8.2 1.3 1 .7 1.4-.1 2.6-.3.4-.3.9v1.2q-.3-.3-.7-.3l.1-1.6q-.1-1.3-1.4-1.5H17q-1.6 0-2.2-1.4l-.7-.5h-1.3a3.4 3.4 0 0 0-3.3 3.5v1.5q-.4 0-.7.3v-1.2q0-.5-.3-1-.8-1-.2-2.4.5-1 1.4-1.1.8-.3 1.4-1.2a2.4 2.4 0 0 1 2.9-.9q.6.3 1.2 0l1-.2q1.2 0 2 1.2.4.8 1.3 1"/><path fill="url(#F)" d="M19.4 7.2q.8.2 1.3 1 .7 1.4-.1 2.6-.3.4-.3.9v1.2q-.3-.3-.7-.3l.1-1.6q-.1-1.3-1.4-1.5H17q-1.6 0-2.2-1.4l-.7-.5h-1.3a3.4 3.4 0 0 0-3.3 3.5v1.5q-.4 0-.7.3v-1.2q0-.5-.3-1-.8-1-.2-2.4.5-1 1.4-1.1.8-.3 1.4-1.2a2.4 2.4 0 0 1 2.9-.9q.6.3 1.2 0l1-.2q1.2 0 2 1.2.4.8 1.3 1"/><path fill="url(#G)" d="M19.4 7.2q.8.2 1.3 1 .7 1.4-.1 2.6-.3.4-.3.9v1.2q-.3-.3-.7-.3l.1-1.6q-.1-1.3-1.4-1.5H17q-1.6 0-2.2-1.4l-.7-.5h-1.3a3.4 3.4 0 0 0-3.3 3.5v1.5q-.4 0-.7.3v-1.2q0-.5-.3-1-.8-1-.2-2.4.5-1 1.4-1.1.8-.3 1.4-1.2a2.4 2.4 0 0 1 2.9-.9q.6.3 1.2 0l1-.2q1.2 0 2 1.2.4.8 1.3 1"/><path fill="url(#H)" d="M19.4 7.2q.8.2 1.3 1 .7 1.4-.1 2.6-.3.4-.3.9v1.2q-.3-.3-.7-.3l.1-1.6q-.1-1.3-1.4-1.5H17q-1.6 0-2.2-1.4l-.7-.5h-1.3a3.4 3.4 0 0 0-3.3 3.5v1.5q-.4 0-.7.3v-1.2q0-.5-.3-1-.8-1-.2-2.4.5-1 1.4-1.1.8-.3 1.4-1.2a2.4 2.4 0 0 1 2.9-.9q.6.3 1.2 0l1-.2q1.2 0 2 1.2.4.8 1.3 1"/><path fill="url(#I)" d="M19.4 7.2q.8.2 1.3 1 .7 1.4-.1 2.6-.3.4-.3.9v1.2q-.3-.3-.7-.3l.1-1.6q-.1-1.3-1.4-1.5H17q-1.6 0-2.2-1.4l-.7-.5h-1.3a3.4 3.4 0 0 0-3.3 3.5v1.5q-.4 0-.7.3v-1.2q0-.5-.3-1-.8-1-.2-2.4.5-1 1.4-1.1.8-.3 1.4-1.2a2.4 2.4 0 0 1 2.9-.9q.6.3 1.2 0l1-.2q1.2 0 2 1.2.4.8 1.3 1"/></g><g filter="url(#J)"><path fill="#C05029" d="m18.3 10.9-.7-.4q-.4-.2-1.3-.1a.3.3 0 0 0 .1.6h1q.3 0 .5.3a.3.3 0 0 0 .4-.4"/></g><g filter="url(#K)"><path fill="#C05029" d="m11 10.8.4-.2q.6-.3 1.4-.2a.3.3 0 1 1 0 .6 2 2 0 0 0-1.6.3.3.3 0 0 1-.3-.4z"/></g><g filter="url(#L)"><path fill="url(#M)" d="m14.7 8.2-.7-.5h-1.3a3.4 3.4 0 0 0-3.3 3.5v.2q-.7-.3-.8-1.7c0-1 .8-1.6 1.3-2l.3-.2.1-.1A4 4 0 0 1 14 5.8q.8 0 .8.9z"/><path fill="url(#N)" d="m14.7 8.2-.7-.5h-1.3a3.4 3.4 0 0 0-3.3 3.5v.2q-.7-.3-.8-1.7c0-1 .8-1.6 1.3-2l.3-.2.1-.1A4 4 0 0 1 14 5.8q.8 0 .8.9z"/></g><g filter="url(#O)"><path fill="url(#P)" d="M19.8 11.6V11q-.1-1.3-1.5-1.5H17q-1.4 0-2.2-1.2v-.4c-.3-1 .6-1.7 1.6-1.6q1.6.3 3 1.1a2.7 2.7 0 0 1 .5 4.2"/><path fill="url(#Q)" d="M19.8 11.6V11q-.1-1.3-1.5-1.5H17q-1.4 0-2.2-1.2v-.4c-.3-1 .6-1.7 1.6-1.6q1.6.3 3 1.1a2.7 2.7 0 0 1 .5 4.2"/><path fill="url(#R)" d="M19.8 11.6V11q-.1-1.3-1.5-1.5H17q-1.4 0-2.2-1.2v-.4c-.3-1 .6-1.7 1.6-1.6q1.6.3 3 1.1a2.7 2.7 0 0 1 .5 4.2"/><path fill="url(#S)" d="M19.8 11.6V11q-.1-1.3-1.5-1.5H17q-1.4 0-2.2-1.2v-.4c-.3-1 .6-1.7 1.6-1.6q1.6.3 3 1.1a2.7 2.7 0 0 1 .5 4.2"/><path fill="url(#T)" d="M19.8 11.6V11q-.1-1.3-1.5-1.5H17q-1.4 0-2.2-1.2v-.4c-.3-1 .6-1.7 1.6-1.6q1.6.3 3 1.1a2.7 2.7 0 0 1 .5 4.2"/></g><path fill="#fff" d="M17 12.2q1 .1 1.3 1 0 .4-.3.4h-2.2a.2.2 0 0 1-.3-.3q.3-1 1.4-1.1"/><path fill="url(#U)" d="M16.7 12.5a1 1 0 0 1 .9 1.1h-1.8v-.2q0-.9.9-1"/><path fill="#000" d="M16.2 13.4q0-.5.5-.5a.5.5 0 0 1 .5.7h-1z"/><g filter="url(#V)"><path fill="#C7A7A3" d="m16.6 12.7-.2.3h-.3l.1-.3z"/><path fill="url(#W)" d="m16.6 12.7-.2.3h-.3l.1-.3z"/></g><g filter="url(#X)"><path fill="url(#Y)" d="m17.5 13.3-.2-.5-.3.3.1.2z"/></g><path fill="#fff" d="M12 12.2q-1 .1-1.3 1 0 .4.3.4h2.2q.3 0 .3-.3-.3-1-1.4-1.1"/><path fill="url(#Z)" d="M12.3 12.5a1 1 0 0 0-.9 1.1h1.8v-.2a1 1 0 0 0-1-1"/><path fill="#000" d="M12.8 13.4q0-.5-.5-.5a.5.5 0 0 0-.5.7h1z"/><g filter="url(#aa)"><path fill="url(#ab)" d="M13.1 13.3q0-.5-.3-.6l-.3.3.2.4z"/></g><g filter="url(#ac)" transform="rotate(-28 12 12.9)"><ellipse cx="12" cy="12.9" fill="#C7A7A3" fill-opacity=".9" rx=".4" ry=".2"/><ellipse cx="12" cy="12.9" fill="url(#ad)" rx=".4" ry=".2"/></g><path fill="url(#ae)" d="m19.5 15.2.2-3.2a1.6 1.6 0 0 1-.2 3.2"/><path fill="url(#af)" d="m19.5 15.2.2-3.2a1.6 1.6 0 0 1-.2 3.2"/><path fill="url(#ag)" d="m19.5 15.2.2-3.2a1.6 1.6 0 0 1-.2 3.2"/><path fill="url(#ah)" d="M9.4 12a1.6 1.6 0 0 0 .1 3.2z"/><path fill="url(#ai)" d="M9.4 12a1.6 1.6 0 0 0 .1 3.2z"/><g filter="url(#aj)"><path fill="#DD8224" d="M9.4 12.7a1 1 0 0 0 0 1.9z"/></g><g filter="url(#ak)"><path fill="#FFC837" d="m19.5 14.6.1-2a1 1 0 0 1 0 2"/></g><g filter="url(#al)"><path stroke="#C96953" stroke-linecap="round" stroke-width=".3" d="M11 11c.3-.1 1-.5 1.7-.3"/></g><g filter="url(#am)"><path stroke="#C96953" stroke-linecap="round" stroke-width=".3" d="M18.1 11q-.6-.4-1.7-.4"/></g><g filter="url(#an)"><path fill="url(#ao)" d="M18.6 9.3c3.5-.4 4.7-2 5-2.9v-1q-.4-.4-.7.1-.6 1.3-2 1.5-1.2.3-3-.4-1.4-.7-2.2-.4c-.6.2-1.2.8-.8 1.8s1.1 1.6 3.7 1.3"/><path fill="url(#ap)" d="M18.6 9.3c3.5-.4 4.7-2 5-2.9v-1q-.4-.4-.7.1-.6 1.3-2 1.5-1.2.3-3-.4-1.4-.7-2.2-.4c-.6.2-1.2.8-.8 1.8s1.1 1.6 3.7 1.3"/><path fill="url(#aq)" d="M18.6 9.3c3.5-.4 4.7-2 5-2.9v-1q-.4-.4-.7.1-.6 1.3-2 1.5-1.2.3-3-.4-1.4-.7-2.2-.4c-.6.2-1.2.8-.8 1.8s1.1 1.6 3.7 1.3"/><path fill="url(#ar)" d="M18.6 9.3c3.5-.4 4.7-2 5-2.9v-1q-.4-.4-.7.1-.6 1.3-2 1.5-1.2.3-3-.4-1.4-.7-2.2-.4c-.6.2-1.2.8-.8 1.8s1.1 1.6 3.7 1.3"/><path fill="url(#as)" d="M18.6 9.3c3.5-.4 4.7-2 5-2.9v-1q-.4-.4-.7.1-.6 1.3-2 1.5-1.2.3-3-.4-1.4-.7-2.2-.4c-.6.2-1.2.8-.8 1.8s1.1 1.6 3.7 1.3"/></g><path fill="url(#at)" d="M18.6 9.3c3.5-.4 4.7-2 5-2.9v-1q-.4-.4-.7.1-.6 1.3-2 1.5-1.2.3-3-.4-1.4-.7-2.2-.4c-.6.2-1.2.8-.8 1.8s1.1 1.6 3.7 1.3"/><path fill="url(#au)" d="M24.4 3.3 23 8l1.2.3 1.1-3.7q.2-1-.8-1.4"/><path fill="url(#av)" d="M24.4 3.3 23 8l1.2.3 1.1-3.7q.2-1-.8-1.4"/><path fill="url(#aw)" d="m19.8 5.8 5.4 1.6-.3 1.2-4.4-1.3q-1-.3-.7-1.4"/><path fill="url(#ax)" d="m19.8 5.8 5.4 1.6-.3 1.2-4.4-1.3q-1-.3-.7-1.4"/><g filter="url(#ay)"><circle cx="23.8" cy="7.6" r=".3" fill="url(#az)"/><circle cx="23.8" cy="7.6" r=".3" fill="url(#aA)"/><circle cx="23.8" cy="7.6" r=".3" fill="url(#aB)"/></g><g filter="url(#aC)"><path fill="url(#aD)" fill-rule="evenodd" d="m23.1 8-.1.1-.1.4-.2.1a1.8 1.8 0 1 0 1.5.5v-.7zm.7 2.4a.8.8 0 1 1-1.6 0 .8.8 0 0 1 1.6 0" clip-rule="evenodd"/></g><path fill="url(#aE)" fill-rule="evenodd" d="m23.1 8-.1.1-.1.4-.2.1a1.8 1.8 0 1 0 1.5.5v-.7zm.7 2.4a.8.8 0 1 1-1.6 0 .8.8 0 0 1 1.6 0" clip-rule="evenodd"/><g filter="url(#aF)"><path fill="url(#aG)" fill-rule="evenodd" d="m24.5 7.3.2-.1h.5a1.8 1.8 0 1 1-.4 1.5l-.1-.1-.4-.1v-.1zM26.2 9a.8.8 0 1 0 .9-1.4.8.8 0 0 0-.9 1.4" clip-rule="evenodd"/></g><g filter="url(#aH)"><circle cx="26.6" cy="8.4" r="1.7" stroke="url(#aI)" stroke-width=".1"/></g><g filter="url(#aJ)"><circle cx="26.6" cy="8.4" r="1.1" stroke="url(#aK)" stroke-width=".1"/></g><g filter="url(#aL)"><circle cx="23" cy="10.4" r="1.1" stroke="url(#aM)" stroke-width=".1"/></g><g filter="url(#aN)"><circle cx="23" cy="10.4" r="1.7" stroke="url(#aO)" stroke-width=".1"/></g><defs><radialGradient id="a" cx="0" cy="0" r="1" gradientTransform="matrix(-13.55292 6.58094 -7.57685 -15.6039 21.8 23.4)" gradientUnits="userSpaceOnUse"><stop stop-color="#FF702C"/><stop offset="1" stop-color="#FF521F"/></radialGradient><radialGradient id="b" cx="0" cy="0" r="1" gradientTransform="matrix(-7.90627 -10.81244 15.55864 -11.37678 17.4 30.5)" gradientUnits="userSpaceOnUse"><stop offset=".9" stop-color="#E65D38" stop-opacity="0"/><stop offset="1" stop-color="#E65D38"/></radialGradient><radialGradient id="c" cx="0" cy="0" r="1" gradientTransform="matrix(-10.23463 3.91089 -1.18367 -3.09762 12.6 19)" gradientUnits="userSpaceOnUse"><stop offset=".2" stop-color="#E73F04"/><stop offset="1" stop-color="#FF5915" stop-opacity="0"/></radialGradient><radialGradient id="d" cx="0" cy="0" r="1" gradientTransform="matrix(-2.6713 0 0 -14.1675 21.5 30)" gradientUnits="userSpaceOnUse"><stop offset=".1" stop-color="#FF7543"/><stop offset="1" stop-color="#FF7543" stop-opacity="0"/></radialGradient><radialGradient id="e" cx="0" cy="0" r="1" gradientTransform="matrix(3.25185 0 0 9.13279 21.5 29.2)" gradientUnits="userSpaceOnUse"><stop offset=".6" stop-color="#FF7646"/><stop offset="1" stop-color="#FF6635"/></radialGradient><radialGradient id="f" cx="0" cy="0" r="1" gradientTransform="matrix(.87006 0 0 11.9715 21.5 30)" gradientUnits="userSpaceOnUse"><stop stop-color="#FF5130"/><stop offset="1" stop-color="#FF5130" stop-opacity="0"/></radialGradient><radialGradient id="g" cx="0" cy="0" r="1" gradientTransform="matrix(-3.70862 0 0 -8.85437 7.2 30)" gradientUnits="userSpaceOnUse"><stop offset=".6" stop-color="#E36750" stop-opacity="0"/><stop offset="1" stop-color="#E36750"/></radialGradient><radialGradient id="h" cx="0" cy="0" r="1" gradientTransform="matrix(-.8463 0 0 -10.457 7.2 30)" gradientUnits="userSpaceOnUse"><stop offset=".1" stop-color="#FF6640"/><stop offset="1" stop-color="#FF6640" stop-opacity="0"/></radialGradient><radialGradient id="i" cx="0" cy="0" r="1" gradientTransform="matrix(.5625 1.75 -3.03541 .97567 13.6 19.6)" gradientUnits="userSpaceOnUse"><stop offset=".2" stop-color="#EA7908"/><stop offset="1" stop-color="#EA7908" stop-opacity="0"/></radialGradient><radialGradient id="j" cx="0" cy="0" r="1" gradientTransform="rotate(139.6 4.3 13.6)scale(2.48229 1.07513)" gradientUnits="userSpaceOnUse"><stop offset=".3" stop-color="#FFC328"/><stop offset="1" stop-color="#FFC328" stop-opacity="0"/></radialGradient><radialGradient id="k" cx="0" cy="0" r="1" gradientTransform="matrix(-.88352 3.77609 -4.4857 -1.04955 20.1 14.8)" gradientUnits="userSpaceOnUse"><stop offset="0" stop-color="#FFC135"/><stop offset="1" stop-color="#E26839"/></radialGradient><radialGradient id="l" cx="0" cy="0" r="1" gradientTransform="matrix(.29708 .40743 -.34612 .25238 19.4 15.1)" gradientUnits="userSpaceOnUse"><stop stop-color="#E18C2A"/><stop offset="1" stop-color="#E18C2A" stop-opacity="0"/></radialGradient><radialGradient id="m" cx="0" cy="0" r="1" gradientTransform="rotate(71.2 -6 13.7)scale(4.19687 1.90767)" gradientUnits="userSpaceOnUse"><stop stop-color="#D57A26"/><stop offset="1" stop-color="#D06A3C"/></radialGradient><radialGradient id="n" cx="0" cy="0" r="1" gradientTransform="matrix(.32255 1.01009 -.88606 .28294 9.5 15)" gradientUnits="userSpaceOnUse"><stop offset=".3" stop-color="#BE691E"/><stop offset="1" stop-color="#BE691E" stop-opacity="0"/></radialGradient><radialGradient id="p" cx="0" cy="0" r="1" gradientTransform="matrix(-5.29489 0 0 -9.3666 17.4 14)" gradientUnits="userSpaceOnUse"><stop stop-color="#FFE846"/><stop offset="1" stop-color="#F5A129"/></radialGradient><radialGradient id="q" cx="0" cy="0" r="1" gradientTransform="matrix(0 -3.42924 13.3401 0 14.3 20.3)" gradientUnits="userSpaceOnUse"><stop offset=".1" stop-color="#E27426"/><stop offset="1" stop-color="#FFA041" stop-opacity="0"/></radialGradient><radialGradient id="r" cx="0" cy="0" r="1" gradientTransform="matrix(-.40772 6.18017 -2.27208 -.1499 19.7 13.7)" gradientUnits="userSpaceOnUse"><stop offset=".4" stop-color="#FFD930"/><stop offset="1" stop-color="#FFD930" stop-opacity="0"/></radialGradient><radialGradient id="s" cx="0" cy="0" r="1" gradientTransform="scale(1.72404 1.43199)rotate(-90 8 .8)" gradientUnits="userSpaceOnUse"><stop offset=".3" stop-color="#F59632"/><stop offset="1" stop-color="#F59632" stop-opacity="0"/></radialGradient><radialGradient id="t" cx="0" cy="0" r="1" gradientTransform="matrix(0 -1.55493 2.01679 0 17 12.3)" gradientUnits="userSpaceOnUse"><stop offset=".2" stop-color="#FFBE3A"/><stop offset="1" stop-color="#FFBE3A" stop-opacity="0"/></radialGradient><radialGradient id="B" cx="0" cy="0" r="1" gradientTransform="rotate(-60.7 21.4 -2.8)scale(.7192 2.0929)" gradientUnits="userSpaceOnUse"><stop stop-color="#FFB534"/><stop offset="1" stop-color="#FFB534" stop-opacity="0"/></radialGradient><radialGradient id="C" cx="0" cy="0" r="1" gradientTransform="matrix(0 -.72998 2.93689 0 14.5 17.5)" gradientUnits="userSpaceOnUse"><stop stop-color="#89014E"/><stop offset="1" stop-color="#87004D"/></radialGradient><radialGradient id="F" cx="0" cy="0" r="1" gradientTransform="matrix(0 -5.7923 10.2628 0 9.2 12.3)" gradientUnits="userSpaceOnUse"><stop offset=".3" stop-color="#C98537"/><stop offset="1" stop-color="#C98537" stop-opacity="0"/></radialGradient><radialGradient id="G" cx="0" cy="0" r="1" gradientTransform="matrix(0 -3.67923 6.51888 0 19.4 12.3)" gradientUnits="userSpaceOnUse"><stop stop-color="#FFB52A"/><stop offset="1" stop-color="#FFB52A" stop-opacity="0"/></radialGradient><radialGradient id="H" cx="0" cy="0" r="1" gradientTransform="matrix(-4.15917 -1.4593 .77717 -2.21504 18.6 6)" gradientUnits="userSpaceOnUse"><stop offset=".3" stop-color="#FFE639"/><stop offset="1" stop-color="#FFE639" stop-opacity="0"/></radialGradient><radialGradient id="I" cx="0" cy="0" r="1" gradientTransform="rotate(58.5 3 14.3)scale(1.75275 4.05855)" gradientUnits="userSpaceOnUse"><stop offset=".3" stop-color="#F3C130"/><stop offset="1" stop-color="#F3C130" stop-opacity="0"/></radialGradient><radialGradient id="M" cx="0" cy="0" r="1" gradientTransform="matrix(-3.8567 1.3885 -.38645 -1.07341 14.8 5.8)" gradientUnits="userSpaceOnUse"><stop stop-color="#FFDD30"/><stop offset="1" stop-color="#FFDC2B" stop-opacity="0"/></radialGradient><radialGradient id="N" cx="0" cy="0" r="1" gradientTransform="matrix(3.25944 -5.16078 5.71761 3.61112 9 10.6)" gradientUnits="userSpaceOnUse"><stop offset=".1" stop-color="#D67227"/><stop offset=".2" stop-color="#EF8A23"/><stop offset="1" stop-color="#EF8A23" stop-opacity="0"/></radialGradient><radialGradient id="P" cx="0" cy="0" r="1" gradientTransform="matrix(3.4292 .8111 -.45362 1.91784 18.2 7)" gradientUnits="userSpaceOnUse"><stop stop-color="#FFEB3B"/><stop offset="1" stop-color="#FFEB3B" stop-opacity="0"/></radialGradient><radialGradient id="Q" cx="0" cy="0" r="1" gradientTransform="rotate(-120.1 13.2 .1)scale(4.33672 2.41855)" gradientUnits="userSpaceOnUse"><stop stop-color="#EB8F29"/><stop offset="1" stop-color="#EB8F29" stop-opacity="0"/></radialGradient><radialGradient id="R" cx="0" cy="0" r="1" gradientTransform="matrix(-1.32413 -2.23053 1.59764 -.94842 19 11.3)" gradientUnits="userSpaceOnUse"><stop offset=".4" stop-color="#E48421"/><stop offset="1" stop-color="#E48421" stop-opacity="0"/></radialGradient><radialGradient id="S" cx="0" cy="0" r="1" gradientTransform="rotate(166.5 9.3 4.6)scale(4.99786 5.40288)" gradientUnits="userSpaceOnUse"><stop offset=".7" stop-color="#F29415" stop-opacity="0"/><stop offset="1" stop-color="#F29415"/></radialGradient><radialGradient id="T" cx="0" cy="0" r="1" gradientTransform="matrix(-.11884 .38865 -1.77686 -.5433 18 6.7)" gradientUnits="userSpaceOnUse"><stop offset=".5" stop-color="#FFCE3C"/><stop offset="1" stop-color="#FFCE3C" stop-opacity="0"/></radialGradient><radialGradient id="U" cx="0" cy="0" r="1" gradientTransform="matrix(0 .82172 -1.30704 0 16.7 13)" gradientUnits="userSpaceOnUse"><stop offset=".8" stop-color="#925C51"/><stop offset="1" stop-color="#694B43"/><stop offset="1" stop-color="#804D49"/><stop offset="1" stop-color="#85534D"/></radialGradient><radialGradient id="W" cx="0" cy="0" r="1" gradientTransform="matrix(-.23458 -.30242 .41637 -.32297 16.4 13)" gradientUnits="userSpaceOnUse"><stop offset=".8" stop-color="#FFE6E2" stop-opacity="0"/><stop offset="1" stop-color="#FFE6E2"/></radialGradient><radialGradient id="Z" cx="0" cy="0" r="1" gradientTransform="matrix(0 .82176 -1.30711 0 12.3 13)" gradientUnits="userSpaceOnUse"><stop offset=".8" stop-color="#925C51"/><stop offset="1" stop-color="#694B43"/><stop offset="1" stop-color="#804D49"/><stop offset="1" stop-color="#85534D"/></radialGradient><radialGradient id="ad" cx="0" cy="0" r="1" gradientTransform="matrix(-.00783 -.4999 .6009 -.0094 12 13.2)" gradientUnits="userSpaceOnUse"><stop offset=".8" stop-color="#FFE6E2" stop-opacity="0"/><stop offset="1" stop-color="#FFE6E2"/></radialGradient><radialGradient id="af" cx="0" cy="0" r="1" gradientTransform="matrix(.6385 2.27151 -2.1672 .60917 19.1 13)" gradientUnits="userSpaceOnUse"><stop offset=".9" stop-color="#E1943D" stop-opacity="0"/><stop offset="1" stop-color="#E08F2E"/></radialGradient><radialGradient id="ag" cx="0" cy="0" r="1" gradientTransform="matrix(.79788 -1.09496 .9178 .66879 19.5 13.5)" gradientUnits="userSpaceOnUse"><stop offset=".7" stop-color="#FFBD22"/><stop offset="1" stop-color="#FFBD22" stop-opacity="0"/></radialGradient><radialGradient id="ai" cx="0" cy="0" r="1" gradientTransform="matrix(-.41817 2.10264 -2.06709 -.4111 9.2 13.1)" gradientUnits="userSpaceOnUse"><stop offset=".8" stop-color="#C77937" stop-opacity="0"/><stop offset="1" stop-color="#C77937"/></radialGradient><radialGradient id="ap" cx="0" cy="0" r="1" gradientTransform="rotate(29.2 -4 35.2)scale(7.08585 4.36379)" gradientUnits="userSpaceOnUse"><stop offset=".2" stop-color="#FFD435"/><stop offset="1" stop-color="#FE9A28" stop-opacity="0"/></radialGradient><radialGradient id="aq" cx="0" cy="0" r="1" gradientTransform="matrix(-.43762 .49989 -.49791 -.43589 23.4 5.4)" gradientUnits="userSpaceOnUse"><stop offset=".1" stop-color="#FFC432"/><stop offset="1" stop-color="#FFC432" stop-opacity="0"/></radialGradient><radialGradient id="ar" cx="0" cy="0" r="1" gradientTransform="rotate(172.9 10.5 4.3)scale(2.70847 .86204)" gradientUnits="userSpaceOnUse"><stop offset=".3" stop-color="#DA8219"/><stop offset="1" stop-color="#FAA429" stop-opacity="0"/></radialGradient><radialGradient id="as" cx="0" cy="0" r="1" gradientTransform="matrix(-.18773 -.37488 2.03377 -1.01844 23.5 6.7)" gradientUnits="userSpaceOnUse"><stop offset=".2" stop-color="#B47731"/><stop offset="1" stop-color="#B47731" stop-opacity="0"/></radialGradient><radialGradient id="at" cx="0" cy="0" r="1" gradientTransform="rotate(62.9 3.1 16)scale(1.91228 1.72006)" gradientUnits="userSpaceOnUse"><stop offset=".2" stop-color="#F3D037"/><stop offset="1" stop-color="#F3D037" stop-opacity="0"/></radialGradient><radialGradient id="az" cx="0" cy="0" r="1" gradientTransform="rotate(141.2 10.7 8)scale(.43619)" gradientUnits="userSpaceOnUse"><stop offset=".2" stop-color="#EBDBE4"/><stop offset="1" stop-color="#C7B1B5"/></radialGradient><radialGradient id="aA" cx="0" cy="0" r="1" gradientTransform="matrix(.19922 -.48438 1.17186 .48198 23.7 8)" gradientUnits="userSpaceOnUse"><stop offset=".1" stop-color="#996E9F"/><stop offset="1" stop-color="#C8B3B7" stop-opacity="0"/></radialGradient><radialGradient id="aB" cx="0" cy="0" r="1" gradientTransform="rotate(6.1 -58.7 223.5)scale(.44 .5557)" gradientUnits="userSpaceOnUse"><stop offset=".2" stop-color="#A4888C"/><stop offset="1" stop-color="#A4888C" stop-opacity="0"/></radialGradient><radialGradient id="aD" cx="0" cy="0" r="1" gradientTransform="matrix(2.20247 -1.61719 2.56784 3.49718 21.5 10.7)" gradientUnits="userSpaceOnUse"><stop offset=".2" stop-color="#FF7046"/><stop offset="1" stop-color="#FF2D78"/></radialGradient><radialGradient id="aG" cx="0" cy="0" r="1" gradientTransform="rotate(-29.1 29.5 -43)scale(2.89565 4.09154)" gradientUnits="userSpaceOnUse"><stop offset=".2" stop-color="#FF7046"/><stop offset="1" stop-color="#FF2D78"/></radialGradient><filter id="o" width="10.9" height="12.7" x="9.4" y="7.6" color-interpolation-filters="sRGB" filterUnits="userSpaceOnUse"><feFlood flood-opacity="0" result="BackgroundImageFix"/><feBlend in="SourceGraphic" in2="BackgroundImageFix" result="shape"/><feColorMatrix in="SourceAlpha" result="hardAlpha" values="0 0 0 0 0 0 0 0 0 0 0 0 0 0 0 0 0 0 127 0"/><feOffset dx=".5"/><feGaussianBlur stdDeviation=".5"/><feComposite in2="hardAlpha" k2="-1" k3="1" operator="arithmetic"/><feColorMatrix values="0 0 0 0 0.823529 0 0 0 0 0.623529 0 0 0 0 0.313726 0 0 0 1 0"/><feBlend in2="shape" result="effect1_innerShadow_4002_21"/><feColorMatrix in="SourceAlpha" result="hardAlpha" values="0 0 0 0 0 0 0 0 0 0 0 0 0 0 0 0 0 0 127 0"/><feOffset dy=".2"/><feGaussianBlur stdDeviation=".4"/><feComposite in2="hardAlpha" k2="-1" k3="1" operator="arithmetic"/><feColorMatrix values="0 0 0 0 0.980392 0 0 0 0 0.54902 0 0 0 0 0.0941176 0 0 0 1 0"/><feBlend in2="effect1_innerShadow_4002_21" result="effect2_innerShadow_4002_21"/></filter><filter id="u" width="3.9" height="4.9" x="12.3" y="12.1" color-interpolation-filters="sRGB" filterUnits="userSpaceOnUse"><feFlood flood-opacity="0" result="BackgroundImageFix"/><feBlend in="SourceGraphic" in2="BackgroundImageFix" result="shape"/><feGaussianBlur result="effect1_foregroundBlur_4002_21" stdDeviation=".5"/></filter><filter id="v" width="2.1" height="3.1" x="13.4" y="12.8" color-interpolation-filters="sRGB" filterUnits="userSpaceOnUse"><feFlood flood-opacity="0" result="BackgroundImageFix"/><feBlend in="SourceGraphic" in2="BackgroundImageFix" result="shape"/><feGaussianBlur result="effect1_foregroundBlur_4002_21" stdDeviation=".1"/></filter><filter id="A" width="3.8" height="1.6" x="12.6" y="16.2" color-interpolation-filters="sRGB" filterUnits="userSpaceOnUse"><feFlood flood-opacity="0" result="BackgroundImageFix"/><feBlend in="SourceGraphic" in2="BackgroundImageFix" result="shape"/><feGaussianBlur result="effect1_foregroundBlur_4002_21" stdDeviation=".1"/></filter><filter id="D" width="13" height="8.5" x="8" y="4.4" color-interpolation-filters="sRGB" filterUnits="userSpaceOnUse"><feFlood flood-opacity="0" result="BackgroundImageFix"/><feBlend in="SourceGraphic" in2="BackgroundImageFix" result="shape"/><feColorMatrix in="SourceAlpha" result="hardAlpha" values="0 0 0 0 0 0 0 0 0 0 0 0 0 0 0 0 0 0 127 0"/><feOffset dy="-.5"/><feGaussianBlur stdDeviation=".6"/><feComposite in2="hardAlpha" k2="-1" k3="1" operator="arithmetic"/><feColorMatrix values="0 0 0 0 0.945098 0 0 0 0 0.509804 0 0 0 0 0.0627451 0 0 0 1 0"/><feBlend in2="shape" result="effect1_innerShadow_4002_21"/><feColorMatrix in="SourceAlpha" result="hardAlpha" values="0 0 0 0 0 0 0 0 0 0 0 0 0 0 0 0 0 0 127 0"/><feOffset dy="-.2"/><feGaussianBlur stdDeviation=".2"/><feComposite in2="hardAlpha" k2="-1" k3="1" operator="arithmetic"/><feColorMatrix values="0 0 0 0 0.862745 0 0 0 0 0.486275 0 0 0 0 0.0470588 0 0 0 1 0"/><feBlend in2="effect1_innerShadow_4002_21" result="effect2_innerShadow_4002_21"/></filter><filter id="J" width="2.4" height="1.2" x="16.1" y="10.2" color-interpolation-filters="sRGB" filterUnits="userSpaceOnUse"><feFlood flood-opacity="0" result="BackgroundImageFix"/><feBlend in="SourceGraphic" in2="BackgroundImageFix" result="shape"/><feColorMatrix in="SourceAlpha" result="hardAlpha" values="0 0 0 0 0 0 0 0 0 0 0 0 0 0 0 0 0 0 127 0"/><feOffset dx=".1" dy="-.2"/><feGaussianBlur stdDeviation=".1"/><feComposite in2="hardAlpha" k2="-1" k3="1" operator="arithmetic"/><feColorMatrix values="0 0 0 0 0.603922 0 0 0 0 0.243137 0 0 0 0 0.152941 0 0 0 1 0"/><feBlend in2="shape" result="effect1_innerShadow_4002_21"/></filter><filter id="K" width="2.4" height="1.2" x="10.8" y="10.2" color-interpolation-filters="sRGB" filterUnits="userSpaceOnUse"><feFlood flood-opacity="0" result="BackgroundImageFix"/><feBlend in="SourceGraphic" in2="BackgroundImageFix" result="shape"/><feColorMatrix in="SourceAlpha" result="hardAlpha" values="0 0 0 0 0 0 0 0 0 0 0 0 0 0 0 0 0 0 127 0"/><feOffset dx=".1" dy="-.2"/><feGaussianBlur stdDeviation=".1"/><feComposite in2="hardAlpha" k2="-1" k3="1" operator="arithmetic"/><feColorMatrix values="0 0 0 0 0.603922 0 0 0 0 0.243137 0 0 0 0 0.152941 0 0 0 1 0"/><feBlend in2="shape" result="effect1_innerShadow_4002_21"/></filter><filter id="L" width="6.7" height="6.1" x="8.3" y="5.5" color-interpolation-filters="sRGB" filterUnits="userSpaceOnUse"><feFlood flood-opacity="0" result="BackgroundImageFix"/><feBlend in="SourceGraphic" in2="BackgroundImageFix" result="shape"/><feGaussianBlur result="effect1_foregroundBlur_4002_21" stdDeviation=".1"/></filter><filter id="O" width="6.4" height="5.8" x="14.3" y="6.1" color-interpolation-filters="sRGB" filterUnits="userSpaceOnUse"><feFlood flood-opacity="0" result="BackgroundImageFix"/><feBlend in="SourceGraphic" in2="BackgroundImageFix" result="shape"/><feGaussianBlur result="effect1_foregroundBlur_4002_21" stdDeviation=".1"/></filter><filter id="V" width=".8" height=".7" x="16" y="12.5" color-interpolation-filters="sRGB" filterUnits="userSpaceOnUse"><feFlood flood-opacity="0" result="BackgroundImageFix"/><feBlend in="SourceGraphic" in2="BackgroundImageFix" result="shape"/><feGaussianBlur result="effect1_foregroundBlur_4002_21" stdDeviation=".1"/></filter><filter id="X" width=".9" height=".9" x="16.8" y="12.6" color-interpolation-filters="sRGB" filterUnits="userSpaceOnUse"><feFlood flood-opacity="0" result="BackgroundImageFix"/><feBlend in="SourceGraphic" in2="BackgroundImageFix" result="shape"/><feGaussianBlur result="effect1_foregroundBlur_4002_21" stdDeviation=".1"/></filter><filter id="aa" width="1" height="1" x="12.3" y="12.5" color-interpolation-filters="sRGB" filterUnits="userSpaceOnUse"><feFlood flood-opacity="0" result="BackgroundImageFix"/><feBlend in="SourceGraphic" in2="BackgroundImageFix" result="shape"/><feGaussianBlur result="effect1_foregroundBlur_4002_21" stdDeviation=".1"/></filter><filter id="ac" width=".9" height=".7" x="11.5" y="12.5" color-interpolation-filters="sRGB" filterUnits="userSpaceOnUse"><feFlood flood-opacity="0" result="BackgroundImageFix"/><feBlend in="SourceGraphic" in2="BackgroundImageFix" result="shape"/><feGaussianBlur result="effect1_foregroundBlur_4002_21" stdDeviation=".1"/></filter><filter id="aj" width="1.3" height="2.4" x="8.4" y="12.4" color-interpolation-filters="sRGB" filterUnits="userSpaceOnUse"><feFlood flood-opacity="0" result="BackgroundImageFix"/><feBlend in="SourceGraphic" in2="BackgroundImageFix" result="shape"/><feGaussianBlur result="effect1_foregroundBlur_4002_21" stdDeviation=".1"/></filter><filter id="ak" width="1.5" height="2.4" x="19.3" y="12.4" color-interpolation-filters="sRGB" filterUnits="userSpaceOnUse"><feFlood flood-opacity="0" result="BackgroundImageFix"/><feBlend in="SourceGraphic" in2="BackgroundImageFix" result="shape"/><feGaussianBlur result="effect1_foregroundBlur_4002_21" stdDeviation=".1"/></filter><filter id="al" width="2.4" height="1.2" x="10.7" y="10.3" color-interpolation-filters="sRGB" filterUnits="userSpaceOnUse"><feFlood flood-opacity="0" result="BackgroundImageFix"/><feBlend in="SourceGraphic" in2="BackgroundImageFix" result="shape"/><feGaussianBlur result="effect1_foregroundBlur_4002_21" stdDeviation=".1"/></filter><filter id="am" width="2.4" height="1.2" x="16" y="10.2" color-interpolation-filters="sRGB" filterUnits="userSpaceOnUse"><feFlood flood-opacity="0" result="BackgroundImageFix"/><feBlend in="SourceGraphic" in2="BackgroundImageFix" result="shape"/><feGaussianBlur result="effect1_foregroundBlur_4002_21" stdDeviation=".1"/></filter><filter id="an" width="9.1" height="4.4" x="14.7" y="5" color-interpolation-filters="sRGB" filterUnits="userSpaceOnUse"><feFlood flood-opacity="0" result="BackgroundImageFix"/><feBlend in="SourceGraphic" in2="BackgroundImageFix" result="shape"/><feColorMatrix in="SourceAlpha" result="hardAlpha" values="0 0 0 0 0 0 0 0 0 0 0 0 0 0 0 0 0 0 127 0"/><feOffset dx=".3" dy="-.3"/><feGaussianBlur stdDeviation=".3"/><feComposite in2="hardAlpha" k2="-1" k3="1" operator="arithmetic"/><feColorMatrix values="0 0 0 0 0.917647 0 0 0 0 0.545098 0 0 0 0 0.0745098 0 0 0 1 0"/><feBlend in2="shape" result="effect1_innerShadow_4002_21"/></filter><filter id="ay" width=".7" height=".7" x="23.5" y="7.2" color-interpolation-filters="sRGB" filterUnits="userSpaceOnUse"><feFlood flood-opacity="0" result="BackgroundImageFix"/><feBlend in="SourceGraphic" in2="BackgroundImageFix" result="shape"/><feColorMatrix in="SourceAlpha" result="hardAlpha" values="0 0 0 0 0 0 0 0 0 0 0 0 0 0 0 0 0 0 127 0"/><feOffset dx=".1" dy="-.1"/><feGaussianBlur stdDeviation=".1"/><feComposite in2="hardAlpha" k2="-1" k3="1" operator="arithmetic"/><feColorMatrix values="0 0 0 0 0.52549 0 0 0 0 0.388235 0 0 0 0 0.501961 0 0 0 1 0"/><feBlend in2="shape" result="effect1_innerShadow_4002_21"/></filter><filter id="aC" width="3.8" height="4.4" x="21.1" y="8" color-interpolation-filters="sRGB" filterUnits="userSpaceOnUse"><feFlood flood-opacity="0" result="BackgroundImageFix"/><feBlend in="SourceGraphic" in2="BackgroundImageFix" result="shape"/><feColorMatrix in="SourceAlpha" result="hardAlpha" values="0 0 0 0 0 0 0 0 0 0 0 0 0 0 0 0 0 0 127 0"/><feOffset dx=".1" dy="-.1"/><feGaussianBlur stdDeviation=".1"/><feComposite in2="hardAlpha" k2="-1" k3="1" operator="arithmetic"/><feColorMatrix values="0 0 0 0 0.945098 0 0 0 0 0.45098 0 0 0 0 0.333333 0 0 0 1 0"/><feBlend in2="shape" result="effect1_innerShadow_4002_21"/><feColorMatrix in="SourceAlpha" result="hardAlpha" values="0 0 0 0 0 0 0 0 0 0 0 0 0 0 0 0 0 0 127 0"/><feOffset dx="-.1" dy=".1"/><feGaussianBlur stdDeviation=".1"/><feComposite in2="hardAlpha" k2="-1" k3="1" operator="arithmetic"/><feColorMatrix values="0 0 0 0 1 0 0 0 0 0.282353 0 0 0 0 0.435294 0 0 0 1 0"/><feBlend in2="effect1_innerShadow_4002_21" result="effect2_innerShadow_4002_21"/></filter><filter id="aF" width="4.3" height="3.7" x="24.3" y="6.5" color-interpolation-filters="sRGB" filterUnits="userSpaceOnUse"><feFlood flood-opacity="0" result="BackgroundImageFix"/><feBlend in="SourceGraphic" in2="BackgroundImageFix" result="shape"/><feColorMatrix in="SourceAlpha" result="hardAlpha" values="0 0 0 0 0 0 0 0 0 0 0 0 0 0 0 0 0 0 127 0"/><feOffset dx=".1" dy="-.1"/><feGaussianBlur stdDeviation=".1"/><feComposite in2="hardAlpha" k2="-1" k3="1" operator="arithmetic"/><feColorMatrix values="0 0 0 0 0.882353 0 0 0 0 0.203922 0 0 0 0 0.435294 0 0 0 1 0"/><feBlend in2="shape" result="effect1_innerShadow_4002_21"/></filter><filter id="aH" width="3.8" height="3.8" x="24.7" y="6.5" color-interpolation-filters="sRGB" filterUnits="userSpaceOnUse"><feFlood flood-opacity="0" result="BackgroundImageFix"/><feBlend in="SourceGraphic" in2="BackgroundImageFix" result="shape"/><feGaussianBlur result="effect1_foregroundBlur_4002_21" stdDeviation=".1"/></filter><filter id="aJ" width="2.7" height="2.7" x="25.3" y="7" color-interpolation-filters="sRGB" filterUnits="userSpaceOnUse"><feFlood flood-opacity="0" result="BackgroundImageFix"/><feBlend in="SourceGraphic" in2="BackgroundImageFix" result="shape"/><feGaussianBlur result="effect1_foregroundBlur_4002_21" stdDeviation=".1"/></filter><filter id="aL" width="2.7" height="2.7" x="21.6" y="9.1" color-interpolation-filters="sRGB" filterUnits="userSpaceOnUse"><feFlood flood-opacity="0" result="BackgroundImageFix"/><feBlend in="SourceGraphic" in2="BackgroundImageFix" result="shape"/><feGaussianBlur result="effect1_foregroundBlur_4002_21" stdDeviation=".1"/></filter><filter id="aN" width="3.8" height="3.8" x="21.1" y="8.5" color-interpolation-filters="sRGB" filterUnits="userSpaceOnUse"><feFlood flood-opacity="0" result="BackgroundImageFix"/><feBlend in="SourceGraphic" in2="BackgroundImageFix" result="shape"/><feGaussianBlur result="effect1_foregroundBlur_4002_21" stdDeviation=".1"/></filter><linearGradient id="w" x1="14.5" x2="15.4" y1="14.7" y2="14.7" gradientUnits="userSpaceOnUse"><stop stop-color="#FFC92F"/><stop offset="1" stop-color="#FFEA47"/></linearGradient><linearGradient id="x" x1="13.4" x2="14.5" y1="14.6" y2="14.6" gradientUnits="userSpaceOnUse"><stop stop-color="#F49F22"/><stop offset="1" stop-color="#E88830" stop-opacity="0"/><stop offset="1" stop-color="#F49F22" stop-opacity="0"/></linearGradient><linearGradient id="y" x1="14.5" x2="14.5" y1="15.1" y2="16" gradientUnits="userSpaceOnUse"><stop stop-color="#E88830" stop-opacity="0"/><stop offset=".8" stop-color="#E88830"/></linearGradient><linearGradient id="z" x1="14.5" x2="14.5" y1="12.9" y2="13.3" gradientUnits="userSpaceOnUse"><stop stop-color="#FAC137"/><stop offset="1" stop-color="#FAC137" stop-opacity="0"/></linearGradient><linearGradient id="E" x1="19.9" x2="9.7" y1="8.2" y2="8.2" gradientUnits="userSpaceOnUse"><stop stop-color="#FFE235"/><stop offset="1" stop-color="#D29935"/></linearGradient><linearGradient id="Y" x1="17.5" x2="17.2" y1="13" y2="13.2" gradientUnits="userSpaceOnUse"><stop stop-color="#B4948D"/><stop offset="1" stop-color="#B4948D" stop-opacity="0"/></linearGradient><linearGradient id="ab" x1="13" x2="12.7" y1="13" y2="13.2" gradientUnits="userSpaceOnUse"><stop stop-color="#B4948D"/><stop offset="1" stop-color="#B4948D" stop-opacity="0"/></linearGradient><linearGradient id="ae" x1="21" x2="19.8" y1="13" y2="15.2" gradientUnits="userSpaceOnUse"><stop stop-color="#FFE343"/><stop offset="1" stop-color="#FFC136"/></linearGradient><linearGradient id="ah" x1="8.6" x2="10" y1="13.8" y2="13.6" gradientUnits="userSpaceOnUse"><stop stop-color="#E39726"/><stop offset="1" stop-color="#D9851D"/></linearGradient><linearGradient id="ao" x1="23.6" x2="17.5" y1="5.6" y2="9.3" gradientUnits="userSpaceOnUse"><stop stop-color="#E3871A"/><stop offset="1" stop-color="#FE9A2B"/></linearGradient><linearGradient id="au" x1="25" x2="23.8" y1="5.7" y2="5.3" gradientUnits="userSpaceOnUse"><stop stop-color="#9B8299"/><stop offset="1" stop-color="#D9B4C8"/></linearGradient><linearGradient id="av" x1="23.9" x2="24" y1="7.2" y2="6.9" gradientUnits="userSpaceOnUse"><stop offset=".2" stop-color="#A28B95"/><stop offset="1" stop-color="#C0A0B5" stop-opacity="0"/></linearGradient><linearGradient id="aw" x1="23" x2="23.2" y1="8" y2="6.7" gradientUnits="userSpaceOnUse"><stop stop-color="#9B8299"/><stop offset="1" stop-color="#D9B4C8"/></linearGradient><linearGradient id="ax" x1="24.4" x2="24.2" y1="8.1" y2="8" gradientUnits="userSpaceOnUse"><stop stop-color="#93768E"/><stop offset="1" stop-color="#A2889F" stop-opacity="0"/></linearGradient><linearGradient id="aE" x1="23.7" x2="23.7" y1="8.2" y2="8.4" gradientUnits="userSpaceOnUse"><stop offset=".2" stop-color="#B71143"/><stop offset="1" stop-color="#FF3178" stop-opacity="0"/></linearGradient><linearGradient id="aI" x1="25" x2="28.2" y1="8.8" y2="7.3" gradientUnits="userSpaceOnUse"><stop offset=".6" stop-color="#FF4F4F"/><stop offset=".9" stop-color="#FF6792"/></linearGradient><linearGradient id="aK" x1="25.5" x2="27.7" y1="8.7" y2="7.7" gradientUnits="userSpaceOnUse"><stop offset=".2" stop-color="#FF7E7A"/><stop offset=".7" stop-color="#FF7E7A" stop-opacity="0"/></linearGradient><linearGradient id="aM" x1="21.9" x2="24" y1="10.7" y2="9.7" gradientUnits="userSpaceOnUse"><stop offset=".2" stop-color="#FF9266"/><stop offset=".7" stop-color="#FF9266" stop-opacity="0"/></linearGradient><linearGradient id="aO" x1="24.6" x2="23" y1="9.9" y2="10.4" gradientUnits="userSpaceOnUse"><stop stop-color="#FF5C88"/><stop offset="1" stop-color="#FF5185" stop-opacity="0"/></linearGradient></defs></svg>