<svg xmlns="http://www.w3.org/2000/svg" width="32" height="32" fill="none"><path fill="url(#a)" d="M14.5 27a.7.7 0 0 0-1.3.1l-.5 2a1.2 1.2 0 0 0 1.2 1.5 1.2 1.2 0 0 0 1-1.7z"/><path fill="url(#b)" d="M14.5 27a.7.7 0 0 0-1.3.1l-.5 2a1.2 1.2 0 0 0 1.2 1.5 1.2 1.2 0 0 0 1-1.7z"/><path fill="url(#c)" d="M17.3 27a.7.7 0 0 0-1.2.1l-.6 2a1.2 1.2 0 0 0 1.2 1.5 1.2 1.2 0 0 0 1.1-1.7z"/><path fill="url(#d)" d="M17.3 27a.7.7 0 0 0-1.2.1l-.6 2a1.2 1.2 0 0 0 1.2 1.5 1.2 1.2 0 0 0 1.1-1.7z"/><rect width=".4" height="1.5" x="13.7" y="24.3" fill="url(#e)" rx=".2"/><rect width=".4" height="1.5" x="16.5" y="24.3" fill="url(#f)" rx=".2"/><path fill="url(#g)" d="M5.6 21.7h8.5v2.6H5.6z"/><path fill="url(#h)" d="M5.6 21.7h8.5v2.6H5.6z"/><path fill="url(#i)" d="M5.6 21.7h8.5v2.6H5.6z"/><g fill-rule="evenodd" clip-rule="evenodd" filter="url(#j)"><path fill="url(#k)" d="M15.2 10.6a5.5 5.5 0 1 0 0 11 5.5 5.5 0 0 0 0-11M7 16a8.1 8.1 0 1 1 16.2 0A8.1 8.1 0 0 1 7 16"/><path fill="url(#l)" d="M15.2 10.6a5.5 5.5 0 1 0 0 11 5.5 5.5 0 0 0 0-11M7 16a8.1 8.1 0 1 1 16.2 0A8.1 8.1 0 0 1 7 16"/></g><g filter="url(#m)"><circle cx="15.4" cy="16" r="6.7" stroke="url(#n)" stroke-width=".8"/></g><g filter="url(#o)"><path fill="#FFB940" d="M17.8 2.7a.8.8 0 0 0-.4 1.6c1.1.8 3.3 3 3.3 5.3v6.6c0 3-2.4 5.4-5.4 5.4h-.6v2.6h.6a8 8 0 0 0 8-8V9.6c0-2.4 2.2-4.5 3.3-5.3a.8.8 0 0 0-.3-1.6z"/></g><path fill="url(#p)" d="M17.8 2.7a.8.8 0 0 0-.4 1.6c1.1.8 3.3 3 3.3 5.3v6.6c0 3-2.4 5.4-5.4 5.4h-.6v2.6h.6a8 8 0 0 0 8-8V9.6c0-2.4 2.2-4.5 3.3-5.3a.8.8 0 0 0-.3-1.6z"/><path fill="url(#q)" d="M17.8 2.7a.8.8 0 0 0-.4 1.6c1.1.8 3.3 3 3.3 5.3v6.6c0 3-2.4 5.4-5.4 5.4h-.6v2.6h.6a8 8 0 0 0 8-8V9.6c0-2.4 2.2-4.5 3.3-5.3a.8.8 0 0 0-.3-1.6z"/><path fill="url(#r)" d="M17.8 2.7a.8.8 0 0 0-.4 1.6c1.1.8 3.3 3 3.3 5.3v6.6c0 3-2.4 5.4-5.4 5.4h-.6v2.6h.6a8 8 0 0 0 8-8V9.6c0-2.4 2.2-4.5 3.3-5.3a.8.8 0 0 0-.3-1.6z"/><path fill="url(#s)" d="M17.8 2.7a.8.8 0 0 0-.4 1.6c1.1.8 3.3 3 3.3 5.3v6.6c0 3-2.4 5.4-5.4 5.4h-.6v2.6h.6a8 8 0 0 0 8-8V9.6c0-2.4 2.2-4.5 3.3-5.3a.8.8 0 0 0-.3-1.6z"/><path fill="url(#t)" d="M17.8 2.7a.8.8 0 0 0-.4 1.6c1.1.8 3.3 3 3.3 5.3v6.6c0 3-2.4 5.4-5.4 5.4h-.6v2.6h.6a8 8 0 0 0 8-8V9.6c0-2.4 2.2-4.5 3.3-5.3a.8.8 0 0 0-.3-1.6z"/><path fill="url(#u)" d="M17.8 2.7a.8.8 0 0 0-.4 1.6c1.1.8 3.3 3 3.3 5.3v6.6c0 3-2.4 5.4-5.4 5.4h-.6v2.6h.6a8 8 0 0 0 8-8V9.6c0-2.4 2.2-4.5 3.3-5.3a.8.8 0 0 0-.3-1.6z"/><rect width="1.4" height="4.2" x="13.2" y="20.5" fill="url(#v)" rx=".7"/><rect width="1.4" height="4.2" x="13.2" y="20.5" fill="url(#w)" rx=".7"/><rect width="1.4" height="4.2" x="13.2" y="20.5" fill="url(#x)" rx=".7"/><rect width="1.4" height="4.2" x="14.6" y="20.5" fill="url(#y)" rx=".7"/><rect width="1.4" height="4.2" x="14.6" y="20.5" fill="url(#z)" rx=".7"/><rect width="1.4" height="4.2" x="14.6" y="20.5" fill="url(#A)" rx=".7"/><rect width="1.4" height="4.2" x="14.6" y="20.5" fill="url(#B)" rx=".7"/><rect width="1.4" height="4.2" x="16" y="20.5" fill="url(#C)" rx=".7"/><rect width="1.4" height="4.2" x="16" y="20.5" fill="url(#D)" rx=".7"/><rect width="1.4" height="4.2" x="16" y="20.5" fill="url(#E)" rx=".7"/><circle cx="13.9" cy="26" r=".7" fill="url(#F)"/><circle cx="13.9" cy="26" r=".7" fill="url(#G)"/><circle cx="13.9" cy="26" r=".7" fill="url(#H)"/><circle cx="16.7" cy="26" r=".7" fill="url(#I)"/><circle cx="16.7" cy="26" r=".7" fill="url(#J)"/><circle cx="16.7" cy="26" r=".7" fill="url(#K)"/><g filter="url(#L)"><rect width="1.8" height="4.4" x="4.2" y="20.8" fill="url(#M)" rx=".9"/><rect width="1.8" height="4.4" x="4.2" y="20.8" fill="url(#N)" rx=".9"/></g><g filter="url(#O)"><path fill="url(#P)" d="M22.2 8.2h.7v8.4h-.7z"/></g><defs><radialGradient id="a" cx="0" cy="0" r="1" gradientTransform="matrix(0 -2.60938 1.375 0 14.4 29.4)" gradientUnits="userSpaceOnUse"><stop stop-color="#DF437F"/><stop offset=".9" stop-color="#D0395A"/></radialGradient><radialGradient id="b" cx="0" cy="0" r="1" gradientTransform="matrix(0 3.00781 -2.66406 0 13.9 27.6)" gradientUnits="userSpaceOnUse"><stop offset=".6" stop-color="#CF2A87" stop-opacity="0"/><stop offset="1" stop-color="#CF2A87"/></radialGradient><radialGradient id="c" cx="0" cy="0" r="1" gradientTransform="matrix(0 -2.60938 1.375 0 17.2 29.4)" gradientUnits="userSpaceOnUse"><stop stop-color="#E64991"/><stop offset=".9" stop-color="#D11967"/></radialGradient><radialGradient id="d" cx="0" cy="0" r="1" gradientTransform="matrix(0 3.00781 -2.66406 0 16.7 27.6)" gradientUnits="userSpaceOnUse"><stop offset=".6" stop-color="#CF2A87" stop-opacity="0"/><stop offset="1" stop-color="#CF2A87"/></radialGradient><radialGradient id="i" cx="0" cy="0" r="1" gradientTransform="matrix(4.23438 0 0 1.39062 6 22.7)" gradientUnits="userSpaceOnUse"><stop stop-color="#F7A443"/><stop offset="1" stop-color="#EA9223" stop-opacity="0"/></radialGradient><radialGradient id="k" cx="0" cy="0" r="1" gradientTransform="rotate(28.5 -21.2 25.3)scale(10.9488 19.636)" gradientUnits="userSpaceOnUse"><stop stop-color="#F4B12A"/><stop offset="1" stop-color="#EB943B"/></radialGradient><radialGradient id="l" cx="0" cy="0" r="1" gradientTransform="matrix(-2.6875 -2.65626 1.39798 -1.41442 21.2 11)" gradientUnits="userSpaceOnUse"><stop stop-color="#FFC252"/><stop offset="1" stop-color="#FFC252" stop-opacity="0"/></radialGradient><radialGradient id="p" cx="0" cy="0" r="1" gradientTransform="matrix(5.13953 4.70788 -7.85584 8.57611 17.6 2.7)" gradientUnits="userSpaceOnUse"><stop stop-color="#E58940"/><stop offset="1" stop-color="#E58940" stop-opacity="0"/></radialGradient><radialGradient id="q" cx="0" cy="0" r="1" gradientTransform="matrix(-5.23837 4.05233 -6.05547 -7.8278 28 3.6)" gradientUnits="userSpaceOnUse"><stop stop-color="#E1A152"/><stop offset="1" stop-color="#E1A152" stop-opacity="0"/></radialGradient><radialGradient id="s" cx="0" cy="0" r="1" gradientTransform="matrix(0 1.11192 -5.31497 0 24.4 3.2)" gradientUnits="userSpaceOnUse"><stop offset=".2" stop-color="#FFDE61"/><stop offset="1" stop-color="#FFC433" stop-opacity="0"/></radialGradient><radialGradient id="t" cx="0" cy="0" r="1" gradientTransform="rotate(69.2 7.2 13.7)scale(1.87693 4.06515)" gradientUnits="userSpaceOnUse"><stop offset=".3" stop-color="#D6A148"/><stop offset="1" stop-color="#D6A148" stop-opacity="0"/></radialGradient><radialGradient id="x" cx="0" cy="0" r="1" gradientTransform="matrix(0 2.23437 -.67188 0 14.2 22.2)" gradientUnits="userSpaceOnUse"><stop offset=".2" stop-color="#D84E7B"/><stop offset="1" stop-color="#D84E7B" stop-opacity="0"/></radialGradient><radialGradient id="B" cx="0" cy="0" r="1" gradientTransform="matrix(0 2.23437 -.67188 0 15.6 22.2)" gradientUnits="userSpaceOnUse"><stop offset=".2" stop-color="#D84E7B"/><stop offset="1" stop-color="#D84E7B" stop-opacity="0"/></radialGradient><radialGradient id="E" cx="0" cy="0" r="1" gradientTransform="matrix(0 2.23437 -.67188 0 17 22.2)" gradientUnits="userSpaceOnUse"><stop offset=".2" stop-color="#D84E7B"/><stop offset="1" stop-color="#D84E7B" stop-opacity="0"/></radialGradient><radialGradient id="G" cx="0" cy="0" r="1" gradientTransform="matrix(-.49219 0 0 -.47656 14.4 26)" gradientUnits="userSpaceOnUse"><stop offset=".4" stop-color="#D54A76"/><stop offset="1" stop-color="#D54A76" stop-opacity="0"/></radialGradient><radialGradient id="H" cx="0" cy="0" r="1" gradientTransform="matrix(-.71875 0 0 -.17188 14.2 26.7)" gradientUnits="userSpaceOnUse"><stop offset=".3" stop-color="#D63F67"/><stop offset="1" stop-color="#D63F67" stop-opacity="0"/></radialGradient><radialGradient id="J" cx="0" cy="0" r="1" gradientTransform="matrix(-.49219 0 0 -.47656 17.2 26)" gradientUnits="userSpaceOnUse"><stop offset=".4" stop-color="#D54A76"/><stop offset="1" stop-color="#D54A76" stop-opacity="0"/></radialGradient><radialGradient id="K" cx="0" cy="0" r="1" gradientTransform="matrix(-.71875 0 0 -.17188 17 26.7)" gradientUnits="userSpaceOnUse"><stop offset=".3" stop-color="#D63F67"/><stop offset="1" stop-color="#D63F67" stop-opacity="0"/></radialGradient><radialGradient id="N" cx="0" cy="0" r="1" gradientTransform="matrix(0 1.875 -.78125 0 5.7 22.5)" gradientUnits="userSpaceOnUse"><stop stop-color="#FEBA43"/><stop offset="1" stop-color="#FEBA43" stop-opacity="0"/></radialGradient><linearGradient id="e" x1="13.9" x2="13.9" y1="24.6" y2="25.8" gradientUnits="userSpaceOnUse"><stop stop-color="#C72A59"/><stop offset="1" stop-color="#CC355B"/></linearGradient><linearGradient id="f" x1="16.7" x2="16.7" y1="24.6" y2="25.8" gradientUnits="userSpaceOnUse"><stop stop-color="#C72A59"/><stop offset="1" stop-color="#CC355B"/></linearGradient><linearGradient id="g" x1="9.9" x2="9.9" y1="22.1" y2="24.2" gradientUnits="userSpaceOnUse"><stop stop-color="#E69B2C"/><stop offset="1" stop-color="#DB734F"/></linearGradient><linearGradient id="h" x1="9.9" x2="9.9" y1="24.4" y2="23.8" gradientUnits="userSpaceOnUse"><stop stop-color="#D77177"/><stop offset="1" stop-color="#D77177" stop-opacity="0"/></linearGradient><linearGradient id="n" x1="8.7" x2="18" y1="19.3" y2="11.2" gradientUnits="userSpaceOnUse"><stop stop-color="#FFD15B"/><stop offset=".2" stop-color="#FFD15B"/><stop offset="1" stop-color="#FFD15B" stop-opacity="0"/></linearGradient><linearGradient id="r" x1="20.9" x2="20.9" y1="2.7" y2="4.5" gradientUnits="userSpaceOnUse"><stop offset=".3" stop-color="#FFB529"/><stop offset="1" stop-color="#FFB529" stop-opacity="0"/></linearGradient><linearGradient id="u" x1="20.9" x2="20.9" y1="2.6" y2="2.9" gradientUnits="userSpaceOnUse"><stop stop-color="#DEAE54"/><stop offset="1" stop-color="#DEAE54" stop-opacity="0"/></linearGradient><linearGradient id="v" x1="13.9" x2="13.9" y1="20.5" y2="24.8" gradientUnits="userSpaceOnUse"><stop stop-color="#CE3057"/><stop offset="1" stop-color="#C51776"/></linearGradient><linearGradient id="w" x1="14.7" x2="14.2" y1="23.1" y2="23.1" gradientUnits="userSpaceOnUse"><stop offset=".5" stop-color="#C30354"/><stop offset="1" stop-color="#C30354" stop-opacity="0"/></linearGradient><linearGradient id="y" x1="15.3" x2="15.3" y1="20.5" y2="24.8" gradientUnits="userSpaceOnUse"><stop stop-color="#CE3057"/><stop offset="1" stop-color="#C51776"/></linearGradient><linearGradient id="z" x1="16.1" x2="15.6" y1="23.1" y2="23.1" gradientUnits="userSpaceOnUse"><stop offset=".5" stop-color="#C30354"/><stop offset="1" stop-color="#C30354" stop-opacity="0"/></linearGradient><linearGradient id="A" x1="14" x2="14.9" y1="23.1" y2="23.1" gradientUnits="userSpaceOnUse"><stop offset=".5" stop-color="#C30354"/><stop offset="1" stop-color="#C30354" stop-opacity="0"/></linearGradient><linearGradient id="C" x1="16.7" x2="16.7" y1="20.5" y2="24.8" gradientUnits="userSpaceOnUse"><stop stop-color="#CE3057"/><stop offset="1" stop-color="#C51776"/></linearGradient><linearGradient id="D" x1="15.7" x2="16.4" y1="23.1" y2="23.1" gradientUnits="userSpaceOnUse"><stop offset=".3" stop-color="#C30354"/><stop offset="1" stop-color="#C30354" stop-opacity="0"/></linearGradient><linearGradient id="F" x1="13.9" x2="13.9" y1="25.5" y2="26.8" gradientUnits="userSpaceOnUse"><stop stop-color="#C91C51"/><stop offset="1" stop-color="#D2226C"/></linearGradient><linearGradient id="I" x1="16.7" x2="16.7" y1="25.5" y2="26.8" gradientUnits="userSpaceOnUse"><stop stop-color="#C91C51"/><stop offset="1" stop-color="#D2226C"/></linearGradient><linearGradient id="M" x1="5.1" x2="5.1" y1="21.1" y2="25.2" gradientUnits="userSpaceOnUse"><stop stop-color="#EBB13C"/><stop offset="1" stop-color="#E3914A"/></linearGradient><linearGradient id="P" x1="22.5" x2="22.5" y1="8.2" y2="15.9" gradientUnits="userSpaceOnUse"><stop offset=".8" stop-color="#FFD452"/><stop offset="1" stop-color="#FFD452" stop-opacity="0"/></linearGradient><filter id="j" width="16.2" height="16.7" x="7.1" y="7.5" color-interpolation-filters="sRGB" filterUnits="userSpaceOnUse"><feFlood flood-opacity="0" result="BackgroundImageFix"/><feBlend in="SourceGraphic" in2="BackgroundImageFix" result="shape"/><feColorMatrix in="SourceAlpha" result="hardAlpha" values="0 0 0 0 0 0 0 0 0 0 0 0 0 0 0 0 0 0 127 0"/><feOffset dy="-.5"/><feGaussianBlur stdDeviation=".5"/><feComposite in2="hardAlpha" k2="-1" k3="1" operator="arithmetic"/><feColorMatrix values="0 0 0 0 0.886275 0 0 0 0 0.498039 0 0 0 0 0.305882 0 0 0 1 0"/><feBlend in2="shape" result="effect1_innerShadow_18_17915"/><feColorMatrix in="SourceAlpha" result="hardAlpha" values="0 0 0 0 0 0 0 0 0 0 0 0 0 0 0 0 0 0 127 0"/><feOffset dy="-.1"/><feGaussianBlur stdDeviation=".3"/><feComposite in2="hardAlpha" k2="-1" k3="1" operator="arithmetic"/><feColorMatrix values="0 0 0 0 0.85098 0 0 0 0 0.486275 0 0 0 0 0.403922 0 0 0 1 0"/><feBlend in2="effect1_innerShadow_18_17915" result="effect2_innerShadow_18_17915"/></filter><filter id="m" width="15.6" height="15.6" x="7.6" y="8.2" color-interpolation-filters="sRGB" filterUnits="userSpaceOnUse"><feFlood flood-opacity="0" result="BackgroundImageFix"/><feBlend in="SourceGraphic" in2="BackgroundImageFix" result="shape"/><feGaussianBlur result="effect1_foregroundBlur_18_17915" stdDeviation=".4"/></filter><filter id="o" width="13.4" height="21.7" x="14.7" y="2.5" color-interpolation-filters="sRGB" filterUnits="userSpaceOnUse"><feFlood flood-opacity="0" result="BackgroundImageFix"/><feBlend in="SourceGraphic" in2="BackgroundImageFix" result="shape"/><feColorMatrix in="SourceAlpha" result="hardAlpha" values="0 0 0 0 0 0 0 0 0 0 0 0 0 0 0 0 0 0 127 0"/><feOffset dx="1"/><feGaussianBlur stdDeviation=".8"/><feComposite in2="hardAlpha" k2="-1" k3="1" operator="arithmetic"/><feColorMatrix values="0 0 0 0 0.945098 0 0 0 0 0.619608 0 0 0 0 0.180392 0 0 0 1 0"/><feBlend in2="shape" result="effect1_innerShadow_18_17915"/><feColorMatrix in="SourceAlpha" result="hardAlpha" values="0 0 0 0 0 0 0 0 0 0 0 0 0 0 0 0 0 0 127 0"/><feOffset dx=".1" dy="-.2"/><feGaussianBlur stdDeviation=".3"/><feComposite in2="hardAlpha" k2="-1" k3="1" operator="arithmetic"/><feColorMatrix values="0 0 0 0 0.905882 0 0 0 0 0.541176 0 0 0 0 0.466667 0 0 0 1 0"/><feBlend in2="effect1_innerShadow_18_17915" result="effect2_innerShadow_18_17915"/></filter><filter id="L" width="2" height="4.6" x="4.2" y="20.5" color-interpolation-filters="sRGB" filterUnits="userSpaceOnUse"><feFlood flood-opacity="0" result="BackgroundImageFix"/><feBlend in="SourceGraphic" in2="BackgroundImageFix" result="shape"/><feColorMatrix in="SourceAlpha" result="hardAlpha" values="0 0 0 0 0 0 0 0 0 0 0 0 0 0 0 0 0 0 127 0"/><feOffset dx=".2" dy="-.3"/><feGaussianBlur stdDeviation=".3"/><feComposite in2="hardAlpha" k2="-1" k3="1" operator="arithmetic"/><feColorMatrix values="0 0 0 0 0.827451 0 0 0 0 0.52549 0 0 0 0 0.486275 0 0 0 1 0"/><feBlend in2="shape" result="effect1_innerShadow_18_17915"/></filter><filter id="O" width="2.3" height="10" x="21.4" y="7.4" color-interpolation-filters="sRGB" filterUnits="userSpaceOnUse"><feFlood flood-opacity="0" result="BackgroundImageFix"/><feBlend in="SourceGraphic" in2="BackgroundImageFix" result="shape"/><feGaussianBlur result="effect1_foregroundBlur_18_17915" stdDeviation=".4"/></filter></defs></svg>