<svg xmlns="http://www.w3.org/2000/svg" width="32" height="32" fill="none"><g filter="url(#a)"><circle cx="16" cy="13.8" r="11.8" fill="url(#b)"/><circle cx="16" cy="13.8" r="11.8" fill="url(#c)"/><circle cx="16" cy="13.8" r="11.8" fill="url(#d)"/><circle cx="16" cy="13.8" r="11.8" fill="url(#e)"/></g><g filter="url(#f)"><path fill="#453852" fill-rule="evenodd" d="M10 16.9a1 1 0 0 0-1-.9l-1.4-.5a.6.6 0 0 1 0-1l1.4-.6q.6-.2.8-.8l.6-2.1c.2-.5.8-.5 1 0l.6 2q.2.8.8.9t1.5.5q.6.7 0 1l-1.5.6a1 1 0 0 0-.8.9l-.6 2c-.2.5-.8.5-1 0z" clip-rule="evenodd"/></g><g filter="url(#g)"><path fill="url(#h)" fill-rule="evenodd" d="M10 16.9a1 1 0 0 0-1-.9l-1.4-.5a.6.6 0 0 1 0-1l1.4-.6q.6-.2.8-.8l.6-2.1c.2-.5.8-.5 1 0l.6 2q.2.8.8.9t1.5.5q.6.7 0 1l-1.5.6a1 1 0 0 0-.8.9l-.6 2c-.2.5-.8.5-1 0z" clip-rule="evenodd"/></g><g filter="url(#i)"><path fill="url(#j)" fill-rule="evenodd" d="m14 7.2-.2-.3-.6-.2a.2.2 0 0 1 0-.4l.6-.3.3-.3.2-.8q.2-.3.4 0l.3.8q0 .3.3.3l.6.3q.1.1 0 .4l-.6.2q-.3 0-.3.3l-.3.9q-.1.3-.4 0z" clip-rule="evenodd"/></g><g filter="url(#k)"><path fill="url(#l)" fill-rule="evenodd" d="M21.8 11.6q0-.5-.4-.5l-.9-.3a.3.3 0 0 1 0-.6l.9-.4q.3 0 .4-.4l.4-1.2q.3-.4.5 0l.4 1.2q0 .3.5.4l.8.4q.3.2 0 .6l-.8.3q-.5 0-.5.5t-.4 1.1q-.2.5-.5 0z" clip-rule="evenodd"/></g><g filter="url(#m)"><path fill="url(#n)" fill-rule="evenodd" d="M21.8 11.6q0-.5-.4-.5l-.9-.3a.3.3 0 0 1 0-.6l.9-.4q.3 0 .4-.4l.4-1.2q.3-.4.5 0l.4 1.2q0 .3.5.4l.8.4q.3.2 0 .6l-.8.3q-.5 0-.5.5t-.4 1.1q-.2.5-.5 0z" clip-rule="evenodd"/></g><path fill="url(#o)" d="m8.8 23.2-.2.1L7 27.5c-.4 1.2.4 2.4 1.6 2.4h14.5c1.2 0 2-1.2 1.7-2.4l-1.5-4.2-.3-.1z"/><path fill="url(#p)" d="m8.8 23.2-.2.1L7 27.5c-.4 1.2.4 2.4 1.6 2.4h14.5c1.2 0 2-1.2 1.7-2.4l-1.5-4.2-.3-.1z"/><path fill="url(#q)" d="m8.8 23.2-.2.1L7 27.5c-.4 1.2.4 2.4 1.6 2.4h14.5c1.2 0 2-1.2 1.7-2.4l-1.5-4.2-.3-.1z"/><path fill="url(#r)" d="m8.8 23.2-.2.1L7 27.5c-.4 1.2.4 2.4 1.6 2.4h14.5c1.2 0 2-1.2 1.7-2.4l-1.5-4.2-.3-.1z"/><path fill="url(#s)" d="m8.8 23.2-.2.1L7 27.5c-.4 1.2.4 2.4 1.6 2.4h14.5c1.2 0 2-1.2 1.7-2.4l-1.5-4.2-.3-.1z"/><defs><linearGradient id="e" x1="16" x2="16" y1="23.3" y2="22.7" gradientUnits="userSpaceOnUse"><stop stop-color="#392E48"/><stop offset="1" stop-color="#392E48" stop-opacity="0"/></linearGradient><linearGradient id="h" x1="13.7" x2="9.4" y1="12.9" y2="17.2" gradientUnits="userSpaceOnUse"><stop stop-color="#FFC154"/><stop offset="1" stop-color="#FFA271"/></linearGradient><linearGradient id="j" x1="15.4" x2="13.9" y1="5.8" y2="7.2" gradientUnits="userSpaceOnUse"><stop offset="0" stop-color="#F2C954"/><stop offset="1" stop-color="#F7B669"/></linearGradient><linearGradient id="l" x1="23.8" x2="21.6" y1="9.5" y2="11.6" gradientUnits="userSpaceOnUse"><stop stop-color="#FFC154"/><stop offset="1" stop-color="#FFA271"/></linearGradient><linearGradient id="n" x1="23.8" x2="21.6" y1="9.5" y2="11.6" gradientUnits="userSpaceOnUse"><stop offset="0" stop-color="#FEC953"/><stop offset="1" stop-color="#EEA654"/></linearGradient><linearGradient id="o" x1="8.1" x2="21.1" y1="28" y2="28" gradientUnits="userSpaceOnUse"><stop stop-color="#B9A6CD"/><stop offset="1" stop-color="#F1EAF6"/></linearGradient><linearGradient id="p" x1="24.6" x2="22.9" y1="25.3" y2="25.9" gradientUnits="userSpaceOnUse"><stop stop-color="#D9D7DF"/><stop offset="1" stop-color="#D9D7DF" stop-opacity="0"/></linearGradient><linearGradient id="q" x1="16.8" x2="16.8" y1="29.9" y2="28" gradientUnits="userSpaceOnUse"><stop stop-color="#CF8EEB"/><stop offset="1" stop-color="#CF8EEB" stop-opacity="0"/></linearGradient><linearGradient id="s" x1="6.7" x2="12" y1="26.5" y2="27.9" gradientUnits="userSpaceOnUse"><stop stop-color="#8B8496"/><stop offset="1" stop-color="#8B8496" stop-opacity="0"/></linearGradient><filter id="a" width="23.9" height="23.6" x="4.2" y="2" color-interpolation-filters="sRGB" filterUnits="userSpaceOnUse"><feFlood flood-opacity="0" result="BackgroundImageFix"/><feBlend in="SourceGraphic" in2="BackgroundImageFix" result="shape"/><feColorMatrix in="SourceAlpha" result="hardAlpha" values="0 0 0 0 0 0 0 0 0 0 0 0 0 0 0 0 0 0 127 0"/><feOffset dx=".3"/><feGaussianBlur stdDeviation="1"/><feComposite in2="hardAlpha" k2="-1" k3="1" operator="arithmetic"/><feColorMatrix values="0 0 0 0 0.368627 0 0 0 0 0.341176 0 0 0 0 0.411765 0 0 0 1 0"/><feBlend in2="shape" result="effect1_innerShadow_18_3412"/></filter><filter id="f" width="8.4" height="9.7" x="6.8" y="10.1" color-interpolation-filters="sRGB" filterUnits="userSpaceOnUse"><feFlood flood-opacity="0" result="BackgroundImageFix"/><feBlend in="SourceGraphic" in2="BackgroundImageFix" result="shape"/><feGaussianBlur result="effect1_foregroundBlur_18_3412" stdDeviation=".3"/></filter><filter id="g" width="7.7" height="9" x="7.2" y="10.5" color-interpolation-filters="sRGB" filterUnits="userSpaceOnUse"><feFlood flood-opacity="0" result="BackgroundImageFix"/><feBlend in="SourceGraphic" in2="BackgroundImageFix" result="shape"/><feColorMatrix in="SourceAlpha" result="hardAlpha" values="0 0 0 0 0 0 0 0 0 0 0 0 0 0 0 0 0 0 127 0"/><feOffset dx=".1" dy="-.1"/><feGaussianBlur stdDeviation=".4"/><feComposite in2="hardAlpha" k2="-1" k3="1" operator="arithmetic"/><feColorMatrix values="0 0 0 0 0.94902 0 0 0 0 0.513726 0 0 0 0 0.392157 0 0 0 1 0"/><feBlend in2="shape" result="effect1_innerShadow_18_3412"/><feColorMatrix in="SourceAlpha" result="hardAlpha" values="0 0 0 0 0 0 0 0 0 0 0 0 0 0 0 0 0 0 127 0"/><feOffset dx="-.1" dy=".1"/><feGaussianBlur stdDeviation=".3"/><feComposite in2="hardAlpha" k2="-1" k3="1" operator="arithmetic"/><feColorMatrix values="0 0 0 0 1 0 0 0 0 0.823529 0 0 0 0 0.407843 0 0 0 1 0"/><feBlend in2="effect1_innerShadow_18_3412" result="effect2_innerShadow_18_3412"/></filter><filter id="i" width="3.2" height="3.7" x="12.9" y="4.6" color-interpolation-filters="sRGB" filterUnits="userSpaceOnUse"><feFlood flood-opacity="0" result="BackgroundImageFix"/><feBlend in="SourceGraphic" in2="BackgroundImageFix" result="shape"/><feColorMatrix in="SourceAlpha" result="hardAlpha" values="0 0 0 0 0 0 0 0 0 0 0 0 0 0 0 0 0 0 127 0"/><feOffset dx=".1" dy="-.1"/><feGaussianBlur stdDeviation=".1"/><feComposite in2="hardAlpha" k2="-1" k3="1" operator="arithmetic"/><feColorMatrix values="0 0 0 0 0.952941 0 0 0 0 0.694118 0 0 0 0 0.396078 0 0 0 1 0"/><feBlend in2="shape" result="effect1_innerShadow_18_3412"/><feColorMatrix in="SourceAlpha" result="hardAlpha" values="0 0 0 0 0 0 0 0 0 0 0 0 0 0 0 0 0 0 127 0"/><feOffset dx="-.1" dy=".1"/><feGaussianBlur stdDeviation=".1"/><feComposite in2="hardAlpha" k2="-1" k3="1" operator="arithmetic"/><feColorMatrix values="0 0 0 0 1 0 0 0 0 0.823529 0 0 0 0 0.407843 0 0 0 1 0"/><feBlend in2="effect1_innerShadow_18_3412" result="effect2_innerShadow_18_3412"/></filter><filter id="k" width="4.5" height="5.3" x="20.2" y="7.8" color-interpolation-filters="sRGB" filterUnits="userSpaceOnUse"><feFlood flood-opacity="0" result="BackgroundImageFix"/><feBlend in="SourceGraphic" in2="BackgroundImageFix" result="shape"/><feColorMatrix in="SourceAlpha" result="hardAlpha" values="0 0 0 0 0 0 0 0 0 0 0 0 0 0 0 0 0 0 127 0"/><feOffset dx=".1" dy="-.1"/><feGaussianBlur stdDeviation=".4"/><feComposite in2="hardAlpha" k2="-1" k3="1" operator="arithmetic"/><feColorMatrix values="0 0 0 0 0.94902 0 0 0 0 0.513726 0 0 0 0 0.392157 0 0 0 1 0"/><feBlend in2="shape" result="effect1_innerShadow_18_3412"/><feColorMatrix in="SourceAlpha" result="hardAlpha" values="0 0 0 0 0 0 0 0 0 0 0 0 0 0 0 0 0 0 127 0"/><feOffset dx="-.1" dy=".1"/><feGaussianBlur stdDeviation=".3"/><feComposite in2="hardAlpha" k2="-1" k3="1" operator="arithmetic"/><feColorMatrix values="0 0 0 0 1 0 0 0 0 0.823529 0 0 0 0 0.407843 0 0 0 1 0"/><feBlend in2="effect1_innerShadow_18_3412" result="effect2_innerShadow_18_3412"/></filter><filter id="m" width="4.5" height="5.2" x="20.2" y="7.9" color-interpolation-filters="sRGB" filterUnits="userSpaceOnUse"><feFlood flood-opacity="0" result="BackgroundImageFix"/><feBlend in="SourceGraphic" in2="BackgroundImageFix" result="shape"/><feColorMatrix in="SourceAlpha" result="hardAlpha" values="0 0 0 0 0 0 0 0 0 0 0 0 0 0 0 0 0 0 127 0"/><feOffset dx="-.1" dy=".1"/><feGaussianBlur stdDeviation=".3"/><feComposite in2="hardAlpha" k2="-1" k3="1" operator="arithmetic"/><feColorMatrix values="0 0 0 0 1 0 0 0 0 0.886275 0 0 0 0 0.513726 0 0 0 1 0"/><feBlend in2="shape" result="effect1_innerShadow_18_3412"/><feColorMatrix in="SourceAlpha" result="hardAlpha" values="0 0 0 0 0 0 0 0 0 0 0 0 0 0 0 0 0 0 127 0"/><feOffset dx=".1" dy="-.1"/><feGaussianBlur stdDeviation=".1"/><feComposite in2="hardAlpha" k2="-1" k3="1" operator="arithmetic"/><feColorMatrix values="0 0 0 0 0.988235 0 0 0 0 0.619608 0 0 0 0 0.447059 0 0 0 1 0"/><feBlend in2="effect1_innerShadow_18_3412" result="effect2_innerShadow_18_3412"/></filter><radialGradient id="b" cx="0" cy="0" r="1" gradientTransform="rotate(126.3 8.5 10.8)scale(14.8921)" gradientUnits="userSpaceOnUse"><stop stop-color="#7B7486"/><stop offset=".8" stop-color="#35303C"/></radialGradient><radialGradient id="c" cx="0" cy="0" r="1" gradientTransform="matrix(8.336 -12.08372 14.93392 10.30222 13.4 22.1)" gradientUnits="userSpaceOnUse"><stop stop-color="#5C4077"/><stop offset="1" stop-color="#5C4077" stop-opacity="0"/></radialGradient><radialGradient id="d" cx="0" cy="0" r="1" gradientTransform="matrix(1 -1.5 2.23876 1.49251 8.6 23.8)" gradientUnits="userSpaceOnUse"><stop stop-color="#66547A"/><stop offset="1" stop-color="#66547A" stop-opacity="0"/></radialGradient><radialGradient id="r" cx="0" cy="0" r="1" gradientTransform="matrix(0 -5.87123 14.7007 0 17.2 32.4)" gradientUnits="userSpaceOnUse"><stop stop-color="#CF8EEB"/><stop offset="1" stop-color="#CF8EEB" stop-opacity="0"/></radialGradient></defs></svg>