<svg xmlns="http://www.w3.org/2000/svg" width="32" height="32" fill="none"><path fill="url(#a)" d="M22.8 3c-4.2-2-9.2-.8-12 3l-5.1 7a10.6 10.6 0 1 0 18.2 10.7l3.7-8a9.7 9.7 0 0 0-4.7-12.9"/><path fill="url(#b)" d="M22.8 3c-4.2-2-9.2-.8-12 3l-5.1 7a10.6 10.6 0 1 0 18.2 10.7l3.7-8a9.7 9.7 0 0 0-4.7-12.9"/><path fill="url(#c)" d="M19 16a2 2 0 1 0 0-4 2 2 0 0 0 0 4"/><path fill="url(#d)" d="M9.5 19q1.3-.1 1.5-1.5-.2-1.4-1.5-1.5-1.5.1-1.6 1.5.1 1.4 1.6 1.5"/><path fill="url(#e)" d="M11 25a1 1 0 1 0 0-2 1 1 0 0 0 0 2"/><path fill="url(#f)" d="M23.5 16q.7.3 1.4-.5.4-.9-.3-1.5-.9-.3-1.4.5-.4 1 .3 1.4"/><path fill="url(#g)" d="M19.5 8a1.5 1.5 0 1 0 0-3 1.5 1.5 0 0 0 0 3"/><defs><radialGradient id="a" cx="0" cy="0" r="1" gradientTransform="rotate(126.2 11.7 10.4)scale(31.302)" gradientUnits="userSpaceOnUse"><stop stop-color="#FFE7BB"/><stop offset=".4" stop-color="#EAB994"/><stop offset=".7" stop-color="#DD977F"/><stop offset=".8" stop-color="#D27E76"/><stop offset=".9" stop-color="#C96A6F"/></radialGradient><radialGradient id="c" cx="0" cy="0" r="1" gradientTransform="matrix(3.25 -2 2 3.25 17.8 15)" gradientUnits="userSpaceOnUse"><stop offset=".1" stop-color="#DC9B66"/><stop offset=".5" stop-color="#CC7D4F"/><stop offset="1" stop-color="#CA7544"/></radialGradient><radialGradient id="d" cx="0" cy="0" r="1" gradientTransform="rotate(-21 53 -14)scale(2.4433 2.4608)" gradientUnits="userSpaceOnUse"><stop stop-color="#BB8056"/><stop offset="1" stop-color="#B0693C"/></radialGradient><radialGradient id="e" cx="0" cy="0" r="1" gradientTransform="rotate(-30.5 50.5 -6.7)scale(1.41458)" gradientUnits="userSpaceOnUse"><stop stop-color="#C5805E"/><stop offset="1" stop-color="#B9663B"/></radialGradient><radialGradient id="f" cx="0" cy="0" r="1" gradientTransform="matrix(1.1884 -1.09278 1.15198 1.25277 23.6 15.7)" gradientUnits="userSpaceOnUse"><stop offset=".1" stop-color="#DC9B66"/><stop offset=".9" stop-color="#CA7544"/></radialGradient><radialGradient id="g" cx="0" cy="0" r="1" gradientTransform="matrix(2.71875 .59094 -.69305 3.18853 18.3 6.5)" gradientUnits="userSpaceOnUse"><stop offset=".1" stop-color="#DC9B66"/><stop offset=".9" stop-color="#C97C34"/></radialGradient><linearGradient id="b" x1="5.4" x2="14.6" y1="8.8" y2="12.9" gradientUnits="userSpaceOnUse"><stop stop-color="#AB8261"/><stop offset="1" stop-color="#AE8462" stop-opacity="0"/></linearGradient></defs></svg>