<svg xmlns="http://www.w3.org/2000/svg" width="32" height="32" fill="none"><path fill="url(#a)" d="M2.6 9.6c0-.7.9-2 1.5-3q1-1.2 2 0c.5.8 1.4 2.1 1.4 3q0 1.4-.9 1.9-.4.4-.3 1v3.7q0 1.8 1.7 2.4l4.1 1.6q1 .5.7 1.6a1 1 0 0 1-1.4.7L7.2 21a5 5 0 0 1-3.4-4.8v-3.7q0-.7-.3-1-.8-.7-.9-1.9"/><path fill="url(#b)" d="M2.6 9.6c0-.7.9-2 1.5-3q1-1.2 2 0c.5.8 1.4 2.1 1.4 3q0 1.4-.9 1.9-.4.4-.3 1v3.7q0 1.8 1.7 2.4l4.1 1.6q1 .5.7 1.6a1 1 0 0 1-1.4.7L7.2 21a5 5 0 0 1-3.4-4.8v-3.7q0-.7-.3-1-.8-.7-.9-1.9"/><path fill="url(#c)" d="M2.6 9.6c0-.7.9-2 1.5-3q1-1.2 2 0c.5.8 1.4 2.1 1.4 3q0 1.4-.9 1.9-.4.4-.3 1v3.7q0 1.8 1.7 2.4l4.1 1.6q1 .5.7 1.6a1 1 0 0 1-1.4.7L7.2 21a5 5 0 0 1-3.4-4.8v-3.7q0-.7-.3-1-.8-.7-.9-1.9"/><path fill="url(#d)" d="M5 11.3A1.2 1.2 0 1 0 5 9a1.2 1.2 0 0 0 0 2.3"/><path fill="#CA31AA" d="M5.8 9a.5.5 0 1 0 0-1.1.5.5 0 0 0 0 1"/><path fill="#C631A3" d="M4.2 9a.5.5 0 1 0 0-1.1.5.5 0 0 0 0 1"/><path fill="#C62FA3" d="M5 7.7a.5.5 0 1 0 0-1 .5.5 0 0 0 0 1"/><path fill="url(#e)" d="M29.3 9.6c0-.7-.8-2-1.4-3-.5-.8-1.5-.8-2 0s-1.5 2.1-1.5 3q.1 1.4 1 1.9.3.4.2 1v3.7q0 1.8-1.7 2.4l-4 1.6q-1 .5-.8 1.6a1 1 0 0 0 1.5.7l4.2-1.5a5 5 0 0 0 3.3-4.8v-3.7q-.1-.7.4-1 .8-.7.8-1.9"/><path fill="url(#f)" d="M29.3 9.6c0-.7-.8-2-1.4-3-.5-.8-1.5-.8-2 0s-1.5 2.1-1.5 3q.1 1.4 1 1.9.3.4.2 1v3.7q0 1.8-1.7 2.4l-4 1.6q-1 .5-.8 1.6a1 1 0 0 0 1.5.7l4.2-1.5a5 5 0 0 0 3.3-4.8v-3.7q-.1-.7.4-1 .8-.7.8-1.9"/><path fill="url(#g)" d="M29.3 9.6c0-.7-.8-2-1.4-3-.5-.8-1.5-.8-2 0s-1.5 2.1-1.5 3q.1 1.4 1 1.9.3.4.2 1v3.7q0 1.8-1.7 2.4l-4 1.6q-1 .5-.8 1.6a1 1 0 0 0 1.5.7l4.2-1.5a5 5 0 0 0 3.3-4.8v-3.7q-.1-.7.4-1 .8-.7.8-1.9"/><path fill="url(#h)" d="M26.9 11.3a1.2 1.2 0 1 1 0-2.3 1.2 1.2 0 0 1 0 2.3"/><path fill="#C730A8" d="M26 9a.5.5 0 1 1 0-1.1.5.5 0 0 1 0 1"/><path fill="#CE32AA" d="M27.7 9a.5.5 0 1 1 0-1.1.5.5 0 0 1 0 1"/><path fill="#C62EA4" d="M26.8 7.7a.5.5 0 1 1 0-1 .5.5 0 0 1 0 1"/><path fill="url(#i)" d="M10.5 27.2c-3.1 0-3.2-2-4.3-2q-.8.1-1.1.7c-.4.5-1.3.4-1.7 0q-.7-.8 0-1.6c.4-.7 1-1.7 3-1.7s2.4 2 4 2.1c1 0 1.2-.8 2-1.5.4-.5 1.5-.4 2 0q.6.9 0 1.7l-1 1q-1.2 1.2-2.9 1.3"/><path fill="url(#j)" d="M21.5 27.2c3.1 0 3.3-2 4.3-2q.8.1 1.1.7 1 .7 1.7 0 .7-.8.1-1.6c-.4-.7-1-1.7-3-1.7-2.2 0-2.5 2-4.1 2.1-1 0-1.2-.8-2-1.5-.4-.5-1.5-.4-2 0q-.6.9 0 1.7l1 1q1.2 1.2 3 1.3"/><g filter="url(#k)"><path stroke="url(#l)" stroke-linecap="round" d="M28 25.2c-.3-.5-1-1.4-2.2-1.2-1.4.1-2 1.9-4 1.9a3 3 0 0 1-2.7-1.5"/></g><path fill="url(#m)" d="M5.1 30h7.5c1.5 0 2.9-1 3.3-2.5l.1-.8V24c0-1.4-1.2-2-1.6-.6l-1 3.5q0 .7-.8.7H5q-1 .2-1 1.3 0 1 1 1.1"/><path fill="#C01A8D" d="M26.9 30h-7.5q-2.4-.1-3.2-2.5l-.2-.8V24c0-1.4 1.2-2 1.6-.6l1 3.5q.2.7.8.7H27q1 .2 1.1 1.3-.1 1-1.1 1.1"/><g filter="url(#n)"><path stroke="url(#o)" stroke-linecap="round" d="M5.2 12.2v4.5c0 .6 1 2.3 2.1 2.7l4.3 1.7"/></g><g stroke-linecap="round" filter="url(#p)"><path stroke="url(#q)" d="M5.4 28.9h7.7c.4 0 1.3.1 1.7-1 .3-.6.4-2.3.4-2.6"/><path stroke="url(#r)" d="M5.4 28.9h7.7c.4 0 1.3.1 1.7-1 .3-.6.4-2.3.4-2.6"/></g><g filter="url(#s)"><path stroke="url(#t)" stroke-linecap="round" d="M27.3 12.2v4.5c0 .6-1 2.3-2 2.7l-4.4 1.7"/></g><path fill="url(#u)" d="M26.9 30h-7.5q-2.4-.1-3.2-2.5l-.2-.8V24c0-1.4 1.2-2 1.6-.6l1 3.5q.2.7.8.7H27q1 .2 1.1 1.3-.1 1-1.1 1.1"/><g stroke-linecap="round" filter="url(#v)"><path stroke="url(#w)" d="M26.9 28.7h-7.2c-.5 0-1.5 0-1.7-.8-.3-.7-.6-2.3-.7-2.6"/><path stroke="url(#x)" d="M26.9 28.7h-7.2c-.5 0-1.5 0-1.7-.8-.3-.7-.6-2.3-.7-2.6"/></g><g filter="url(#y)"><path stroke="url(#z)" stroke-linecap="round" d="M4.2 25.5c.3-.5 1-1.4 2.2-1.3 1.4.2 2 2 4 2a3 3 0 0 0 2.7-1.5"/></g><path fill="url(#A)" d="M18.3 25h-4.5c-1.4 0-2.8-1.1-2.8-2.5v-2.2h10v2.2c0 1.4-1.4 2.5-2.7 2.5"/><path fill="url(#B)" d="M18.3 25h-4.5c-1.4 0-2.8-1.1-2.8-2.5v-2.2h10v2.2c0 1.4-1.4 2.5-2.7 2.5"/><path fill="url(#C)" d="M18.3 25h-4.5c-1.4 0-2.8-1.1-2.8-2.5v-2.2h10v2.2c0 1.4-1.4 2.5-2.7 2.5"/><path fill="url(#D)" d="M18.3 25h-4.5c-1.4 0-2.8-1.1-2.8-2.5v-2.2h10v2.2c0 1.4-1.4 2.5-2.7 2.5"/><path fill="url(#E)" d="M22.6 8 18 3a3 3 0 0 0-4 0L9.5 8q-.9 1.2 0 2.3l5.4 4.9q1.1.9 2.2 0l5.5-5c.6-.5.6-1.5 0-2.1"/><g filter="url(#F)"><path fill="url(#G)" d="m22.2 8.1-4.3-4.7c-1-1-2.7-1-3.7 0L9.9 8.1q-.9 1 0 2.1l5.1 4.6q1 .9 2 0l5.2-4.6q.8-1 0-2"/><path fill="url(#H)" d="m22.2 8.1-4.3-4.7c-1-1-2.7-1-3.7 0L9.9 8.1q-.9 1 0 2.1l5.1 4.6q1 .9 2 0l5.2-4.6q.8-1 0-2"/></g><path fill="url(#I)" d="M16 2q-2 .1-2.7 1.9S9 15.3 9 16.8c0 1.4.3 1.5 1.3 2.7q.8 1.3.8 1.1h10l.8-.9c1-1.2 1.3-1.7 1.3-3C23 15.6 18.6 4 18.6 4A3 3 0 0 0 16 2"/><path fill="url(#J)" d="M16 2q-2 .1-2.7 1.9S9 15.3 9 16.8c0 1.4.3 1.5 1.3 2.7q.8 1.3.8 1.1h10l.8-.9c1-1.2 1.3-1.7 1.3-3C23 15.6 18.6 4 18.6 4A3 3 0 0 0 16 2"/><path fill="url(#K)" d="M16 2q-2 .1-2.7 1.9S9 15.3 9 16.8c0 1.4.3 1.5 1.3 2.7q.8 1.3.8 1.1h10l.8-.9c1-1.2 1.3-1.7 1.3-3C23 15.6 18.6 4 18.6 4A3 3 0 0 0 16 2"/><path fill="url(#L)" d="M16 2q-2 .1-2.7 1.9S9 15.3 9 16.8c0 1.4.3 1.5 1.3 2.7q.8 1.3.8 1.1h10l.8-.9c1-1.2 1.3-1.7 1.3-3C23 15.6 18.6 4 18.6 4A3 3 0 0 0 16 2"/><path fill="url(#M)" d="M16 2q-2 .1-2.7 1.9S9 15.3 9 16.8c0 1.4.3 1.5 1.3 2.7q.8 1.3.8 1.1h10l.8-.9c1-1.2 1.3-1.7 1.3-3C23 15.6 18.6 4 18.6 4A3 3 0 0 0 16 2"/><path fill="url(#N)" d="M16 2q-2 .1-2.7 1.9S9 15.3 9 16.8c0 1.4.3 1.5 1.3 2.7q.8 1.3.8 1.1h10l.8-.9c1-1.2 1.3-1.7 1.3-3C23 15.6 18.6 4 18.6 4A3 3 0 0 0 16 2"/><path fill="url(#O)" d="M18 13.7a1.1 1.1 0 1 0 0-2.2 1.1 1.1 0 0 0 0 2.2"/><path fill="url(#P)" d="M15 12.7a.7.7 0 1 0 0-1.5.7.7 0 0 0 0 1.5"/><path fill="url(#Q)" d="M15 16.1a1.1 1.1 0 1 0 0-2.2 1.1 1.1 0 0 0 0 2.2"/><path fill="url(#R)" d="M13.5 23.5a.8.8 0 1 0 0-1.5.8.8 0 0 0 0 1.5"/><path fill="url(#S)" d="M18.4 23.5a.8.8 0 1 0 0-1.5.8.8 0 0 0 0 1.5"/><g filter="url(#T)"><ellipse cx="27.2" cy="28.5" fill="#EE71C8" rx=".6" ry=".4" transform="rotate(46.8 27.2 28.5)"/></g><g filter="url(#U)"><path fill="#EE71C8" d="M28.5 25.1c-.2.2-.5-.4-.7-.6s-1-1-.8-1c.2-.2 1 .4 1.2.7q.4.5.3 1"/></g><defs><linearGradient id="a" x1="7.8" x2="7.8" y1="6" y2="22.5" gradientUnits="userSpaceOnUse"><stop stop-color="#E95ACB"/><stop offset=".6" stop-color="#CA379F"/><stop offset=".9" stop-color="#A5035F"/><stop offset="1" stop-color="#B91B92"/></linearGradient><linearGradient id="d" x1="5.1" x2="5.1" y1="9" y2="11.3" gradientUnits="userSpaceOnUse"><stop stop-color="#CA31B3"/><stop offset="1" stop-color="#C521A9"/></linearGradient><linearGradient id="e" x1="24.2" x2="24.2" y1="6" y2="22.5" gradientUnits="userSpaceOnUse"><stop offset="0" stop-color="#E95ACB"/><stop offset=".6" stop-color="#CA379F"/><stop offset=".9" stop-color="#A5035F"/><stop offset="1" stop-color="#B91B92"/></linearGradient><linearGradient id="h" x1="26.9" x2="26.9" y1="9" y2="11.3" gradientUnits="userSpaceOnUse"><stop stop-color="#CC31B4"/><stop offset="1" stop-color="#C923AB"/></linearGradient><linearGradient id="i" x1="9.5" x2="8.4" y1="22.6" y2="26.8" gradientUnits="userSpaceOnUse"><stop offset=".2" stop-color="#B63377"/><stop offset=".9" stop-color="#C926A3"/></linearGradient><linearGradient id="j" x1="22.5" x2="23.6" y1="22.6" y2="26.8" gradientUnits="userSpaceOnUse"><stop offset=".2" stop-color="#B63377"/><stop offset=".9" stop-color="#C926A3"/></linearGradient><linearGradient id="l" x1="19.4" x2="27.9" y1="24.3" y2="24.3" gradientUnits="userSpaceOnUse"><stop stop-color="#D23DB0"/><stop offset="1" stop-color="#E352C5"/></linearGradient><linearGradient id="m" x1="10" x2="10" y1="22.6" y2="30" gradientUnits="userSpaceOnUse"><stop offset=".6" stop-color="#C01A8D"/><stop offset="1" stop-color="#EE40EF"/></linearGradient><linearGradient id="o" x1="11.4" x2="5.5" y1="13" y2="12.2" gradientUnits="userSpaceOnUse"><stop offset="0" stop-color="#DC52BA" stop-opacity="0"/><stop offset="1" stop-color="#E350C6"/></linearGradient><linearGradient id="q" x1="14.9" x2="5.6" y1="26.2" y2="26.2" gradientUnits="userSpaceOnUse"><stop stop-color="#D23DB0"/><stop offset="1" stop-color="#E352C5"/></linearGradient><linearGradient id="r" x1="14.9" x2="14.9" y1="24.9" y2="26.5" gradientUnits="userSpaceOnUse"><stop stop-color="#C51A9D"/><stop offset=".6" stop-color="#BB0986" stop-opacity="0"/></linearGradient><linearGradient id="t" x1="14.1" x2="27" y1="22.4" y2="12.2" gradientUnits="userSpaceOnUse"><stop offset="0" stop-color="#DC52BA" stop-opacity="0"/><stop offset="1" stop-color="#E350C6"/></linearGradient><linearGradient id="u" x1="22" x2="22" y1="22.6" y2="30" gradientUnits="userSpaceOnUse"><stop offset=".6" stop-color="#C01A8D"/><stop offset="1" stop-color="#EE40EF"/></linearGradient><linearGradient id="w" x1="17.6" x2="26.9" y1="26.2" y2="26.2" gradientUnits="userSpaceOnUse"><stop stop-color="#D23DB0"/><stop offset="1" stop-color="#E352C5"/></linearGradient><linearGradient id="x" x1="17.9" x2="17.9" y1="25" y2="26.2" gradientUnits="userSpaceOnUse"><stop stop-color="#C3128C"/><stop offset=".4" stop-color="#C71D96" stop-opacity="0"/></linearGradient><linearGradient id="z" x1="12.8" x2="4.3" y1="24.6" y2="24.6" gradientUnits="userSpaceOnUse"><stop stop-color="#D23DB0"/><stop offset="1" stop-color="#E352C5"/></linearGradient><linearGradient id="E" x1="16" x2="16" y1="2.2" y2="12.3" gradientUnits="userSpaceOnUse"><stop offset=".2" stop-color="#F678C8"/><stop offset="1" stop-color="#C8369E"/></linearGradient><linearGradient id="G" x1="10.3" x2="21.8" y1="8.9" y2="8.9" gradientUnits="userSpaceOnUse"><stop stop-color="#D852B5"/><stop offset="1" stop-color="#EA5BC3"/></linearGradient><linearGradient id="H" x1="12.7" x2="11.6" y1="7.7" y2="7.3" gradientUnits="userSpaceOnUse"><stop stop-color="#C13692" stop-opacity="0"/><stop offset=".4" stop-color="#C12D91"/><stop offset="1" stop-color="#C13493" stop-opacity="0"/></linearGradient><linearGradient id="I" x1="16" x2="16" y1="2" y2="18.8" gradientUnits="userSpaceOnUse"><stop stop-color="#DA58B0"/><stop offset=".6" stop-color="#E053B9"/><stop offset="1" stop-color="#C732A0"/></linearGradient><linearGradient id="K" x1="16" x2="16" y1="15.7" y2="20.6" gradientUnits="userSpaceOnUse"><stop offset=".2" stop-color="#DD31BC" stop-opacity="0"/><stop offset=".5" stop-color="#D81DB4"/></linearGradient><linearGradient id="O" x1="16.8" x2="19.1" y1="12.8" y2="12.8" gradientUnits="userSpaceOnUse"><stop stop-color="#B644A0"/><stop offset="1" stop-color="#C154A8"/></linearGradient><linearGradient id="P" x1="14.3" x2="15.7" y1="11.9" y2="11.9" gradientUnits="userSpaceOnUse"><stop stop-color="#9E298B"/><stop offset="1" stop-color="#A83194"/></linearGradient><linearGradient id="Q" x1="13.9" x2="16.2" y1="15.2" y2="15.2" gradientUnits="userSpaceOnUse"><stop stop-color="#A0288D"/><stop offset="1" stop-color="#AC3498"/></linearGradient><radialGradient id="b" cx="0" cy="0" r="1" gradientTransform="matrix(-1.18751 2.875 -23.52112 -9.71536 10.3 22)" gradientUnits="userSpaceOnUse"><stop stop-color="#B91E98"/><stop offset="1" stop-color="#B81790" stop-opacity="0"/></radialGradient><radialGradient id="c" cx="0" cy="0" r="1" gradientTransform="rotate(64.7 -2.9 8.9)scale(6.43021 4.98968)" gradientUnits="userSpaceOnUse"><stop stop-color="#F073CB"/><stop offset="1" stop-color="#E95ACC" stop-opacity="0"/></radialGradient><radialGradient id="f" cx="0" cy="0" r="1" gradientTransform="matrix(1.66148 4.21875 -15.10201 5.94765 22.5 22.3)" gradientUnits="userSpaceOnUse"><stop stop-color="#C8199D"/><stop offset="1" stop-color="#C6199B" stop-opacity="0"/></radialGradient><radialGradient id="g" cx="0" cy="0" r="1" gradientTransform="matrix(.75 4.75 -2.95233 .46616 28.1 8)" gradientUnits="userSpaceOnUse"><stop stop-color="#F475CE"/><stop offset="1" stop-color="#EB5BCD" stop-opacity="0"/></radialGradient><radialGradient id="A" cx="0" cy="0" r="1" gradientTransform="rotate(139.7 5.6 14)scale(5.89789 12.4997)" gradientUnits="userSpaceOnUse"><stop offset=".1" stop-color="#FE6DE1"/><stop offset=".5" stop-color="#ED50D7"/><stop offset="1" stop-color="#DC2ACD"/></radialGradient><radialGradient id="B" cx="0" cy="0" r="1" gradientTransform="matrix(-2.75 0 0 -2.87222 19.8 25)" gradientUnits="userSpaceOnUse"><stop stop-color="#D627AC"/><stop offset="1" stop-color="#D320AB" stop-opacity="0"/></radialGradient><radialGradient id="C" cx="0" cy="0" r="1" gradientTransform="matrix(1.9375 1.625 -1.69722 2.02361 11.7 24.7)" gradientUnits="userSpaceOnUse"><stop stop-color="#C81EAC"/><stop offset="1" stop-color="#C620AA" stop-opacity="0"/></radialGradient><radialGradient id="D" cx="0" cy="0" r="1" gradientTransform="matrix(-.17785 2.75017 -2.13597 -.13813 11.3 22.2)" gradientUnits="userSpaceOnUse"><stop stop-color="#D578B5"/><stop offset="1" stop-color="#D578B5" stop-opacity="0"/></radialGradient><radialGradient id="J" cx="0" cy="0" r="1" gradientTransform="matrix(1.25001 14.56255 -3.764 .3231 19.3 8.6)" gradientUnits="userSpaceOnUse"><stop stop-color="#FC7DD3"/><stop offset="1" stop-color="#FE7CD4" stop-opacity="0"/></radialGradient><radialGradient id="L" cx="0" cy="0" r="1" gradientTransform="rotate(103 3.8 7.8)scale(6.41318 1.9693)" gradientUnits="userSpaceOnUse"><stop stop-color="#DC7EB7"/><stop offset="1" stop-color="#DD81B9" stop-opacity="0"/></radialGradient><radialGradient id="M" cx="0" cy="0" r="1" gradientTransform="matrix(3.0625 5.3125 -4.03233 2.32452 9.9 18.5)" gradientUnits="userSpaceOnUse"><stop stop-color="#D95AB5"/><stop offset="1" stop-color="#C045A0" stop-opacity="0"/></radialGradient><radialGradient id="N" cx="0" cy="0" r="1" gradientTransform="matrix(2.25 3.1875 -.86932 .61364 9.4 19)" gradientUnits="userSpaceOnUse"><stop stop-color="#AC257D"/><stop offset="1" stop-color="#B22B88" stop-opacity="0"/></radialGradient><radialGradient id="R" cx="0" cy="0" r="1" gradientTransform="rotate(153.3 4.2 12.9)scale(1.18428)" gradientUnits="userSpaceOnUse"><stop stop-color="#504F52"/><stop offset=".5" stop-color="#372546"/><stop offset=".8" stop-color="#362545"/><stop offset="1" stop-color="#5A595B"/></radialGradient><radialGradient id="S" cx="0" cy="0" r="1" gradientTransform="rotate(153.3 6.7 13.5)scale(1.18428)" gradientUnits="userSpaceOnUse"><stop stop-color="#504F52"/><stop offset=".5" stop-color="#372546"/><stop offset=".8" stop-color="#362545"/><stop offset="1" stop-color="#5A595B"/></radialGradient><filter id="k" width="11.9" height="4.9" x="17.6" y="22.5" color-interpolation-filters="sRGB" filterUnits="userSpaceOnUse"><feFlood flood-opacity="0" result="BackgroundImageFix"/><feBlend in="SourceGraphic" in2="BackgroundImageFix" result="shape"/><feGaussianBlur result="effect1_foregroundBlur_18_28271" stdDeviation=".5"/></filter><filter id="n" width="8.9" height="11.3" x="4" y="11" color-interpolation-filters="sRGB" filterUnits="userSpaceOnUse"><feFlood flood-opacity="0" result="BackgroundImageFix"/><feBlend in="SourceGraphic" in2="BackgroundImageFix" result="shape"/><feGaussianBlur result="effect1_foregroundBlur_18_28271" stdDeviation=".4"/></filter><filter id="p" width="12.3" height="6.1" x="4.2" y="24" color-interpolation-filters="sRGB" filterUnits="userSpaceOnUse"><feFlood flood-opacity="0" result="BackgroundImageFix"/><feBlend in="SourceGraphic" in2="BackgroundImageFix" result="shape"/><feGaussianBlur result="effect1_foregroundBlur_18_28271" stdDeviation=".4"/></filter><filter id="s" width="8.9" height="11.3" x="19.6" y="11" color-interpolation-filters="sRGB" filterUnits="userSpaceOnUse"><feFlood flood-opacity="0" result="BackgroundImageFix"/><feBlend in="SourceGraphic" in2="BackgroundImageFix" result="shape"/><feGaussianBlur result="effect1_foregroundBlur_18_28271" stdDeviation=".4"/></filter><filter id="v" width="11.6" height="5.4" x="16.3" y="24.3" color-interpolation-filters="sRGB" filterUnits="userSpaceOnUse"><feFlood flood-opacity="0" result="BackgroundImageFix"/><feBlend in="SourceGraphic" in2="BackgroundImageFix" result="shape"/><feGaussianBlur result="effect1_foregroundBlur_18_28271" stdDeviation=".3"/></filter><filter id="y" width="11.9" height="4.9" x="2.7" y="22.7" color-interpolation-filters="sRGB" filterUnits="userSpaceOnUse"><feFlood flood-opacity="0" result="BackgroundImageFix"/><feBlend in="SourceGraphic" in2="BackgroundImageFix" result="shape"/><feGaussianBlur result="effect1_foregroundBlur_18_28271" stdDeviation=".5"/></filter><filter id="F" width="13.6" height="13.1" x="9.2" y="2.4" color-interpolation-filters="sRGB" filterUnits="userSpaceOnUse"><feFlood flood-opacity="0" result="BackgroundImageFix"/><feBlend in="SourceGraphic" in2="BackgroundImageFix" result="shape"/><feGaussianBlur result="effect1_foregroundBlur_18_28271" stdDeviation=".1"/></filter><filter id="T" width="2.4" height="2.5" x="26" y="27.3" color-interpolation-filters="sRGB" filterUnits="userSpaceOnUse"><feFlood flood-opacity="0" result="BackgroundImageFix"/><feBlend in="SourceGraphic" in2="BackgroundImageFix" result="shape"/><feGaussianBlur result="effect1_foregroundBlur_18_28271" stdDeviation=".4"/></filter><filter id="U" width="3" height="3.3" x="26.3" y="22.6" color-interpolation-filters="sRGB" filterUnits="userSpaceOnUse"><feFlood flood-opacity="0" result="BackgroundImageFix"/><feBlend in="SourceGraphic" in2="BackgroundImageFix" result="shape"/><feGaussianBlur result="effect1_foregroundBlur_18_28271" stdDeviation=".4"/></filter></defs></svg>