<svg xmlns="http://www.w3.org/2000/svg" width="32" height="32" fill="none"><path fill="url(#a)" d="M21.1 5.9h-12l.2-.4a6.6 6.6 0 0 1 11.7 0z"/><path fill="url(#b)" d="m9.3 5.5-.2.4h12l-.1-.3q-.4-1-1.2-1.6h-9.4q-.7.7-1 1.5"/><path fill="url(#c)" d="m9.3 5.5-.2.4h12l-.1-.3q-.4-1-1.2-1.6h-9.4q-.7.7-1 1.5"/><g filter="url(#d)"><path fill="url(#e)" d="M10.8 4.8C9.9 4.8 8 5 6.7 6a4 4 0 0 0-1.5 3.1v.5c-.1 1.8 1.4 5 6.9 5h6.2c5.5 0 7-3.2 7-5v-.5q.2-1.6-1.6-3a7 7 0 0 0-4-1.4z"/><path fill="url(#f)" d="M10.8 4.8C9.9 4.8 8 5 6.7 6a4 4 0 0 0-1.5 3.1v.5c-.1 1.8 1.4 5 6.9 5h6.2c5.5 0 7-3.2 7-5v-.5q.2-1.6-1.6-3a7 7 0 0 0-4-1.4z"/></g><path fill="#45BB85" d="M15.1 15.5c-6 0-11 4.9-11 11V30h22v-3.5a11 11 0 0 0-11-11"/><path fill="url(#g)" d="M15.1 15.5c-6 0-11 4.9-11 11V30h22v-3.5a11 11 0 0 0-11-11"/><path fill="url(#h)" d="M8.2 30V18q-3.9 3.1-4 8.5V30z"/><path fill="url(#i)" d="M8.2 30V18q-3.9 3.1-4 8.5V30z"/><path fill="url(#j)" d="M22.2 30V18q3.8 3.1 4 8.5V30z"/><path fill="url(#k)" d="M22.2 30V18q3.8 3.1 4 8.5V30z"/><g filter="url(#l)"><path fill="url(#m)" d="m12.2 21.5 3-2.2 3 2.1c.4.3 1 .5 1-.3v-4.8a11 11 0 0 0-8-.1v4.7c0 1 .6.8 1 .6"/><path fill="url(#n)" d="m12.2 21.5 3-2.2 3 2.1c.4.3 1 .5 1-.3v-4.8a11 11 0 0 0-8-.1v4.7c0 1 .6.8 1 .6"/><path fill="url(#o)" d="m12.2 21.5 3-2.2 3 2.1c.4.3 1 .5 1-.3v-4.8a11 11 0 0 0-8-.1v4.7c0 1 .6.8 1 .6"/></g><path fill="url(#p)" d="m12.2 21.5 3-2.2 3 2.1c.4.3 1 .5 1-.3v-4.8a11 11 0 0 0-8-.1v4.7c0 1 .6.8 1 .6"/><path fill="url(#q)" d="m12.2 21.5 3-2.2 3 2.1c.4.3 1 .5 1-.3v-4.8a11 11 0 0 0-8-.1v4.7c0 1 .6.8 1 .6"/><path fill="url(#r)" d="m16 19.7-.6.6H15l-.7-.6a3 3 0 0 1-1.1-2.6v-3a2 2 0 1 1 4 0v3q0 1.6-1 2.6"/><path fill="url(#s)" d="M15.1 18.7a2 2 0 0 1-2-2.1V14a2 2 0 1 1 4.1 0v2.6c0 1.1-1 2-2 2"/><path fill="url(#t)" d="M15.1 18.7a2 2 0 0 1-2-2.1V14a2 2 0 1 1 4.1 0v2.6c0 1.1-1 2-2 2"/><path fill="url(#u)" d="M17.7 10.2v5.4l1.8-.7q1.5-.5 1.5-2v-2.6z"/><path fill="url(#v)" d="M9.3 10.2v2.7q.1 1.4 1.4 2l2 .7V10z"/><path fill="url(#w)" d="M9.3 10.2v2.7q.1 1.4 1.4 2l2 .7V10z"/><path fill="url(#x)" d="M10.2 12.2a1.7 1.7 0 1 0 0-3.3 1.7 1.7 0 0 0 0 3.3"/><g filter="url(#y)"><path fill="#DA821C" d="M10.2 11.7a1.1 1.1 0 1 0 0-2.3 1.1 1.1 0 0 0 0 2.3"/></g><g filter="url(#z)"><path fill="url(#A)" d="M20 12.2A1.7 1.7 0 1 0 20 9a1.7 1.7 0 0 0 0 3.3"/><path fill="url(#B)" d="M20 12.2A1.7 1.7 0 1 0 20 9a1.7 1.7 0 0 0 0 3.3"/></g><g filter="url(#C)"><path fill="#FFBF34" d="M20 11.7a1.2 1.2 0 1 0 0-2.3 1.2 1.2 0 0 0 0 2.3"/><path fill="url(#D)" d="M20 11.7a1.2 1.2 0 1 0 0-2.3 1.2 1.2 0 0 0 0 2.3"/><path fill="url(#E)" d="M20 11.7a1.2 1.2 0 1 0 0-2.3 1.2 1.2 0 0 0 0 2.3"/></g><path fill="url(#F)" d="M22.2 18q-1-.8-2.1-1.3v5.9q0 .4-.4.4h-9a.4.4 0 0 1-.5-.4v-6l-2 1.4v12h14z"/><path fill="url(#G)" d="M22.2 18q-1-.8-2.1-1.3v5.9q0 .4-.4.4h-9a.4.4 0 0 1-.5-.4v-6l-2 1.4v12h14z"/><path fill="url(#H)" d="M22.2 18q-1-.8-2.1-1.3v5.9q0 .4-.4.4h-9a.4.4 0 0 1-.5-.4v-6l-2 1.4v12h14z"/><path fill="url(#I)" d="M22.2 18q-1-.8-2.1-1.3v5.9q0 .4-.4.4h-9a.4.4 0 0 1-.5-.4v-6l-2 1.4v12h14z"/><path fill="url(#J)" d="M22.2 18q-1-.8-2.1-1.3v5.9q0 .4-.4.4h-9a.4.4 0 0 1-.5-.4v-6l-2 1.4v12h14z"/><g filter="url(#K)"><path fill="#3661C6" d="M18.6 25.8h-7q-.3 0-.4.5v3.6h8v-3.6q0-.5-.6-.5"/></g><g filter="url(#L)"><path fill="url(#M)" d="M18.6 25.8h-7q-.3 0-.4.5V30h8v-3.7q0-.5-.6-.5"/></g><g filter="url(#N)"><path fill="url(#O)" d="M20.4 9v-.2c0-1-.8-2-2-2H12a2 2 0 0 0-2 2l.3 4.7a4 4 0 0 0 4 3.5h1.9a4 4 0 0 0 3.9-3.5z"/></g><path fill="url(#P)" d="M20.4 9v-.2c0-1-.8-2-2-2H12a2 2 0 0 0-2 2l.3 4.7a4 4 0 0 0 4 3.5h1.9a4 4 0 0 0 3.9-3.5z"/><path fill="url(#Q)" d="M20.4 9v-.2c0-1-.8-2-2-2H12a2 2 0 0 0-2 2l.3 4.7a4 4 0 0 0 4 3.5h1.9a4 4 0 0 0 3.9-3.5z"/><path fill="url(#R)" d="M20.4 9v-.2c0-1-.8-2-2-2H12a2 2 0 0 0-2 2l.3 4.7a4 4 0 0 0 4 3.5h1.9a4 4 0 0 0 3.9-3.5z"/><g filter="url(#S)"><path fill="#F1901C" d="m14.6 10.5-.5 1.7q0 .7.5.7h.8q.6 0 .5-.7l-.5-1.7a.4.4 0 0 0-.8 0"/></g><g filter="url(#T)"><path fill="#FFCC28" d="m14.8 10.3-.5 1.7q0 .6.5.7h.8q.6-.1.5-.7l-.5-1.7a.4.4 0 0 0-.8 0"/><path fill="url(#U)" d="m14.8 10.3-.5 1.7q0 .6.5.7h.8q.6-.1.5-.7l-.5-1.7a.4.4 0 0 0-.8 0"/><path fill="url(#V)" d="m14.8 10.3-.5 1.7q0 .6.5.7h.8q.6-.1.5-.7l-.5-1.7a.4.4 0 0 0-.8 0"/><path fill="url(#W)" d="m14.8 10.3-.5 1.7q0 .6.5.7h.8q.6-.1.5-.7l-.5-1.7a.4.4 0 0 0-.8 0"/></g><path fill="url(#X)" d="m14.8 10.3-.5 1.7q0 .6.5.7h.8q.6-.1.5-.7l-.5-1.7a.4.4 0 0 0-.8 0"/><g filter="url(#Y)"><path stroke="url(#Z)" stroke-width=".2" d="M15.2 13.7q-.9 0-1.5-.4-.3 0-.2.2a2 2 0 0 0 3.3 0q.1-.2-.2-.2z"/></g><path fill="#89004E" d="M15.2 13.7q-.9 0-1.5-.4-.3 0-.2.2a2 2 0 0 0 3.3 0q.1-.2-.2-.2z"/><g filter="url(#aa)"><path stroke="#B44115" stroke-linecap="round" stroke-linejoin="round" stroke-miterlimit="10" stroke-width=".5" d="M18.7 8.3s-.6-.5-1.7-.4"/></g><g filter="url(#ab)"><path stroke="#C76C5B" stroke-linecap="round" stroke-linejoin="round" stroke-miterlimit="10" stroke-width=".1" d="M18.7 8.2s-.6-.5-1.7-.3"/></g><g filter="url(#ac)"><path stroke="#B44115" stroke-linecap="round" stroke-linejoin="round" stroke-miterlimit="10" stroke-width=".5" d="M11.7 8.3s.6-.5 1.7-.4"/></g><g filter="url(#ad)"><path stroke="#C76C5B" stroke-linecap="round" stroke-linejoin="round" stroke-miterlimit="10" stroke-width=".1" d="M11.7 8.2s.6-.5 1.7-.3"/></g><g filter="url(#ae)"><path fill="url(#af)" d="M17.6 7.6H20a2 2 0 0 0-1.5-.8h-2.6q.6.8 1.7.8"/></g><path fill="url(#ag)" d="M26 23.1q.9.1 1 1v2.3h-2V24q0-.9 1-1"/><path fill="url(#ah)" d="M26 23.1q.9.1 1 1v2.3h-2V24q0-.9 1-1"/><path fill="url(#ai)" d="M26 23.1q.9.1 1 1v2.3h-2V24q0-.9 1-1"/><path fill="url(#aj)" d="M25.3 21.8h-1v3h1z"/><path fill="url(#ak)" d="M25.3 21.8h-1v3h1z"/><path fill="url(#al)" d="M24 20h1.6v1.7l-.2.3h-1l-.3-.3z"/><path fill="url(#am)" d="M24 20h1.6v1.7l-.2.3h-1l-.3-.3z"/><path fill="url(#an)" d="M24 20h1.6v1.7l-.2.3h-1l-.3-.3z"/><g filter="url(#ao)"><path fill="#C7B3DB" d="M22 11q-.6 0-.6.6v6.9q0 1.4 1.5 1.5h4q1.5-.1 1.6-1.5v-6.9a.6.6 0 1 0-1.2 0v4.5a.9.9 0 0 1-1.8 0v-4.5a.6.6 0 0 0-1.2 0v4.5a.9.9 0 0 1-1.7 0v-4.5q0-.5-.6-.6"/></g><path fill="#fff" d="M17.6 9.2q1.2 0 1.4 1 0 .3-.3.4h-2.2a.2.2 0 0 1-.3-.3q.3-1 1.4-1.1"/><path fill="url(#ap)" d="M17.4 9.5a1 1 0 0 1 .9 1.1h-1.8v-.2q0-.9 1-1"/><path fill="#000" d="M17 10.4q0-.5.4-.5a.5.5 0 0 1 .5.7h-1z"/><g filter="url(#aq)"><path fill="#C7A7A3" d="m17.4 9.7-.3.3h-.3l.2-.3q.2-.3.4 0"/><path fill="url(#ar)" d="m17.4 9.7-.3.3h-.3l.2-.3q.2-.3.4 0"/></g><g filter="url(#as)"><path fill="url(#at)" d="M18.2 10.3q0-.5-.2-.5l-.3.3.2.2z"/></g><path fill="#fff" d="M12.8 9.2q-1 0-1.4 1 0 .3.3.4h2.2q.3 0 .3-.3-.3-1-1.4-1.1"/><path fill="url(#au)" d="M13 9.5a1 1 0 0 0-.9 1.1H14v-.2q0-.9-1-1"/><path fill="#000" d="M13.5 10.4q0-.5-.5-.5a.5.5 0 0 0-.5.7h1z"/><g filter="url(#av)"><path fill="url(#aw)" d="M13.8 10.3q0-.4-.3-.6l-.3.3.2.4z"/></g><g filter="url(#ax)" transform="rotate(-28 12.7 9.9)"><ellipse cx="12.7" cy="9.9" fill="#C7A7A3" fill-opacity=".9" rx=".4" ry=".2"/><ellipse cx="12.7" cy="9.9" fill="url(#ay)" rx=".4" ry=".2"/></g><g filter="url(#az)"><path fill="url(#aA)" d="M22.7 25.3q0-.6.7-.7h2.4q1 0 1.2 1.2V29q-.1.9-1 1h-2.6a.7.7 0 0 1-.3-1.4.7.7 0 0 1 0-1.3.7.7 0 0 1 0-1.4z"/><path fill="url(#aB)" d="M22.7 25.3q0-.6.7-.7h2.4q1 0 1.2 1.2V29q-.1.9-1 1h-2.6a.7.7 0 0 1-.3-1.4.7.7 0 0 1 0-1.3.7.7 0 0 1 0-1.4z"/></g><g filter="url(#aC)"><path stroke="url(#aD)" stroke-linecap="round" stroke-width=".1" d="M23.2 26H25"/></g><g filter="url(#aE)"><path stroke="url(#aF)" stroke-linecap="round" stroke-width=".1" d="M23.1 27.2H25"/></g><g filter="url(#aG)"><path stroke="url(#aH)" stroke-linecap="round" stroke-width=".1" d="M23.2 28.5H25"/></g><defs><radialGradient id="a" cx="0" cy="0" r="1" gradientTransform="matrix(-4.28126 -2.7131 2.52682 -3.98732 19 4)" gradientUnits="userSpaceOnUse"><stop stop-color="#7F5F58"/><stop offset="1" stop-color="#644841"/></radialGradient><radialGradient id="b" cx="0" cy="0" r="1" gradientTransform="matrix(0 -2.15625 8.40625 0 18.9 5.1)" gradientUnits="userSpaceOnUse"><stop stop-color="#6E5980"/><stop offset="1" stop-color="#4F3B60"/></radialGradient><radialGradient id="f" cx="0" cy="0" r="1" gradientTransform="rotate(-115.4 9.2 4.2)scale(4.08169 6.42739)" gradientUnits="userSpaceOnUse"><stop stop-color="#6E4F4B"/><stop offset="1" stop-color="#6E4F4B" stop-opacity="0"/></radialGradient><radialGradient id="g" cx="0" cy="0" r="1" gradientTransform="scale(8.99366 7.16424)rotate(90 -.3 2)" gradientUnits="userSpaceOnUse"><stop offset=".5" stop-color="#399967"/><stop offset="1" stop-color="#399967" stop-opacity="0"/></radialGradient><radialGradient id="i" cx="0" cy="0" r="1" gradientTransform="matrix(2.6875 .4375 -2.13811 13.1341 3 25.2)" gradientUnits="userSpaceOnUse"><stop stop-color="#63C890"/><stop offset="1" stop-color="#63C890" stop-opacity="0"/></radialGradient><radialGradient id="k" cx="0" cy="0" r="1" gradientTransform="matrix(.79488 -.01804 .17744 7.81888 22.4 25)" gradientUnits="userSpaceOnUse"><stop offset=".2" stop-color="#28A96B"/><stop offset="1" stop-color="#28A96B" stop-opacity="0"/></radialGradient><radialGradient id="m" cx="0" cy="0" r="1" gradientTransform="matrix(0 5.49005 -3.73669 0 15.2 16.1)" gradientUnits="userSpaceOnUse"><stop offset=".2" stop-color="#387C46"/><stop offset="1" stop-color="#3D8F6C"/></radialGradient><radialGradient id="o" cx="0" cy="0" r="1" gradientTransform="matrix(-2.27543 1.55452 -.96733 -1.41593 14.4 19.5)" gradientUnits="userSpaceOnUse"><stop stop-color="#519473"/><stop offset="1" stop-color="#519473" stop-opacity="0"/></radialGradient><radialGradient id="q" cx="0" cy="0" r="1" gradientTransform="matrix(0 3.28924 -4.48731 0 14.6 16)" gradientUnits="userSpaceOnUse"><stop offset=".3" stop-color="#2A5923"/><stop offset="1" stop-color="#2A5923" stop-opacity="0"/></radialGradient><radialGradient id="r" cx="0" cy="0" r="1" gradientTransform="matrix(0 -4.58005 5.35185 0 15.1 19.6)" gradientUnits="userSpaceOnUse"><stop offset="0" stop-color="#E9CEE6"/><stop offset=".7" stop-color="#9C8F92"/></radialGradient><radialGradient id="s" cx="0" cy="0" r="1" gradientTransform="matrix(0 1.43272 -4.29817 0 15.8 16.6)" gradientUnits="userSpaceOnUse"><stop stop-color="#CD8A31"/><stop offset="1" stop-color="#C6912A"/></radialGradient><radialGradient id="t" cx="0" cy="0" r="1" gradientTransform="scale(2.76771 4.38565)rotate(90 1 4.5)" gradientUnits="userSpaceOnUse"><stop offset=".7" stop-color="#9A6904" stop-opacity="0"/><stop offset="1" stop-color="#9A6904"/></radialGradient><radialGradient id="u" cx="0" cy="0" r="1" gradientTransform="matrix(-1.125 3 -1.50019 -.56257 20.8 12)" gradientUnits="userSpaceOnUse"><stop offset=".2" stop-color="#FFC034"/><stop offset=".8" stop-color="#D6922A"/></radialGradient><radialGradient id="v" cx="0" cy="0" r="1" gradientTransform="matrix(.10785 2.37507 -1.29776 .05893 10.3 12.4)" gradientUnits="userSpaceOnUse"><stop offset=".4" stop-color="#CA7320"/><stop offset="1" stop-color="#D2883B"/></radialGradient><radialGradient id="x" cx="0" cy="0" r="1" gradientTransform="matrix(1.75543 0 0 3.07202 8.6 10.6)" gradientUnits="userSpaceOnUse"><stop offset=".4" stop-color="#E6962B"/><stop offset="1" stop-color="#CA8F29"/></radialGradient><radialGradient id="B" cx="0" cy="0" r="1" gradientTransform="rotate(-36.1 26 -26.2)scale(1.02298 1.1676)" gradientUnits="userSpaceOnUse"><stop offset=".5" stop-color="#FFC532"/><stop offset="1" stop-color="#FFC532" stop-opacity="0"/></radialGradient><radialGradient id="D" cx="0" cy="0" r="1" gradientTransform="matrix(.96029 -1.76625 1.03379 .56206 20 11.5)" gradientUnits="userSpaceOnUse"><stop offset=".7" stop-color="#F4A51A" stop-opacity="0"/><stop offset="1" stop-color="#F4A51A"/></radialGradient><radialGradient id="E" cx="0" cy="0" r="1" gradientTransform="matrix(.30322 .30006 -.38682 .3909 20 10.5)" gradientUnits="userSpaceOnUse"><stop stop-color="#E59B1F"/><stop offset="1" stop-color="#E59B1F" stop-opacity="0"/></radialGradient><radialGradient id="G" cx="0" cy="0" r="1" gradientTransform="rotate(154.1 9.1 11.7)scale(3.78757 11.2112)" gradientUnits="userSpaceOnUse"><stop stop-color="#47B2F6"/><stop offset="1" stop-color="#47B2F6" stop-opacity="0"/></radialGradient><radialGradient id="J" cx="0" cy="0" r="1" gradientTransform="matrix(2.50293 -1.90672 3.00453 3.94401 8.2 18.8)" gradientUnits="userSpaceOnUse"><stop stop-color="#3DA0DB"/><stop offset="1" stop-color="#3AA1E0" stop-opacity="0"/></radialGradient><radialGradient id="O" cx="0" cy="0" r="1" gradientTransform="matrix(-6.07699 1.2143 -2.04674 -10.24291 18.8 10.1)" gradientUnits="userSpaceOnUse"><stop stop-color="#FFE846"/><stop offset="1" stop-color="#F5A129"/></radialGradient><radialGradient id="P" cx="0" cy="0" r="1" gradientTransform="rotate(-90 11.5 -1.8)scale(1.40625)" gradientUnits="userSpaceOnUse"><stop offset=".2" stop-color="#F59732"/><stop offset="1" stop-color="#F59732" stop-opacity="0"/></radialGradient><radialGradient id="Q" cx="0" cy="0" r="1" gradientTransform="matrix(0 -1.34047 1.49191 0 17.7 9.6)" gradientUnits="userSpaceOnUse"><stop offset=".3" stop-color="#FFBD38"/><stop offset="1" stop-color="#FFBD38" stop-opacity="0"/></radialGradient><radialGradient id="R" cx="0" cy="0" r="1" gradientTransform="matrix(0 8.891 -11.1693 0 15.2 8.3)" gradientUnits="userSpaceOnUse"><stop offset=".6" stop-color="#F99E3C" stop-opacity="0"/><stop offset="1" stop-color="#C38035"/></radialGradient><radialGradient id="Z" cx="0" cy="0" r="1" gradientTransform="rotate(-69.4 17.4 -3.1)scale(.82075 2.06401)" gradientUnits="userSpaceOnUse"><stop stop-color="#FFB032"/><stop offset="1" stop-color="#FFB032" stop-opacity="0"/></radialGradient><radialGradient id="af" cx="0" cy="0" r="1" gradientTransform="matrix(1.875 0 0 .92188 17.9 7)" gradientUnits="userSpaceOnUse"><stop stop-color="#FFC032"/><stop offset="1" stop-color="#FFA62C"/></radialGradient><radialGradient id="ag" cx="0" cy="0" r="1" gradientTransform="matrix(-1.22647 1.1121 -.87754 -.96779 27 23.5)" gradientUnits="userSpaceOnUse"><stop stop-color="#FFD740"/><stop offset="1" stop-color="#FFCA2C"/></radialGradient><radialGradient id="ah" cx="0" cy="0" r="1" gradientTransform="matrix(0 -1.45313 1.43733 0 25.4 25.1)" gradientUnits="userSpaceOnUse"><stop offset=".1" stop-color="#CF9826"/><stop offset="1" stop-color="#CF9826" stop-opacity="0"/></radialGradient><radialGradient id="ai" cx="0" cy="0" r="1" gradientTransform="matrix(-1.79687 0 0 -3.09375 26.7 24.5)" gradientUnits="userSpaceOnUse"><stop offset=".4" stop-color="#CD9D3E" stop-opacity="0"/><stop offset=".9" stop-color="#CD9D3E"/></radialGradient><radialGradient id="ak" cx="0" cy="0" r="1" gradientTransform="matrix(0 -2.85126 .74829 0 25.3 24.8)" gradientUnits="userSpaceOnUse"><stop stop-color="#88625F"/><stop offset="1" stop-color="#88625F" stop-opacity="0"/></radialGradient><radialGradient id="al" cx="0" cy="0" r="1" gradientTransform="matrix(0 -1.82813 1.14062 0 25.3 21.6)" gradientUnits="userSpaceOnUse"><stop stop-color="#D2C4E1"/><stop offset="1" stop-color="#B198C9"/></radialGradient><radialGradient id="am" cx="0" cy="0" r="1" gradientTransform="matrix(0 -2.14844 2.01125 0 24.8 22)" gradientUnits="userSpaceOnUse"><stop offset=".8" stop-color="#947CA9" stop-opacity="0"/><stop offset="1" stop-color="#947CA9"/></radialGradient><radialGradient id="ap" cx="0" cy="0" r="1" gradientTransform="matrix(0 .82316 -1.30932 0 17.4 10)" gradientUnits="userSpaceOnUse"><stop offset=".8" stop-color="#925C51"/><stop offset="1" stop-color="#694B43"/><stop offset="1" stop-color="#804D49"/><stop offset="1" stop-color="#85534D"/></radialGradient><radialGradient id="ar" cx="0" cy="0" r="1" gradientTransform="matrix(-.2353 -.30322 .41746 -.32395 17.2 10)" gradientUnits="userSpaceOnUse"><stop offset=".8" stop-color="#FFE6E2" stop-opacity="0"/><stop offset="1" stop-color="#FFE6E2"/></radialGradient><radialGradient id="au" cx="0" cy="0" r="1" gradientTransform="matrix(0 .8232 -1.30939 0 13 10)" gradientUnits="userSpaceOnUse"><stop offset=".8" stop-color="#925C51"/><stop offset="1" stop-color="#694B43"/><stop offset="1" stop-color="#804D49"/><stop offset="1" stop-color="#85534D"/></radialGradient><radialGradient id="ay" cx="0" cy="0" r="1" gradientTransform="matrix(-.00785 -.5013 .60257 -.00943 12.7 10.2)" gradientUnits="userSpaceOnUse"><stop offset=".8" stop-color="#FFE6E2" stop-opacity="0"/><stop offset="1" stop-color="#FFE6E2"/></radialGradient><radialGradient id="aB" cx="0" cy="0" r="1" gradientTransform="matrix(-1.44615 2.39061 -1.97778 -1.19642 27 24.6)" gradientUnits="userSpaceOnUse"><stop stop-color="#FFE136"/><stop offset="1" stop-color="#FFE136" stop-opacity="0"/></radialGradient><filter id="d" width="20.5" height="10.3" x="4.7" y="4.8" color-interpolation-filters="sRGB" filterUnits="userSpaceOnUse"><feFlood flood-opacity="0" result="BackgroundImageFix"/><feBlend in="SourceGraphic" in2="BackgroundImageFix" result="shape"/><feColorMatrix in="SourceAlpha" result="hardAlpha" values="0 0 0 0 0 0 0 0 0 0 0 0 0 0 0 0 0 0 127 0"/><feOffset dy=".5"/><feGaussianBlur stdDeviation=".3"/><feComposite in2="hardAlpha" k2="-1" k3="1" operator="arithmetic"/><feColorMatrix values="0 0 0 0 0.478431 0 0 0 0 0.384314 0 0 0 0 0.368627 0 0 0 1 0"/><feBlend in2="shape" result="effect1_innerShadow_4002_1798"/><feColorMatrix in="SourceAlpha" result="hardAlpha" values="0 0 0 0 0 0 0 0 0 0 0 0 0 0 0 0 0 0 127 0"/><feOffset dx="-.5" dy=".3"/><feGaussianBlur stdDeviation=".4"/><feComposite in2="hardAlpha" k2="-1" k3="1" operator="arithmetic"/><feColorMatrix values="0 0 0 0 0.388235 0 0 0 0 0.243137 0 0 0 0 0.25098 0 0 0 1 0"/><feBlend in2="effect1_innerShadow_4002_1798" result="effect2_innerShadow_4002_1798"/></filter><filter id="l" width="8" height="6.4" x="11.2" y="15.2" color-interpolation-filters="sRGB" filterUnits="userSpaceOnUse"><feFlood flood-opacity="0" result="BackgroundImageFix"/><feBlend in="SourceGraphic" in2="BackgroundImageFix" result="shape"/><feColorMatrix in="SourceAlpha" result="hardAlpha" values="0 0 0 0 0 0 0 0 0 0 0 0 0 0 0 0 0 0 127 0"/><feOffset dy="-.3"/><feGaussianBlur stdDeviation=".2"/><feComposite in2="hardAlpha" k2="-1" k3="1" operator="arithmetic"/><feColorMatrix values="0 0 0 0 0.109804 0 0 0 0 0.47451 0 0 0 0 0.333333 0 0 0 1 0"/><feBlend in2="shape" result="effect1_innerShadow_4002_1798"/></filter><filter id="y" width="3.2" height="3.2" x="8.6" y="8.9" color-interpolation-filters="sRGB" filterUnits="userSpaceOnUse"><feFlood flood-opacity="0" result="BackgroundImageFix"/><feBlend in="SourceGraphic" in2="BackgroundImageFix" result="shape"/><feGaussianBlur result="effect1_foregroundBlur_4002_1798" stdDeviation=".3"/></filter><filter id="z" width="3.6" height="3.6" x="18.4" y="8.6" color-interpolation-filters="sRGB" filterUnits="userSpaceOnUse"><feFlood flood-opacity="0" result="BackgroundImageFix"/><feBlend in="SourceGraphic" in2="BackgroundImageFix" result="shape"/><feColorMatrix in="SourceAlpha" result="hardAlpha" values="0 0 0 0 0 0 0 0 0 0 0 0 0 0 0 0 0 0 127 0"/><feOffset dx=".3" dy="-.3"/><feGaussianBlur stdDeviation=".3"/><feComposite in2="hardAlpha" k2="-1" k3="1" operator="arithmetic"/><feColorMatrix values="0 0 0 0 0.85098 0 0 0 0 0.560784 0 0 0 0 0.376471 0 0 0 1 0"/><feBlend in2="shape" result="effect1_innerShadow_4002_1798"/></filter><filter id="C" width="3.3" height="3.3" x="18.4" y="8.9" color-interpolation-filters="sRGB" filterUnits="userSpaceOnUse"><feFlood flood-opacity="0" result="BackgroundImageFix"/><feBlend in="SourceGraphic" in2="BackgroundImageFix" result="shape"/><feGaussianBlur result="effect1_foregroundBlur_4002_1798" stdDeviation=".3"/></filter><filter id="K" width="8.5" height="4.6" x="10.9" y="25.5" color-interpolation-filters="sRGB" filterUnits="userSpaceOnUse"><feFlood flood-opacity="0" result="BackgroundImageFix"/><feBlend in="SourceGraphic" in2="BackgroundImageFix" result="shape"/><feGaussianBlur result="effect1_foregroundBlur_4002_1798" stdDeviation=".1"/></filter><filter id="L" width="8.1" height="4.3" x="11.1" y="25.8" color-interpolation-filters="sRGB" filterUnits="userSpaceOnUse"><feFlood flood-opacity="0" result="BackgroundImageFix"/><feBlend in="SourceGraphic" in2="BackgroundImageFix" result="shape"/><feColorMatrix in="SourceAlpha" result="hardAlpha" values="0 0 0 0 0 0 0 0 0 0 0 0 0 0 0 0 0 0 127 0"/><feOffset dx="-.1" dy=".1"/><feGaussianBlur stdDeviation=".1"/><feComposite in2="hardAlpha" k2="-1" k3="1" operator="arithmetic"/><feColorMatrix values="0 0 0 0 0.258824 0 0 0 0 0.67451 0 0 0 0 1 0 0 0 1 0"/><feBlend in2="shape" result="effect1_innerShadow_4002_1798"/></filter><filter id="N" width="10.9" height="10.2" x="10" y="6.8" color-interpolation-filters="sRGB" filterUnits="userSpaceOnUse"><feFlood flood-opacity="0" result="BackgroundImageFix"/><feBlend in="SourceGraphic" in2="BackgroundImageFix" result="shape"/><feColorMatrix in="SourceAlpha" result="hardAlpha" values="0 0 0 0 0 0 0 0 0 0 0 0 0 0 0 0 0 0 127 0"/><feOffset dx=".5"/><feGaussianBlur stdDeviation=".5"/><feComposite in2="hardAlpha" k2="-1" k3="1" operator="arithmetic"/><feColorMatrix values="0 0 0 0 0.823529 0 0 0 0 0.623529 0 0 0 0 0.313726 0 0 0 1 0"/><feBlend in2="shape" result="effect1_innerShadow_4002_1798"/></filter><filter id="S" width="3.4" height="4.2" x="13.3" y="9.5" color-interpolation-filters="sRGB" filterUnits="userSpaceOnUse"><feFlood flood-opacity="0" result="BackgroundImageFix"/><feBlend in="SourceGraphic" in2="BackgroundImageFix" result="shape"/><feGaussianBlur result="effect1_foregroundBlur_4002_1798" stdDeviation=".4"/></filter><filter id="T" width="2.4" height="3.2" x="14" y="9.8" color-interpolation-filters="sRGB" filterUnits="userSpaceOnUse"><feFlood flood-opacity="0" result="BackgroundImageFix"/><feBlend in="SourceGraphic" in2="BackgroundImageFix" result="shape"/><feGaussianBlur result="effect1_foregroundBlur_4002_1798" stdDeviation=".1"/></filter><filter id="Y" width="3.8" height="1.6" x="13.2" y="13.1" color-interpolation-filters="sRGB" filterUnits="userSpaceOnUse"><feFlood flood-opacity="0" result="BackgroundImageFix"/><feBlend in="SourceGraphic" in2="BackgroundImageFix" result="shape"/><feGaussianBlur result="effect1_foregroundBlur_4002_1798" stdDeviation=".1"/></filter><filter id="aa" width="2.2" height="1" x="16.8" y="7.5" color-interpolation-filters="sRGB" filterUnits="userSpaceOnUse"><feFlood flood-opacity="0" result="BackgroundImageFix"/><feBlend in="SourceGraphic" in2="BackgroundImageFix" result="shape"/><feColorMatrix in="SourceAlpha" result="hardAlpha" values="0 0 0 0 0 0 0 0 0 0 0 0 0 0 0 0 0 0 127 0"/><feOffset dy="-.2"/><feGaussianBlur stdDeviation=".1"/><feComposite in2="hardAlpha" k2="-1" k3="1" operator="arithmetic"/><feColorMatrix values="0 0 0 0 0.717647 0 0 0 0 0.262745 0 0 0 0 0.294118 0 0 0 1 0"/><feBlend in2="shape" result="effect1_innerShadow_4002_1798"/></filter><filter id="ab" width="2.1" height=".8" x="16.8" y="7.6" color-interpolation-filters="sRGB" filterUnits="userSpaceOnUse"><feFlood flood-opacity="0" result="BackgroundImageFix"/><feBlend in="SourceGraphic" in2="BackgroundImageFix" result="shape"/><feGaussianBlur result="effect1_foregroundBlur_4002_1798" stdDeviation=".1"/></filter><filter id="ac" width="2.2" height="1" x="11.4" y="7.5" color-interpolation-filters="sRGB" filterUnits="userSpaceOnUse"><feFlood flood-opacity="0" result="BackgroundImageFix"/><feBlend in="SourceGraphic" in2="BackgroundImageFix" result="shape"/><feColorMatrix in="SourceAlpha" result="hardAlpha" values="0 0 0 0 0 0 0 0 0 0 0 0 0 0 0 0 0 0 127 0"/><feOffset dy="-.2"/><feGaussianBlur stdDeviation=".1"/><feComposite in2="hardAlpha" k2="-1" k3="1" operator="arithmetic"/><feColorMatrix values="0 0 0 0 0.717647 0 0 0 0 0.262745 0 0 0 0 0.294118 0 0 0 1 0"/><feBlend in2="shape" result="effect1_innerShadow_4002_1798"/></filter><filter id="ad" width="2.1" height=".8" x="11.5" y="7.6" color-interpolation-filters="sRGB" filterUnits="userSpaceOnUse"><feFlood flood-opacity="0" result="BackgroundImageFix"/><feBlend in="SourceGraphic" in2="BackgroundImageFix" result="shape"/><feGaussianBlur result="effect1_foregroundBlur_4002_1798" stdDeviation=".1"/></filter><filter id="ae" width="4.1" height=".9" x="15.9" y="6.7" color-interpolation-filters="sRGB" filterUnits="userSpaceOnUse"><feFlood flood-opacity="0" result="BackgroundImageFix"/><feBlend in="SourceGraphic" in2="BackgroundImageFix" result="shape"/><feColorMatrix in="SourceAlpha" result="hardAlpha" values="0 0 0 0 0 0 0 0 0 0 0 0 0 0 0 0 0 0 127 0"/><feOffset dy="-.1"/><feGaussianBlur stdDeviation=".1"/><feComposite in2="hardAlpha" k2="-1" k3="1" operator="arithmetic"/><feColorMatrix values="0 0 0 0 0.94902 0 0 0 0 0.552941 0 0 0 0 0.133333 0 0 0 1 0"/><feBlend in2="shape" result="effect1_innerShadow_4002_1798"/></filter><filter id="ao" width="7.6" height="9.9" x="21.1" y="10.6" color-interpolation-filters="sRGB" filterUnits="userSpaceOnUse"><feFlood flood-opacity="0" result="BackgroundImageFix"/><feBlend in="SourceGraphic" in2="BackgroundImageFix" result="shape"/><feColorMatrix in="SourceAlpha" result="hardAlpha" values="0 0 0 0 0 0 0 0 0 0 0 0 0 0 0 0 0 0 127 0"/><feOffset dx=".2" dy="-.4"/><feGaussianBlur stdDeviation=".4"/><feComposite in2="hardAlpha" k2="-1" k3="1" operator="arithmetic"/><feColorMatrix values="0 0 0 0 0.643137 0 0 0 0 0.490196 0 0 0 0 0.776471 0 0 0 1 0"/><feBlend in2="shape" result="effect1_innerShadow_4002_1798"/><feColorMatrix in="SourceAlpha" result="hardAlpha" values="0 0 0 0 0 0 0 0 0 0 0 0 0 0 0 0 0 0 127 0"/><feOffset dx="-.3" dy=".5"/><feGaussianBlur stdDeviation=".3"/><feComposite in2="hardAlpha" k2="-1" k3="1" operator="arithmetic"/><feColorMatrix values="0 0 0 0 0.831373 0 0 0 0 0.788235 0 0 0 0 0.87451 0 0 0 1 0"/><feBlend in2="effect1_innerShadow_4002_1798" result="effect2_innerShadow_4002_1798"/><feColorMatrix in="SourceAlpha" result="hardAlpha" values="0 0 0 0 0 0 0 0 0 0 0 0 0 0 0 0 0 0 127 0"/><feOffset dy=".1"/><feGaussianBlur stdDeviation=".2"/><feComposite in2="hardAlpha" k2="-1" k3="1" operator="arithmetic"/><feColorMatrix values="0 0 0 0 0.6 0 0 0 0 0.552941 0 0 0 0 0.545098 0 0 0 1 0"/><feBlend in2="effect2_innerShadow_4002_1798" result="effect3_innerShadow_4002_1798"/></filter><filter id="aq" width=".8" height=".7" x="16.7" y="9.5" color-interpolation-filters="sRGB" filterUnits="userSpaceOnUse"><feFlood flood-opacity="0" result="BackgroundImageFix"/><feBlend in="SourceGraphic" in2="BackgroundImageFix" result="shape"/><feGaussianBlur result="effect1_foregroundBlur_4002_1798" stdDeviation=".1"/></filter><filter id="as" width=".9" height=".9" x="17.5" y="9.6" color-interpolation-filters="sRGB" filterUnits="userSpaceOnUse"><feFlood flood-opacity="0" result="BackgroundImageFix"/><feBlend in="SourceGraphic" in2="BackgroundImageFix" result="shape"/><feGaussianBlur result="effect1_foregroundBlur_4002_1798" stdDeviation=".1"/></filter><filter id="av" width="1" height="1" x="13" y="9.5" color-interpolation-filters="sRGB" filterUnits="userSpaceOnUse"><feFlood flood-opacity="0" result="BackgroundImageFix"/><feBlend in="SourceGraphic" in2="BackgroundImageFix" result="shape"/><feGaussianBlur result="effect1_foregroundBlur_4002_1798" stdDeviation=".1"/></filter><filter id="ax" width=".9" height=".7" x="12.3" y="9.5" color-interpolation-filters="sRGB" filterUnits="userSpaceOnUse"><feFlood flood-opacity="0" result="BackgroundImageFix"/><feBlend in="SourceGraphic" in2="BackgroundImageFix" result="shape"/><feGaussianBlur result="effect1_foregroundBlur_4002_1798" stdDeviation=".1"/></filter><filter id="az" width="4.6" height="5.6" x="22.7" y="24.4" color-interpolation-filters="sRGB" filterUnits="userSpaceOnUse"><feFlood flood-opacity="0" result="BackgroundImageFix"/><feBlend in="SourceGraphic" in2="BackgroundImageFix" result="shape"/><feColorMatrix in="SourceAlpha" result="hardAlpha" values="0 0 0 0 0 0 0 0 0 0 0 0 0 0 0 0 0 0 127 0"/><feOffset dx=".3" dy="-.1"/><feGaussianBlur stdDeviation=".3"/><feComposite in2="hardAlpha" k2="-1" k3="1" operator="arithmetic"/><feColorMatrix values="0 0 0 0 0.905882 0 0 0 0 0.521569 0 0 0 0 0.364706 0 0 0 1 0"/><feBlend in2="shape" result="effect1_innerShadow_4002_1798"/></filter><filter id="aC" width="2" height=".2" x="23.1" y="25.8" color-interpolation-filters="sRGB" filterUnits="userSpaceOnUse"><feFlood flood-opacity="0" result="BackgroundImageFix"/><feBlend in="SourceGraphic" in2="BackgroundImageFix" result="shape"/><feGaussianBlur result="effect1_foregroundBlur_4002_1798" stdDeviation=".1"/></filter><filter id="aE" width="2" height=".2" x="23" y="27.1" color-interpolation-filters="sRGB" filterUnits="userSpaceOnUse"><feFlood flood-opacity="0" result="BackgroundImageFix"/><feBlend in="SourceGraphic" in2="BackgroundImageFix" result="shape"/><feGaussianBlur result="effect1_foregroundBlur_4002_1798" stdDeviation=".1"/></filter><filter id="aG" width="2" height=".2" x="23.1" y="28.4" color-interpolation-filters="sRGB" filterUnits="userSpaceOnUse"><feFlood flood-opacity="0" result="BackgroundImageFix"/><feBlend in="SourceGraphic" in2="BackgroundImageFix" result="shape"/><feGaussianBlur result="effect1_foregroundBlur_4002_1798" stdDeviation=".1"/></filter><linearGradient id="c" x1="15.1" x2="15.1" y1="4" y2="4" gradientUnits="userSpaceOnUse"><stop stop-color="#4E2D3A"/><stop offset="1" stop-color="#4E2D3A" stop-opacity="0"/></linearGradient><linearGradient id="e" x1="15.2" x2="15.2" y1="4.8" y2="14.8" gradientUnits="userSpaceOnUse"><stop stop-color="#6A3D3E"/><stop offset="1" stop-color="#6E4E4C"/></linearGradient><linearGradient id="h" x1="8.2" x2="4.6" y1="28.4" y2="28.4" gradientUnits="userSpaceOnUse"><stop stop-color="#399965"/><stop offset="1" stop-color="#5CC585"/></linearGradient><linearGradient id="j" x1="25.7" x2="22.2" y1="22.8" y2="29.2" gradientUnits="userSpaceOnUse"><stop stop-color="#63D591"/><stop offset="1" stop-color="#368D6E"/></linearGradient><linearGradient id="n" x1="19.2" x2="18.3" y1="18.5" y2="18.5" gradientUnits="userSpaceOnUse"><stop stop-color="#5AA37A"/><stop offset="1" stop-color="#5AA37A" stop-opacity="0"/></linearGradient><linearGradient id="p" x1="11.2" x2="11.5" y1="18.5" y2="18.5" gradientUnits="userSpaceOnUse"><stop offset=".1" stop-color="#6A9E7E"/><stop offset="1" stop-color="#6A9E7E" stop-opacity="0"/></linearGradient><linearGradient id="w" x1="10.9" x2="10.2" y1="15" y2="13.9" gradientUnits="userSpaceOnUse"><stop stop-color="#B37641"/><stop offset="1" stop-color="#B37641" stop-opacity="0"/></linearGradient><linearGradient id="A" x1="21.1" x2="20.3" y1="9.5" y2="12" gradientUnits="userSpaceOnUse"><stop stop-color="#FFE446"/><stop offset="1" stop-color="#FFC339"/></linearGradient><linearGradient id="F" x1="16.4" x2="15.2" y1="29.1" y2="22" gradientUnits="userSpaceOnUse"><stop stop-color="#3560C5"/><stop offset="1" stop-color="#329FEA"/></linearGradient><linearGradient id="H" x1="22.2" x2="22" y1="29.6" y2="29.6" gradientUnits="userSpaceOnUse"><stop stop-color="#356EBB"/><stop offset="1" stop-color="#356EBB" stop-opacity="0"/></linearGradient><linearGradient id="I" x1="8.2" x2="8.3" y1="29.6" y2="29.6" gradientUnits="userSpaceOnUse"><stop stop-color="#356EBB"/><stop offset="1" stop-color="#356EBB" stop-opacity="0"/></linearGradient><linearGradient id="M" x1="13" x2="19.5" y1="28.3" y2="28.3" gradientUnits="userSpaceOnUse"><stop stop-color="#3CA9FF"/><stop offset="1" stop-color="#389DFF"/></linearGradient><linearGradient id="U" x1="14.3" x2="15.3" y1="11.6" y2="11.6" gradientUnits="userSpaceOnUse"><stop stop-color="#FAA416"/><stop offset="1" stop-color="#FAA416" stop-opacity="0"/></linearGradient><linearGradient id="V" x1="16.1" x2="15.1" y1="12" y2="11.9" gradientUnits="userSpaceOnUse"><stop stop-color="#FFE721"/><stop offset="1" stop-color="#FFE721" stop-opacity="0"/></linearGradient><linearGradient id="W" x1="15.4" x2="15.4" y1="12.7" y2="12.1" gradientUnits="userSpaceOnUse"><stop stop-color="#EB8A1C"/><stop offset="1" stop-color="#EB8A1C" stop-opacity="0"/></linearGradient><linearGradient id="X" x1="15.3" x2="15.3" y1="12.7" y2="12.6" gradientUnits="userSpaceOnUse"><stop stop-color="#E88613"/><stop offset="1" stop-color="#E88613" stop-opacity="0"/></linearGradient><linearGradient id="aj" x1="24.8" x2="24.8" y1="21.6" y2="24.8" gradientUnits="userSpaceOnUse"><stop stop-color="#784853"/><stop offset="1" stop-color="#7D5248"/></linearGradient><linearGradient id="an" x1="24.8" x2="24.8" y1="22.3" y2="21.7" gradientUnits="userSpaceOnUse"><stop stop-color="#9E83BE"/><stop offset="1" stop-color="#9E83BE" stop-opacity="0"/></linearGradient><linearGradient id="at" x1="18.2" x2="17.9" y1="10" y2="10.2" gradientUnits="userSpaceOnUse"><stop stop-color="#B4948D"/><stop offset="1" stop-color="#B4948D" stop-opacity="0"/></linearGradient><linearGradient id="aw" x1="13.8" x2="13.4" y1="10" y2="10.2" gradientUnits="userSpaceOnUse"><stop stop-color="#B4948D"/><stop offset="1" stop-color="#B4948D" stop-opacity="0"/></linearGradient><linearGradient id="aA" x1="26.7" x2="22.7" y1="28" y2="28" gradientUnits="userSpaceOnUse"><stop stop-color="#FFE132"/><stop offset=".9" stop-color="#DF9E26"/></linearGradient><linearGradient id="aD" x1="24.9" x2="23" y1="25.9" y2="25.9" gradientUnits="userSpaceOnUse"><stop stop-color="#C07200"/><stop offset="1" stop-color="#C88714"/></linearGradient><linearGradient id="aF" x1="24.8" x2="23" y1="27.2" y2="27.2" gradientUnits="userSpaceOnUse"><stop stop-color="#C07200"/><stop offset="1" stop-color="#C88714"/></linearGradient><linearGradient id="aH" x1="24.9" x2="23" y1="28.5" y2="28.5" gradientUnits="userSpaceOnUse"><stop stop-color="#C07200"/><stop offset="1" stop-color="#C88714"/></linearGradient></defs></svg>