<svg xmlns="http://www.w3.org/2000/svg" width="32" height="32" fill="none"><circle cx="11.3" cy="4.5" r="2.5" fill="#DE904C"/><circle cx="11.3" cy="4.5" r="2.5" fill="url(#a)"/><circle cx="11.3" cy="4.5" r="2.5" fill="url(#b)"/><circle cx="11.3" cy="4.5" r="2.5" fill="url(#c)"/><circle cx="20.7" cy="4.5" r="2.5" fill="#D68640"/><circle cx="20.7" cy="4.5" r="2.5" fill="url(#d)"/><circle cx="20.7" cy="4.5" r="2.5" fill="url(#e)"/><g filter="url(#f)"><circle cx="20.8" cy="4.5" r="2.1" stroke="url(#g)" stroke-width=".3"/></g><circle cx="11.3" cy="4.6" r="1.6" fill="url(#h)"/><circle cx="20.7" cy="4.6" r="1.6" fill="#F9BF76"/><circle cx="20.7" cy="4.6" r="1.6" fill="url(#i)"/><g filter="url(#j)" transform="rotate(31.4 19 12.8)"><rect width="14" height="6" x="19.1" y="12.8" fill="#DE773D" rx="3"/><rect width="14" height="6" x="19.1" y="12.8" fill="url(#k)" rx="3"/><rect width="14" height="6" x="19.1" y="12.8" fill="url(#l)" rx="3"/><rect width="14" height="6" x="19.1" y="12.8" fill="url(#m)" rx="3"/><rect width="14" height="6" x="19.1" y="12.8" fill="url(#n)" rx="3"/></g><g filter="url(#o)" transform="rotate(-30 1 20)"><rect width="14" height="6" x="1" y="19.9" fill="#D77940" rx="3"/><rect width="14" height="6" x="1" y="19.9" fill="url(#p)" rx="3"/><rect width="14" height="6" x="1" y="19.9" fill="url(#q)" rx="3"/><rect width="14" height="6" x="1" y="19.9" fill="url(#r)" rx="3"/><rect width="14" height="6" x="1" y="19.9" fill="url(#s)" rx="3"/></g><g filter="url(#t)"><path stroke="#FA9C66" stroke-linecap="round" d="m21.4 16.3 6.4 4"/></g><circle cx="16" cy="20.8" r="8" fill="url(#u)"/><circle cx="16" cy="20.8" r="8" fill="url(#v)"/><circle cx="16" cy="20.8" r="8" fill="url(#w)"/><circle cx="16" cy="20.8" r="8" fill="url(#x)"/><circle cx="16" cy="20.8" r="8" fill="url(#y)"/><circle cx="16" cy="20.8" r="8" fill="url(#z)"/><circle cx="16" cy="20.8" r="8" fill="url(#A)"/><circle cx="16" cy="20.8" r="8" fill="url(#B)"/><circle cx="16" cy="20.8" r="8" fill="url(#C)"/><circle cx="16" cy="21.8" r="5" fill="url(#D)"/><circle cx="16" cy="21.8" r="5" fill="url(#E)"/><circle cx="16" cy="21.8" r="5" fill="url(#F)"/><circle cx="16" cy="21.8" r="5" fill="url(#G)"/><g filter="url(#H)"><path fill="url(#I)" d="M23.9 10.2c0 4.4-3.6 6-8 6-4.3 0-7.8-1.6-7.8-6s4-7.7 7.9-7.7 7.9 3.2 7.9 7.7"/><path fill="url(#J)" d="M23.9 10.2c0 4.4-3.6 6-8 6-4.3 0-7.8-1.6-7.8-6s4-7.7 7.9-7.7 7.9 3.2 7.9 7.7"/><path fill="url(#K)" d="M23.9 10.2c0 4.4-3.6 6-8 6-4.3 0-7.8-1.6-7.8-6s4-7.7 7.9-7.7 7.9 3.2 7.9 7.7"/><path fill="url(#L)" d="M23.9 10.2c0 4.4-3.6 6-8 6-4.3 0-7.8-1.6-7.8-6s4-7.7 7.9-7.7 7.9 3.2 7.9 7.7"/></g><circle cx="13.5" cy="8.4" r=".5" fill="url(#M)"/><circle cx="18.5" cy="8.4" r=".5" fill="url(#N)"/><g filter="url(#O)"><path fill="url(#P)" d="M16 9.1q-.8-.2-2.6.7c-.8.5-.9 1.8-.4 3a3 3 0 0 0 3 1.8 3 3 0 0 0 2.9-1.8c.5-1.2.4-2.5-.4-3Q16.9 8.9 16 9"/><path fill="url(#Q)" d="M16 9.1q-.8-.2-2.6.7c-.8.5-.9 1.8-.4 3a3 3 0 0 0 3 1.8 3 3 0 0 0 2.9-1.8c.5-1.2.4-2.5-.4-3Q16.9 8.9 16 9"/></g><g filter="url(#R)" transform="scale(-1 1)rotate(29.2 -43.9 -8.8)"><rect width="7" height="8.5" fill="url(#S)" rx="3.5"/><rect width="7" height="8.5" fill="url(#T)" rx="3.5"/></g><g filter="url(#U)"><rect width="7" height="8.5" x="22" y="20.3" fill="url(#V)" rx="3.5" transform="rotate(29.2 22 20.3)"/></g><rect width="7" height="8.5" x="22" y="20.3" fill="url(#W)" rx="3.5" transform="rotate(29.2 22 20.3)"/><rect width="4" height="5.5" fill="url(#X)" rx="2" transform="scale(-1 1)rotate(29.2 -47.6 -6.7)"/><rect width="4" height="5.5" x="22.6" y="22.4" fill="url(#Y)" rx="2" transform="rotate(29.2 22.6 22.4)"/><g filter="url(#Z)"><path fill="#D18A74" d="M14.8 10.1q-.5.1-.3.5l.8.9h.4l.9-.9q.1-.4-.4-.5z"/></g><path fill="url(#aa)" d="M15.2 9.8q-.5 0-.4.6l1 .9h.4q.6-.4.9-1 .3-.4-.4-.5z"/><path fill="url(#ab)" d="M15.2 9.8q-.5 0-.4.6l1 .9h.4q.6-.4.9-1 .3-.4-.4-.5z"/><g filter="url(#ac)"><path stroke="#FA9E75" stroke-linecap="round" stroke-width=".5" d="M9.6 22.6q.4 0 1 .8c.4.4 1 1.5 1.3 2"/></g><defs><radialGradient id="a" cx="0" cy="0" r="1" gradientTransform="rotate(-139.8 7.3 -.9)scale(2.6168 .78626)" gradientUnits="userSpaceOnUse"><stop stop-color="#F4A161"/><stop offset="1" stop-color="#F4A161" stop-opacity="0"/></radialGradient><radialGradient id="b" cx="0" cy="0" r="1" gradientTransform="rotate(99.6 3.8 7)scale(2.12238)" gradientUnits="userSpaceOnUse"><stop offset=".7" stop-color="#CE7032"/><stop offset="1" stop-color="#CE7032" stop-opacity="0"/></radialGradient><radialGradient id="c" cx="0" cy="0" r="1" gradientTransform="rotate(-135 6.6 0)scale(2.64742 3.25371)" gradientUnits="userSpaceOnUse"><stop offset=".8" stop-color="#C17B3B" stop-opacity="0"/><stop offset="1" stop-color="#C17B3B"/></radialGradient><radialGradient id="d" cx="0" cy="0" r="1" gradientTransform="rotate(99.5 8.6 11.2)scale(2.12206)" gradientUnits="userSpaceOnUse"><stop offset=".7" stop-color="#DC692A"/><stop offset="1" stop-color="#DC692A" stop-opacity="0"/></radialGradient><radialGradient id="e" cx="0" cy="0" r="1" gradientTransform="matrix(-2.55524 -1.89769 1.55927 -2.09956 21.3 4.6)" gradientUnits="userSpaceOnUse"><stop offset=".8" stop-color="#B56E32" stop-opacity="0"/><stop offset=".9" stop-color="#B56E32"/></radialGradient><radialGradient id="h" cx="0" cy="0" r="1" gradientTransform="matrix(1.26563 1.48438 -2.7437 2.33937 10.4 3.5)" gradientUnits="userSpaceOnUse"><stop stop-color="#FECC85"/><stop offset="1" stop-color="#DCA86A"/></radialGradient><radialGradient id="i" cx="0" cy="0" r="1" gradientTransform="rotate(6.9 -25.4 168.8)scale(2.40814)" gradientUnits="userSpaceOnUse"><stop offset=".6" stop-color="#E8A869" stop-opacity="0"/><stop offset=".9" stop-color="#E8A869"/></radialGradient><radialGradient id="k" cx="0" cy="0" r="1" gradientTransform="matrix(.49837 -5.06304 7.10362 .69923 28.6 19.9)" gradientUnits="userSpaceOnUse"><stop offset=".2" stop-color="#983C50"/><stop offset="1" stop-color="#983C50" stop-opacity="0"/></radialGradient><radialGradient id="m" cx="0" cy="0" r="1" gradientTransform="matrix(-.23879 2.48857 -1.63941 -.1573 31.6 13.7)" gradientUnits="userSpaceOnUse"><stop stop-color="#FFB075"/><stop offset="1" stop-color="#FFB075" stop-opacity="0"/></radialGradient><radialGradient id="n" cx="0" cy="0" r="1" gradientTransform="rotate(-46 32.7 -19.4)scale(3.47146 4.6882)" gradientUnits="userSpaceOnUse"><stop offset=".8" stop-color="#FFAA6F"/><stop offset="1" stop-color="#FFAA6F" stop-opacity="0"/></radialGradient><radialGradient id="q" cx="0" cy="0" r="1" gradientTransform="matrix(-4.54044 2.22434 -1.59513 -3.25607 7.5 25.3)" gradientUnits="userSpaceOnUse"><stop offset=".2" stop-color="#BB5124"/><stop offset="1" stop-color="#BB5124" stop-opacity="0"/></radialGradient><radialGradient id="r" cx="0" cy="0" r="1" gradientTransform="matrix(1.45277 .77897 -.74404 1.38763 2.6 22.3)" gradientUnits="userSpaceOnUse"><stop stop-color="#E38B4D"/><stop offset="1" stop-color="#E38B4D" stop-opacity="0"/></radialGradient><radialGradient id="s" cx="0" cy="0" r="1" gradientTransform="matrix(-1.64047 -1.3307 2.64549 -3.26132 8.7 24.4)" gradientUnits="userSpaceOnUse"><stop offset=".9" stop-color="#D77C46"/><stop offset="1" stop-color="#D77C46" stop-opacity="0"/></radialGradient><radialGradient id="v" cx="0" cy="0" r="1" gradientTransform="matrix(-6.21828 7.81269 -5.09154 -4.05246 22.9 16.5)" gradientUnits="userSpaceOnUse"><stop stop-color="#FFA66F"/><stop offset="1" stop-color="#FFA66F" stop-opacity="0"/></radialGradient><radialGradient id="w" cx="0" cy="0" r="1" gradientTransform="matrix(0 3.87977 -6.87021 0 16 14.2)" gradientUnits="userSpaceOnUse"><stop offset=".5" stop-color="#B54322"/><stop offset="1" stop-color="#B54322" stop-opacity="0"/></radialGradient><radialGradient id="x" cx="0" cy="0" r="1" gradientTransform="matrix(-6.21759 -8.71673 9.59215 -6.84202 16.6 22.1)" gradientUnits="userSpaceOnUse"><stop offset=".7" stop-color="#A3633D" stop-opacity="0"/><stop offset=".9" stop-color="#A3633D"/></radialGradient><radialGradient id="y" cx="0" cy="0" r="1" gradientTransform="rotate(-8.1 164.1 -47.7)scale(2.63067 6.76458)" gradientUnits="userSpaceOnUse"><stop stop-color="#C7733E"/><stop offset="1" stop-color="#C7733E" stop-opacity="0"/></radialGradient><radialGradient id="z" cx="0" cy="0" r="1" gradientTransform="rotate(55.4 -19.9 24.8)scale(2.90421 2.27211)" gradientUnits="userSpaceOnUse"><stop offset=".3" stop-color="#A03434"/><stop offset="1" stop-color="#A03434" stop-opacity="0"/></radialGradient><radialGradient id="A" cx="0" cy="0" r="1" gradientTransform="rotate(136.5 4.9 17.5)scale(3.59022 2.07018)" gradientUnits="userSpaceOnUse"><stop offset=".3" stop-color="#A14750"/><stop offset="1" stop-color="#A14750" stop-opacity="0"/></radialGradient><radialGradient id="B" cx="0" cy="0" r="1" gradientTransform="rotate(90 -.7 16.6)scale(11.4908)" gradientUnits="userSpaceOnUse"><stop offset=".8" stop-color="#AC4F52" stop-opacity="0"/><stop offset="1" stop-color="#AC4F52"/></radialGradient><radialGradient id="C" cx="0" cy="0" r="1" gradientTransform="matrix(1.2224 -2.41821 1.74068 .8799 22 23.6)" gradientUnits="userSpaceOnUse"><stop offset=".5" stop-color="#DC6A27"/><stop offset="1" stop-color="#DC6A27" stop-opacity="0"/></radialGradient><radialGradient id="E" cx="0" cy="0" r="1" gradientTransform="rotate(90 -1.4 17.4)scale(8.55676)" gradientUnits="userSpaceOnUse"><stop offset=".6" stop-color="#E2A48D" stop-opacity="0"/><stop offset="1" stop-color="#E2A48D"/></radialGradient><radialGradient id="F" cx="0" cy="0" r="1" gradientTransform="rotate(151.5 8.5 12.2)scale(4.23316)" gradientUnits="userSpaceOnUse"><stop stop-color="#FFD992"/><stop offset="1" stop-color="#FFD992" stop-opacity="0"/></radialGradient><radialGradient id="G" cx="0" cy="0" r="1" gradientTransform="matrix(2.17905 -1.16925 1.98996 3.70856 10.5 24.8)" gradientUnits="userSpaceOnUse"><stop offset=".5" stop-color="#BC8A66"/><stop offset="1" stop-color="#BC8A66" stop-opacity="0"/></radialGradient><radialGradient id="J" cx="0" cy="0" r="1" gradientTransform="matrix(-3.0794 5.55537 -6.60894 -3.6634 21 7.7)" gradientUnits="userSpaceOnUse"><stop stop-color="#FFBE88"/><stop offset="1" stop-color="#FFBE88" stop-opacity="0"/></radialGradient><radialGradient id="K" cx="0" cy="0" r="1" gradientTransform="rotate(81.9 4.6 11.7)scale(12.015 13.8879)" gradientUnits="userSpaceOnUse"><stop offset=".7" stop-color="#BA5137" stop-opacity="0"/><stop offset="1" stop-color="#BA5137"/></radialGradient><radialGradient id="L" cx="0" cy="0" r="1" gradientTransform="matrix(-1.67184 4.01238 -3.33574 -1.3899 15.2 13)" gradientUnits="userSpaceOnUse"><stop offset=".3" stop-color="#CE6D54"/><stop offset="1" stop-color="#CE6D54" stop-opacity="0"/></radialGradient><radialGradient id="M" cx="0" cy="0" r="1" gradientTransform="rotate(142.8 5.6 6.5)scale(.7966)" gradientUnits="userSpaceOnUse"><stop stop-color="#635556"/><stop offset="1" stop-color="#452B30"/></radialGradient><radialGradient id="N" cx="0" cy="0" r="1" gradientTransform="rotate(142.6 8 7.3)scale(.4627)" gradientUnits="userSpaceOnUse"><stop stop-color="#635556"/><stop offset="1" stop-color="#452B30"/></radialGradient><radialGradient id="P" cx="0" cy="0" r="1" gradientTransform="matrix(0 5.85139 -10.7808 0 16 9.8)" gradientUnits="userSpaceOnUse"><stop offset=".2" stop-color="#FFBD96"/><stop offset="1" stop-color="#D27067"/></radialGradient><radialGradient id="Q" cx="0" cy="0" r="1" gradientTransform="matrix(-1.76095 1.16997 -1.56945 -2.3622 19 10.2)" gradientUnits="userSpaceOnUse"><stop stop-color="#FFDFAF"/><stop offset="1" stop-color="#FFDFAF" stop-opacity="0"/></radialGradient><radialGradient id="T" cx="0" cy="0" r="1" gradientTransform="matrix(4.5885 -.36112 .57123 7.25814 -.5 4.7)" gradientUnits="userSpaceOnUse"><stop stop-color="#E68F58"/><stop offset="1" stop-color="#E68F58" stop-opacity="0"/></radialGradient><radialGradient id="W" cx="0" cy="0" r="1" gradientTransform="matrix(-.76625 .91614 -1.92842 -1.61293 27.3 21.2)" gradientUnits="userSpaceOnUse"><stop stop-color="#FD9C79"/><stop offset="1" stop-color="#FD9C79" stop-opacity="0"/></radialGradient><radialGradient id="ab" cx="0" cy="0" r="1" gradientTransform="matrix(-1.37347 0 0 -.61667 17.1 10)" gradientUnits="userSpaceOnUse"><stop stop-color="#635759"/><stop offset="1" stop-color="#635759" stop-opacity="0"/></radialGradient><linearGradient id="g" x1="22.9" x2="22.2" y1="3.6" y2="4" gradientUnits="userSpaceOnUse"><stop stop-color="#FFAF7E"/><stop offset="1" stop-color="#FFAF7E" stop-opacity="0"/></linearGradient><linearGradient id="l" x1="26.1" x2="25.9" y1="12.6" y2="14.5" gradientUnits="userSpaceOnUse"><stop stop-color="#EB9251"/><stop offset="1" stop-color="#EB9251" stop-opacity="0"/></linearGradient><linearGradient id="p" x1="8" x2="7.9" y1="19.2" y2="21.5" gradientUnits="userSpaceOnUse"><stop offset=".2" stop-color="#A2643B"/><stop offset="1" stop-color="#A2643B" stop-opacity="0"/></linearGradient><linearGradient id="u" x1="18.1" x2="18.1" y1="27.7" y2="15.1" gradientUnits="userSpaceOnUse"><stop stop-color="#CA6645"/><stop offset="1" stop-color="#D57E40"/></linearGradient><linearGradient id="D" x1="16" x2="16" y1="16.5" y2="24.7" gradientUnits="userSpaceOnUse"><stop stop-color="#E6A04E"/><stop offset="1" stop-color="#FFC286"/></linearGradient><linearGradient id="I" x1="16" x2="16" y1="3.9" y2="16.2" gradientUnits="userSpaceOnUse"><stop stop-color="#EC9D55"/><stop offset="1" stop-color="#DE7944"/></linearGradient><linearGradient id="S" x1="3.4" x2="3.7" y1="-.2" y2="8.7" gradientUnits="userSpaceOnUse"><stop stop-color="#E27749"/><stop offset="1" stop-color="#DA835D"/></linearGradient><linearGradient id="V" x1="25.5" x2="25.5" y1="20.3" y2="28.8" gradientUnits="userSpaceOnUse"><stop stop-color="#E17341"/><stop offset="1" stop-color="#D48461"/></linearGradient><linearGradient id="X" x1="1.8" x2="1.8" y1=".9" y2="5.9" gradientUnits="userSpaceOnUse"><stop stop-color="#FFBE7B"/><stop offset="1" stop-color="#FFDDA2"/></linearGradient><linearGradient id="Y" x1="24.5" x2="24.6" y1="24.1" y2="29" gradientUnits="userSpaceOnUse"><stop stop-color="#F7B678"/><stop offset="1" stop-color="#FFDDA2"/></linearGradient><linearGradient id="aa" x1="16" x2="16" y1="9.7" y2="11.3" gradientUnits="userSpaceOnUse"><stop stop-color="#49393F"/><stop offset="1" stop-color="#45323F"/></linearGradient><filter id="f" width="5.2" height="5.2" x="18.2" y="1.9" color-interpolation-filters="sRGB" filterUnits="userSpaceOnUse"><feFlood flood-opacity="0" result="BackgroundImageFix"/><feBlend in="SourceGraphic" in2="BackgroundImageFix" result="shape"/><feGaussianBlur result="effect1_foregroundBlur_18_3767" stdDeviation=".1"/></filter><filter id="j" width="13" height="10.3" x="17.1" y="13.8" color-interpolation-filters="sRGB" filterUnits="userSpaceOnUse"><feFlood flood-opacity="0" result="BackgroundImageFix"/><feBlend in="SourceGraphic" in2="BackgroundImageFix" result="shape"/><feColorMatrix in="SourceAlpha" result="hardAlpha" values="0 0 0 0 0 0 0 0 0 0 0 0 0 0 0 0 0 0 127 0"/><feOffset dx=".1" dy="-.1"/><feGaussianBlur stdDeviation=".5"/><feComposite in2="hardAlpha" k2="-1" k3="1" operator="arithmetic"/><feColorMatrix values="0 0 0 0 0.580392 0 0 0 0 0.25098 0 0 0 0 0.309804 0 0 0 1 0"/><feBlend in2="shape" result="effect1_innerShadow_18_3767"/></filter><filter id="o" width="13.4" height="10.5" x="1.6" y="13.5" color-interpolation-filters="sRGB" filterUnits="userSpaceOnUse"><feFlood flood-opacity="0" result="BackgroundImageFix"/><feBlend in="SourceGraphic" in2="BackgroundImageFix" result="shape"/><feColorMatrix in="SourceAlpha" result="hardAlpha" values="0 0 0 0 0 0 0 0 0 0 0 0 0 0 0 0 0 0 127 0"/><feOffset dx="-.5" dy="-.5"/><feGaussianBlur stdDeviation=".5"/><feComposite in2="hardAlpha" k2="-1" k3="1" operator="arithmetic"/><feColorMatrix values="0 0 0 0 0.709804 0 0 0 0 0.341176 0 0 0 0 0.278431 0 0 0 1 0"/><feBlend in2="shape" result="effect1_innerShadow_18_3767"/></filter><filter id="t" width="11.4" height="8.9" x="18.9" y="13.8" color-interpolation-filters="sRGB" filterUnits="userSpaceOnUse"><feFlood flood-opacity="0" result="BackgroundImageFix"/><feBlend in="SourceGraphic" in2="BackgroundImageFix" result="shape"/><feGaussianBlur result="effect1_foregroundBlur_18_3767" stdDeviation="1"/></filter><filter id="H" width="16.3" height="13.9" x="8.1" y="2.5" color-interpolation-filters="sRGB" filterUnits="userSpaceOnUse"><feFlood flood-opacity="0" result="BackgroundImageFix"/><feBlend in="SourceGraphic" in2="BackgroundImageFix" result="shape"/><feColorMatrix in="SourceAlpha" result="hardAlpha" values="0 0 0 0 0 0 0 0 0 0 0 0 0 0 0 0 0 0 127 0"/><feOffset dx=".5" dy=".3"/><feGaussianBlur stdDeviation=".8"/><feComposite in2="hardAlpha" k2="-1" k3="1" operator="arithmetic"/><feColorMatrix values="0 0 0 0 0.741176 0 0 0 0 0.498039 0 0 0 0 0.266667 0 0 0 1 0"/><feBlend in2="shape" result="effect1_innerShadow_18_3767"/></filter><filter id="O" width="6.6" height="5.6" x="12.7" y="9.1" color-interpolation-filters="sRGB" filterUnits="userSpaceOnUse"><feFlood flood-opacity="0" result="BackgroundImageFix"/><feBlend in="SourceGraphic" in2="BackgroundImageFix" result="shape"/><feColorMatrix in="SourceAlpha" result="hardAlpha" values="0 0 0 0 0 0 0 0 0 0 0 0 0 0 0 0 0 0 127 0"/><feOffset dx=".1" dy=".1"/><feGaussianBlur stdDeviation=".2"/><feComposite in2="hardAlpha" k2="-1" k3="1" operator="arithmetic"/><feColorMatrix values="0 0 0 0 0.823529 0 0 0 0 0.568627 0 0 0 0 0.384314 0 0 0 1 0"/><feBlend in2="shape" result="effect1_innerShadow_18_3767"/></filter><filter id="R" width="8" height="8.9" x="4.9" y="21.3" color-interpolation-filters="sRGB" filterUnits="userSpaceOnUse"><feFlood flood-opacity="0" result="BackgroundImageFix"/><feBlend in="SourceGraphic" in2="BackgroundImageFix" result="shape"/><feColorMatrix in="SourceAlpha" result="hardAlpha" values="0 0 0 0 0 0 0 0 0 0 0 0 0 0 0 0 0 0 127 0"/><feOffset dx=".1" dy=".3"/><feGaussianBlur stdDeviation=".3"/><feComposite in2="hardAlpha" k2="-1" k3="1" operator="arithmetic"/><feColorMatrix values="0 0 0 0 0.807843 0 0 0 0 0.407843 0 0 0 0 0.231373 0 0 0 1 0"/><feBlend in2="shape" result="effect1_innerShadow_18_3767"/><feColorMatrix in="SourceAlpha" result="hardAlpha" values="0 0 0 0 0 0 0 0 0 0 0 0 0 0 0 0 0 0 127 0"/><feOffset dx="-.1" dy="-.3"/><feGaussianBlur stdDeviation=".3"/><feComposite in2="hardAlpha" k2="-1" k3="1" operator="arithmetic"/><feColorMatrix values="0 0 0 0 0.72549 0 0 0 0 0.4 0 0 0 0 0.341176 0 0 0 1 0"/><feBlend in2="effect1_innerShadow_18_3767" result="effect2_innerShadow_18_3767"/></filter><filter id="U" width="8" height="8.9" x="19" y="21.3" color-interpolation-filters="sRGB" filterUnits="userSpaceOnUse"><feFlood flood-opacity="0" result="BackgroundImageFix"/><feBlend in="SourceGraphic" in2="BackgroundImageFix" result="shape"/><feColorMatrix in="SourceAlpha" result="hardAlpha" values="0 0 0 0 0 0 0 0 0 0 0 0 0 0 0 0 0 0 127 0"/><feOffset dx="-.1" dy="-.3"/><feGaussianBlur stdDeviation=".3"/><feComposite in2="hardAlpha" k2="-1" k3="1" operator="arithmetic"/><feColorMatrix values="0 0 0 0 0.682353 0 0 0 0 0.356863 0 0 0 0 0.32549 0 0 0 1 0"/><feBlend in2="shape" result="effect1_innerShadow_18_3767"/><feColorMatrix in="SourceAlpha" result="hardAlpha" values="0 0 0 0 0 0 0 0 0 0 0 0 0 0 0 0 0 0 127 0"/><feOffset dx=".1" dy=".3"/><feGaussianBlur stdDeviation=".3"/><feComposite in2="hardAlpha" k2="-1" k3="1" operator="arithmetic"/><feColorMatrix values="0 0 0 0 0.815686 0 0 0 0 0.384314 0 0 0 0 0.176471 0 0 0 1 0"/><feBlend in2="effect1_innerShadow_18_3767" result="effect2_innerShadow_18_3767"/></filter><filter id="Z" width="3.2" height="2.4" x="13.9" y="9.6" color-interpolation-filters="sRGB" filterUnits="userSpaceOnUse"><feFlood flood-opacity="0" result="BackgroundImageFix"/><feBlend in="SourceGraphic" in2="BackgroundImageFix" result="shape"/><feGaussianBlur result="effect1_foregroundBlur_18_3767" stdDeviation=".3"/></filter><filter id="ac" width="4.3" height="4.8" x="8.6" y="21.6" color-interpolation-filters="sRGB" filterUnits="userSpaceOnUse"><feFlood flood-opacity="0" result="BackgroundImageFix"/><feBlend in="SourceGraphic" in2="BackgroundImageFix" result="shape"/><feGaussianBlur result="effect1_foregroundBlur_18_3767" stdDeviation=".4"/></filter></defs></svg>