<svg xmlns="http://www.w3.org/2000/svg" width="32" height="32" fill="none"><g filter="url(#a)"><path fill="#D9677A" d="M25.7 30q-.5 0-1-.5l-.2-.2a11 11 0 0 1 0-16q.8-.7.8-1.9t-.9-1.9-1.9-.8q-1 0-2 .8l-7.7 7.8a5.7 5.7 0 0 1-8.1 0 5.7 5.7 0 0 1 0-8.1l3.8-3.9.1-.2V3.5Q8.7 2 10.1 2t1.5 1.5V5q0 1.4-1 2.4l-3.8 3.8a2.7 2.7 0 0 0 3.9 3.9l7.8-7.8a5.7 5.7 0 0 1 8 0 5.7 5.7 0 0 1 0 8.1 8.3 8.3 0 0 0 0 11.7l.3.2c.6.6.6 1.6 0 2.1q-.5.5-1 .5"/><path fill="url(#b)" d="M25.7 30q-.5 0-1-.5l-.2-.2a11 11 0 0 1 0-16q.8-.7.8-1.9t-.9-1.9-1.9-.8q-1 0-2 .8l-7.7 7.8a5.7 5.7 0 0 1-8.1 0 5.7 5.7 0 0 1 0-8.1l3.8-3.9.1-.2V3.5Q8.7 2 10.1 2t1.5 1.5V5q0 1.4-1 2.4l-3.8 3.8a2.7 2.7 0 0 0 3.9 3.9l7.8-7.8a5.7 5.7 0 0 1 8 0 5.7 5.7 0 0 1 0 8.1 8.3 8.3 0 0 0 0 11.7l.3.2c.6.6.6 1.6 0 2.1q-.5.5-1 .5"/><path fill="url(#c)" d="M25.7 30q-.5 0-1-.5l-.2-.2a11 11 0 0 1 0-16q.8-.7.8-1.9t-.9-1.9-1.9-.8q-1 0-2 .8l-7.7 7.8a5.7 5.7 0 0 1-8.1 0 5.7 5.7 0 0 1 0-8.1l3.8-3.9.1-.2V3.5Q8.7 2 10.1 2t1.5 1.5V5q0 1.4-1 2.4l-3.8 3.8a2.7 2.7 0 0 0 3.9 3.9l7.8-7.8a5.7 5.7 0 0 1 8 0 5.7 5.7 0 0 1 0 8.1 8.3 8.3 0 0 0 0 11.7l.3.2c.6.6.6 1.6 0 2.1q-.5.5-1 .5"/><path fill="url(#d)" d="M25.7 30q-.5 0-1-.5l-.2-.2a11 11 0 0 1 0-16q.8-.7.8-1.9t-.9-1.9-1.9-.8q-1 0-2 .8l-7.7 7.8a5.7 5.7 0 0 1-8.1 0 5.7 5.7 0 0 1 0-8.1l3.8-3.9.1-.2V3.5Q8.7 2 10.1 2t1.5 1.5V5q0 1.4-1 2.4l-3.8 3.8a2.7 2.7 0 0 0 3.9 3.9l7.8-7.8a5.7 5.7 0 0 1 8 0 5.7 5.7 0 0 1 0 8.1 8.3 8.3 0 0 0 0 11.7l.3.2c.6.6.6 1.6 0 2.1q-.5.5-1 .5"/><path fill="url(#e)" d="M25.7 30q-.5 0-1-.5l-.2-.2a11 11 0 0 1 0-16q.8-.7.8-1.9t-.9-1.9-1.9-.8q-1 0-2 .8l-7.7 7.8a5.7 5.7 0 0 1-8.1 0 5.7 5.7 0 0 1 0-8.1l3.8-3.9.1-.2V3.5Q8.7 2 10.1 2t1.5 1.5V5q0 1.4-1 2.4l-3.8 3.8a2.7 2.7 0 0 0 3.9 3.9l7.8-7.8a5.7 5.7 0 0 1 8 0 5.7 5.7 0 0 1 0 8.1 8.3 8.3 0 0 0 0 11.7l.3.2c.6.6.6 1.6 0 2.1q-.5.5-1 .5"/><path fill="url(#f)" d="M25.7 30q-.5 0-1-.5l-.2-.2a11 11 0 0 1 0-16q.8-.7.8-1.9t-.9-1.9-1.9-.8q-1 0-2 .8l-7.7 7.8a5.7 5.7 0 0 1-8.1 0 5.7 5.7 0 0 1 0-8.1l3.8-3.9.1-.2V3.5Q8.7 2 10.1 2t1.5 1.5V5q0 1.4-1 2.4l-3.8 3.8a2.7 2.7 0 0 0 3.9 3.9l7.8-7.8a5.7 5.7 0 0 1 8 0 5.7 5.7 0 0 1 0 8.1 8.3 8.3 0 0 0 0 11.7l.3.2c.6.6.6 1.6 0 2.1q-.5.5-1 .5"/></g><path fill="url(#g)" d="M22.4 8.7 25 6.2a6 6 0 0 0-6.4 1.2l-7.8 7.8a2.7 2.7 0 0 1-3.9-4l3.8-3.7q1-1 1-2.4V3.5Q11.4 2 10.1 2T8.6 3.5V5l-.1.2-3.8 3.9a5.7 5.7 0 0 0 0 8 5.7 5.7 0 0 0 8.1 0l7.8-7.7q.8-.8 1.8-.8"/><path fill="#B79198" d="m24.1 29 2.1-2.1-.6-.8-2.1 2.1z" opacity=".3"/><path fill="#C7848D" d="M24.3 23h-3l.1 1h3.2z" opacity=".3"/><path fill="#DC949D" d="m24.5 19-3-.8-.1 1 2.9.7z" opacity=".3"/><path fill="#E38390" d="M23.4 14.6 26 16l.7-.7-2.7-1.6z" opacity=".3"/><path fill="#ED9EB4" d="M28 10h-3.2l.4 1h3zm-6.4-4.2v3l.9-.1h.1v-3z" opacity=".3"/><path fill="#DB9EAF" d="m17.6 8.2-.7.7 2.1 2.2.7-.7zm-3.2 3.2-.7.7 2.1 2.1.7-.7zm-3.2 3.2-.5.6h-.2l2.2 2.2v-.1l.7-.6z" opacity=".3"/><path fill="#D7838B" d="M8.6 16q-.5 0-1-.3V19h1z" opacity=".3"/><path fill="url(#h)" d="M3 13h3q0-.6.3-1H3z" opacity=".3"/><path fill="url(#i)" d="m6.8 7-.7.8 2 2.1.8-.7z" opacity=".3"/><g filter="url(#j)"><path stroke="url(#k)" stroke-linecap="round" stroke-width=".8" d="m9 7 1-.9q.5-.6.5-1.4v-.8"/></g><path fill="url(#l)" d="M10 4a.5.5 0 1 0 0-1 .5.5 0 0 0 0 1"/><path fill="url(#m)" d="M10 4a.5.5 0 1 0 0-1 .5.5 0 0 0 0 1"/><path fill="url(#n)" d="M10 4a.5.5 0 1 0 0-1 .5.5 0 0 0 0 1"/><g filter="url(#o)"><path stroke="url(#p)" stroke-linecap="round" stroke-width=".8" d="M26.7 13.5c-1.2 1-3.6 4-3.5 7.6 0 3.6 1.8 6 2.6 6.9"/></g><g filter="url(#q)"><path stroke="url(#r)" stroke-linecap="round" stroke-width=".8" d="M20.6 7.1a5 5 0 0 1 5 .8 4 4 0 0 1 1 5.6"/></g><g filter="url(#s)"><path stroke="url(#t)" stroke-linecap="round" stroke-width=".8" d="m10 7-4 4c-.7.7-1.7 2.6-.3 4.5a3.8 3.8 0 0 0 6 .3"/></g><defs><linearGradient id="b" x1="28.3" x2="21.1" y1="29.2" y2="27" gradientUnits="userSpaceOnUse"><stop stop-color="#955161"/><stop offset="1" stop-color="#955161" stop-opacity="0"/></linearGradient><linearGradient id="c" x1="17.4" x2="23.1" y1="32.7" y2="6.9" gradientUnits="userSpaceOnUse"><stop stop-color="#924367"/><stop offset="1" stop-color="#924367" stop-opacity="0"/></linearGradient><linearGradient id="h" x1="3.4" x2="5.9" y1="11.9" y2="11.7" gradientUnits="userSpaceOnUse"><stop offset=".5" stop-color="#D88D91"/><stop offset=".7" stop-color="#E19B9D" stop-opacity="0"/><stop offset="1" stop-color="#E19B9D"/><stop offset="1" stop-color="#E19B9D" stop-opacity="0"/></linearGradient><linearGradient id="i" x1="6.4" x2="8.6" y1="7.4" y2="9.7" gradientUnits="userSpaceOnUse"><stop offset=".7" stop-color="#E19B9D"/><stop offset="1" stop-color="#E19B9D" stop-opacity="0"/></linearGradient><linearGradient id="k" x1="10.8" x2="9.7" y1="5" y2="4.8" gradientUnits="userSpaceOnUse"><stop stop-color="#F1979E"/><stop offset="1" stop-color="#F1979E" stop-opacity="0"/></linearGradient><linearGradient id="n" x1="10" x2="9.6" y1="3.2" y2="2.9" gradientUnits="userSpaceOnUse"><stop stop-color="#5C5051" stop-opacity="0"/><stop offset="1" stop-color="#5C5051"/></linearGradient><linearGradient id="p" x1="26" x2="29.2" y1="28.4" y2="27.2" gradientUnits="userSpaceOnUse"><stop stop-color="#BA8284"/><stop offset="1" stop-color="#BA8284" stop-opacity="0"/></linearGradient><linearGradient id="r" x1="25.2" x2="23.4" y1="7.1" y2="8.5" gradientUnits="userSpaceOnUse"><stop stop-color="#F1979E"/><stop offset="1" stop-color="#F1979E" stop-opacity="0"/></linearGradient><linearGradient id="t" x1="9.4" x2="12.3" y1="17.6" y2="15.4" gradientUnits="userSpaceOnUse"><stop stop-color="#F1979E"/><stop offset="1" stop-color="#F1979E" stop-opacity="0"/></linearGradient><radialGradient id="d" cx="0" cy="0" r="1" gradientTransform="matrix(-9.12505 -15.49992 2.17096 -1.27808 23.8 29.1)" gradientUnits="userSpaceOnUse"><stop stop-color="#8B3968"/><stop offset="1" stop-color="#8B3968" stop-opacity="0"/></radialGradient><radialGradient id="e" cx="0" cy="0" r="1" gradientTransform="rotate(129.5 7 19.9)scale(2.3087 1.21277)" gradientUnits="userSpaceOnUse"><stop stop-color="#B47E7F"/><stop offset="1" stop-color="#B47E7F" stop-opacity="0"/></radialGradient><radialGradient id="f" cx="0" cy="0" r="1" gradientTransform="matrix(-1.96829 2.71908 -3.40787 -2.46689 11.7 2.5)" gradientUnits="userSpaceOnUse"><stop stop-color="#F49CA0"/><stop offset="1" stop-color="#F49CA0" stop-opacity="0"/></radialGradient><radialGradient id="g" cx="0" cy="0" r="1" gradientTransform="rotate(134.5 5.7 6.8)scale(14.2753 9.82218)" gradientUnits="userSpaceOnUse"><stop offset=".9" stop-color="#A8437A" stop-opacity="0"/><stop offset="1" stop-color="#A8437A"/></radialGradient><radialGradient id="l" cx="0" cy="0" r="1" gradientTransform="rotate(125.8 4.3 4.3)scale(.69386 .61861)" gradientUnits="userSpaceOnUse"><stop offset="0" stop-color="#433437"/><stop offset="1" stop-color="#3B2838"/></radialGradient><radialGradient id="m" cx="0" cy="0" r="1" gradientTransform="matrix(-.22808 .20609 -.1813 -.20065 10.3 3.4)" gradientUnits="userSpaceOnUse"><stop stop-color="#5C5051"/><stop offset="1" stop-color="#5C5051" stop-opacity="0"/></radialGradient><filter id="a" width="25.7" height="28.4" x="3" y="2" color-interpolation-filters="sRGB" filterUnits="userSpaceOnUse"><feFlood flood-opacity="0" result="BackgroundImageFix"/><feBlend in="SourceGraphic" in2="BackgroundImageFix" result="shape"/><feColorMatrix in="SourceAlpha" result="hardAlpha" values="0 0 0 0 0 0 0 0 0 0 0 0 0 0 0 0 0 0 127 0"/><feOffset dx=".4" dy=".4"/><feGaussianBlur stdDeviation=".5"/><feComposite in2="hardAlpha" k2="-1" k3="1" operator="arithmetic"/><feColorMatrix values="0 0 0 0 0.819608 0 0 0 0 0.501961 0 0 0 0 0.517647 0 0 0 1 0"/><feBlend in2="shape" result="effect1_innerShadow_28327_6918"/></filter><filter id="j" width="3.7" height="5.3" x="8" y="2.7" color-interpolation-filters="sRGB" filterUnits="userSpaceOnUse"><feFlood flood-opacity="0" result="BackgroundImageFix"/><feBlend in="SourceGraphic" in2="BackgroundImageFix" result="shape"/><feGaussianBlur result="effect1_foregroundBlur_28327_6918" stdDeviation=".4"/></filter><filter id="o" width="6.3" height="17.2" x="21.8" y="12.2" color-interpolation-filters="sRGB" filterUnits="userSpaceOnUse"><feFlood flood-opacity="0" result="BackgroundImageFix"/><feBlend in="SourceGraphic" in2="BackgroundImageFix" result="shape"/><feGaussianBlur result="effect1_foregroundBlur_28327_6918" stdDeviation=".5"/></filter><filter id="q" width="9.4" height="9.5" x="19.2" y="5.4" color-interpolation-filters="sRGB" filterUnits="userSpaceOnUse"><feFlood flood-opacity="0" result="BackgroundImageFix"/><feBlend in="SourceGraphic" in2="BackgroundImageFix" result="shape"/><feGaussianBlur result="effect1_foregroundBlur_28327_6918" stdDeviation=".5"/></filter><filter id="s" width="9.4" height="12.9" x="3.6" y="5.5" color-interpolation-filters="sRGB" filterUnits="userSpaceOnUse"><feFlood flood-opacity="0" result="BackgroundImageFix"/><feBlend in="SourceGraphic" in2="BackgroundImageFix" result="shape"/><feGaussianBlur result="effect1_foregroundBlur_28327_6918" stdDeviation=".5"/></filter></defs></svg>